<svg width="24" height="24" viewBox="0 0 38 38" fill="none" xmlns="http://www.w3.org/2000/svg">
<path fill-rule="evenodd" clip-rule="evenodd" d="M19.375 13.1875L25 10L27.9581 15.2201L22.3331 18.4076C21.861 18.6751 21.861 19.295 22.3331 19.5624L27.9581 22.7499L25 27.9701L19.375 24.7826C19.3054 24.7431 19.2368 24.7028 19.1694 24.6615C18.9832 24.7927 18.7878 24.9167 18.5831 25.0327L12.9581 28.2201L10 23L15.625 19.8125C16.097 19.545 16.097 18.9252 15.625 18.6577L10 15.4702L12.9581 10.2501L18.5831 13.4376C18.6527 13.477 18.7212 13.5174 18.7887 13.5586C18.9749 13.4274 19.1703 13.3035 19.375 13.1875Z" fill="#ECF016"/>
</svg>
