<svg width="215" height="40" viewBox="0 0 215 40" fill="none" xmlns="http://www.w3.org/2000/svg">
<path fill-rule="evenodd" clip-rule="evenodd" d="M21.8065 34.4339C22.7072 34.4339 23.4374 35.1641 23.4374 36.0648V38.3481C23.4374 39.2489 22.7072 39.9791 21.8065 39.9791H19.5232C18.6224 39.9791 17.8922 39.2489 17.8922 38.3481V36.0648C17.8922 35.1641 18.6224 34.4339 19.5232 34.4339H21.8065ZM13.3257 34.1077C14.0463 34.1077 14.6304 34.6919 14.6304 35.4125V37.0434C14.6304 37.764 14.0463 38.3481 13.3257 38.3481H11.6947C10.9742 38.3481 10.39 37.764 10.39 37.0434V35.4125C10.39 34.6919 10.9742 34.1077 11.6947 34.1077H13.3257ZM29.6349 34.1077C30.3555 34.1077 30.9396 34.6919 30.9396 35.4125V37.0434C30.9396 37.764 30.3555 38.3481 29.6349 38.3481H28.004C27.2834 38.3481 26.6992 37.764 26.6992 37.0434V35.4125C26.6992 34.6919 27.2834 34.1077 28.004 34.1077H29.6349ZM5.17107 26.1162C5.89165 26.1162 6.4758 26.7004 6.4758 27.421V29.0519C6.4758 29.7725 5.89165 30.3566 5.17107 30.3566H3.54014C2.81956 30.3566 2.23541 29.7725 2.23541 29.0519V27.421C2.23541 26.7004 2.81956 26.1162 3.54014 26.1162H5.17107ZM37.7895 26.1162C38.5101 26.1162 39.0942 26.7004 39.0942 27.421V29.0519C39.0942 29.7725 38.5101 30.3566 37.7895 30.3566H36.1586C35.438 30.3566 34.8538 29.7725 34.8538 29.0519V27.421C34.8538 26.7004 35.438 26.1162 36.1586 26.1162H37.7895ZM4.68179 17.1462C5.58252 17.1462 6.31271 17.8763 6.31271 18.7771V21.0604C6.31271 21.9611 5.58252 22.6913 4.68179 22.6913H2.3985C1.49777 22.6913 0.767578 21.9611 0.767578 21.0604V18.7771C0.767578 17.8763 1.49777 17.1462 2.3985 17.1462H4.68179ZM39.0942 17.1462C39.995 17.1462 40.7251 17.8763 40.7251 18.7771V21.0604C40.7251 21.9611 39.995 22.6913 39.0942 22.6913H36.8109C35.9102 22.6913 35.18 21.9611 35.18 21.0604V18.7771C35.18 17.8763 35.9102 17.1462 36.8109 17.1462H39.0942ZM5.17107 9.64392C5.89165 9.64392 6.4758 10.2281 6.4758 10.9487V12.5796C6.4758 13.3002 5.89165 13.8843 5.17107 13.8843H3.54014C2.81956 13.8843 2.23541 13.3002 2.23541 12.5796V10.9487C2.23541 10.2281 2.81956 9.64392 3.54014 9.64392H5.17107ZM37.7895 9.64392C38.5101 9.64392 39.0942 10.2281 39.0942 10.9487V12.5796C39.0942 13.3002 38.5101 13.8843 37.7895 13.8843H36.1586C35.438 13.8843 34.8538 13.3002 34.8538 12.5796V10.9487C34.8538 10.2281 35.438 9.64392 36.1586 9.64392H37.7895ZM13.3257 1.65241C14.0463 1.65241 14.6304 2.23656 14.6304 2.95714V4.58806C14.6304 5.30865 14.0463 5.8928 13.3257 5.8928H11.6947C10.9742 5.8928 10.39 5.30865 10.39 4.58806V2.95714C10.39 2.23656 10.9742 1.65241 11.6947 1.65241H13.3257ZM29.6349 1.65241C30.3555 1.65241 30.9396 2.23656 30.9396 2.95714V4.58806C30.9396 5.30865 30.3555 5.8928 29.6349 5.8928H28.004C27.2834 5.8928 26.6992 5.30865 26.6992 4.58806V2.95714C26.6992 2.23656 27.2834 1.65241 28.004 1.65241H29.6349ZM21.8065 0.0214844C22.7072 0.0214844 23.4374 0.751673 23.4374 1.65241V3.93569C23.4374 4.83643 22.7072 5.56662 21.8065 5.56662H19.5232C18.6224 5.56662 17.8922 4.83643 17.8922 3.93569V1.65241C17.8922 0.751673 18.6224 0.0214844 19.5232 0.0214844H21.8065Z" fill="white"/>
<path fill-rule="evenodd" clip-rule="evenodd" d="M21.9692 25.3005C23.0501 25.3005 23.9263 26.1767 23.9263 27.2576V29.867C23.9263 30.9479 23.0501 31.8241 21.9692 31.8241H19.3598C18.2789 31.8241 17.4027 30.9479 17.4027 29.867V27.2576C17.4027 26.1767 18.2789 25.3005 19.3598 25.3005H21.9692ZM13.3254 25.7897C14.2261 25.7897 14.9563 26.5199 14.9563 27.4206V29.7039C14.9563 30.6047 14.2261 31.3349 13.3254 31.3349H11.0421C10.1413 31.3349 9.41115 30.6047 9.41115 29.7039V27.4206C9.41115 26.5199 10.1413 25.7897 11.0421 25.7897H13.3254ZM30.45 25.7897C31.3508 25.7897 32.081 26.5199 32.081 27.4206V29.7039C32.081 30.6047 31.3508 31.3349 30.45 31.3349H28.1667C27.266 31.3349 26.5358 30.6047 26.5358 29.7039V27.4206C26.5358 26.5199 27.266 25.7897 28.1667 25.7897H30.45ZM13.4885 16.6566C14.5693 16.6566 15.4456 17.5328 15.4456 18.6137V21.2231C15.4456 22.304 14.5693 23.1803 13.4885 23.1803H10.879C9.7981 23.1803 8.92188 22.304 8.92188 21.2231V18.6137C8.92188 17.5328 9.7981 16.6566 10.879 16.6566H13.4885ZM30.6131 16.6566C31.694 16.6566 32.5702 17.5328 32.5702 18.6137V21.2231C32.5702 22.304 31.694 23.1803 30.6131 23.1803H28.0037C26.9228 23.1803 26.0465 22.304 26.0465 21.2231V18.6137C26.0465 17.5328 26.9228 16.6566 28.0037 16.6566H30.6131ZM21.9692 8.17578C23.0501 8.17578 23.9263 9.05201 23.9263 10.1329V12.7424C23.9263 13.8232 23.0501 14.6995 21.9692 14.6995H19.3598C18.2789 14.6995 17.4027 13.8232 17.4027 12.7424V10.1329C17.4027 9.05201 18.2789 8.17578 19.3598 8.17578H21.9692ZM13.3254 8.66506C14.2261 8.66506 14.9563 9.39525 14.9563 10.296V12.5793C14.9563 13.48 14.2261 14.2102 13.3254 14.2102H11.0421C10.1413 14.2102 9.41115 13.48 9.41115 12.5793V10.296C9.41115 9.39525 10.1413 8.66506 11.0421 8.66506H13.3254ZM30.45 8.66506C31.3508 8.66506 32.081 9.39525 32.081 10.296V12.5793C32.081 13.48 31.3508 14.2102 30.45 14.2102H28.1667C27.266 14.2102 26.5358 13.48 26.5358 12.5793V10.296C26.5358 9.39525 27.266 8.66506 28.1667 8.66506H30.45Z" fill="white"/>
<path d="M21.9689 16.6572H19.3594C18.2786 16.6572 17.4023 17.5335 17.4023 18.6143V21.2238C17.4023 22.3047 18.2786 23.1809 19.3594 23.1809H21.9689C23.0498 23.1809 23.926 22.3047 23.926 21.2238V18.6143C23.926 17.5335 23.0498 16.6572 21.9689 16.6572Z" fill="white"/>
<path d="M63.9147 31.7431C65.7647 31.7431 67.438 31.3949 68.9346 30.6986C70.4311 30.0022 71.7303 28.9889 72.8319 27.6586L69.8387 24.8212C69.0904 25.7566 68.233 26.479 67.2665 26.9882C66.2999 27.4975 65.1931 27.7521 63.9459 27.7521C62.9066 27.7521 61.9297 27.5702 61.0151 27.2065C60.1005 26.8427 59.3055 26.3283 58.6299 25.6631C57.9544 24.9979 57.4191 24.1925 57.0242 23.2467C56.6293 22.3009 56.4318 21.246 56.4318 20.082C56.4318 18.918 56.6293 17.8631 57.0242 16.9173C57.4191 15.9715 57.9544 15.166 58.6299 14.5009C59.3055 13.8357 60.1005 13.3213 61.0151 12.9575C61.9297 12.5937 62.9066 12.4119 63.9459 12.4119C65.1307 12.4119 66.1544 12.6405 67.017 13.0978C67.8797 13.5551 68.6435 14.1683 69.3087 14.9374L72.2707 12.0689C71.2106 10.8841 69.9998 9.97987 68.6384 9.35628C67.2769 8.73269 65.7023 8.4209 63.9147 8.4209C62.2519 8.4209 60.7085 8.7223 59.2847 9.3251C57.8608 9.9279 56.6293 10.749 55.59 11.7883C54.5507 12.8276 53.7296 14.0592 53.1268 15.483C52.5241 16.9069 52.2227 18.4399 52.2227 20.082C52.2227 21.7241 52.5241 23.2571 53.1268 24.6809C53.7296 26.1048 54.5507 27.3364 55.59 28.3757C56.6293 29.415 57.8608 30.2361 59.2847 30.8389C60.7085 31.4417 62.2519 31.7431 63.9147 31.7431ZM79.7848 31.2442V8.91977H75.7004V31.2442H79.7848ZM88.8891 31.7431C89.9284 31.7431 90.8533 31.5196 91.664 31.0727C92.4746 30.6258 93.119 30.0178 93.5971 29.2487H93.8465V31.2442H97.6815V15.9663H93.5971V23.4494C93.5971 24.0729 93.5191 24.6602 93.3632 25.211C93.2073 25.7618 92.9787 26.2399 92.6773 26.6452C92.3759 27.0506 92.0121 27.3728 91.586 27.6118C91.1599 27.8508 90.6662 27.9704 90.105 27.9704C89.1697 27.9704 88.4578 27.7053 87.9693 27.1753C87.4808 26.6452 87.2366 25.8294 87.2366 24.7277V15.9663H83.1521V25.2266C83.1521 27.2013 83.625 28.781 84.5708 29.9658C85.5165 31.1507 86.956 31.7431 88.8891 31.7431ZM107.222 31.7431C108.199 31.7431 109.088 31.608 109.888 31.3377C110.688 31.0675 111.374 30.6986 111.946 30.2309C112.517 29.7632 112.959 29.2279 113.271 28.6251C113.583 28.0223 113.739 27.3883 113.739 26.7232C113.739 25.6007 113.359 24.629 112.601 23.8079C111.842 22.9869 110.683 22.3893 109.124 22.0151L106.786 21.4539C106.162 21.2876 105.669 21.1005 105.305 20.8926C104.941 20.6848 104.759 20.4042 104.759 20.0508C104.759 19.6767 104.977 19.3701 105.414 19.131C105.85 18.892 106.36 18.7724 106.942 18.7724C107.503 18.7724 108.064 18.9076 108.625 19.1778C109.187 19.448 109.613 19.8845 109.904 20.4873L113.427 19.0531C112.886 17.8059 112.045 16.8965 110.901 16.3249C109.758 15.7532 108.459 15.4674 107.004 15.4674C106.131 15.4674 105.315 15.5766 104.556 15.7948C103.798 16.0131 103.138 16.3249 102.577 16.7302C102.015 17.1355 101.574 17.6292 101.251 18.2112C100.929 18.7932 100.768 19.4584 100.768 20.2067C100.768 20.8719 100.903 21.4539 101.174 21.9527C101.444 22.4516 101.787 22.8777 102.202 23.2311C102.618 23.5845 103.081 23.8755 103.59 24.1041C104.099 24.3328 104.593 24.4991 105.071 24.603L107.222 25.0707C108.116 25.2785 108.745 25.5124 109.109 25.7722C109.472 26.032 109.654 26.3698 109.654 26.7855C109.654 27.1597 109.436 27.4819 108.999 27.7521C108.563 28.0223 107.971 28.1574 107.222 28.1574C106.495 28.1574 105.835 27.9652 105.242 27.5806C104.65 27.1961 104.177 26.6089 103.824 25.819L100.176 27.378C100.384 27.9184 100.685 28.4536 101.08 28.9837C101.475 29.5137 101.958 29.9814 102.53 30.3868C103.101 30.7921 103.777 31.1195 104.556 31.3689C105.336 31.6184 106.225 31.7431 107.222 31.7431ZM122.999 31.4936C123.664 31.4936 124.272 31.4365 124.823 31.3221C125.374 31.2078 125.888 31.0363 126.366 30.8077L125.212 27.2221C125.025 27.3468 124.828 27.4455 124.62 27.5183C124.412 27.591 124.132 27.6274 123.778 27.6274C123.238 27.6274 122.822 27.4611 122.531 27.1285C122.323 26.9207 122.183 26.666 122.11 26.3646C122.037 26.0632 122.001 25.7358 122.001 25.3825V19.4584H125.743V15.9663H122.001V11.2894H117.917V15.9663H115.235V19.4584H117.917V26.162C117.917 27.8872 118.405 29.2175 119.382 30.1529C119.798 30.5686 120.312 30.896 120.925 31.1351C121.539 31.3741 122.23 31.4936 122.999 31.4936ZM135.969 31.7431C137.694 31.7431 139.155 31.3585 140.35 30.5894C141.545 29.8203 142.496 28.8122 143.203 27.565L139.804 25.8813C139.451 26.5257 138.968 27.061 138.354 27.4871C137.741 27.9132 136.967 28.1263 136.032 28.1263C135.553 28.1263 135.086 28.0587 134.629 27.9236C134.171 27.7885 133.75 27.5702 133.366 27.2688C132.981 26.9674 132.659 26.5933 132.399 26.1464C132.139 25.6995 131.968 25.1642 131.885 24.5406H143.39C143.39 24.4159 143.4 24.3016 143.421 24.1977C143.421 24.0937 143.431 23.9794 143.452 23.8547V23.4805C143.452 22.3373 143.286 21.2772 142.953 20.3002C142.621 19.3233 142.132 18.4762 141.488 17.7591C140.844 17.042 140.043 16.4808 139.087 16.0754C138.131 15.6701 137.04 15.4674 135.813 15.4674C134.649 15.4674 133.584 15.6857 132.617 16.1222C131.651 16.5587 130.814 17.1459 130.108 17.8838C129.401 18.6218 128.85 19.4844 128.455 20.4717C128.06 21.4591 127.863 22.5036 127.863 23.6053C127.863 24.7901 128.065 25.8762 128.471 26.8635C128.876 27.8508 129.442 28.7083 130.17 29.4358C130.897 30.1633 131.755 30.7297 132.742 31.1351C133.73 31.5404 134.805 31.7431 135.969 31.7431ZM139.492 21.641H132.103C132.373 20.7471 132.841 20.0508 133.506 19.5519C134.171 19.0531 134.94 18.8036 135.813 18.8036C136.437 18.8036 136.972 18.8972 137.419 19.0842C137.866 19.2713 138.24 19.5104 138.541 19.8014C138.843 20.0924 139.072 20.4042 139.227 20.7368C139.383 21.0693 139.472 21.3707 139.492 21.641ZM150.156 31.2442V23.7611C150.156 23.1376 150.244 22.5607 150.421 22.0307C150.597 21.5006 150.847 21.0382 151.169 20.6432C151.491 20.2483 151.881 19.9417 152.338 19.7234C152.795 19.5052 153.305 19.396 153.866 19.396C154.302 19.396 154.671 19.4324 154.973 19.5052C155.274 19.5779 155.55 19.6767 155.799 19.8014L156.89 16.091C156.62 15.9247 156.293 15.7896 155.908 15.6857C155.524 15.5818 155.061 15.5298 154.521 15.5298C154.084 15.5298 153.642 15.5922 153.196 15.7169C152.749 15.8416 152.333 16.0183 151.948 16.2469C151.564 16.4756 151.216 16.7458 150.904 17.0576C150.592 17.3694 150.343 17.7124 150.156 18.0865H149.906V15.9663H146.071V31.2442H150.156ZM166.805 31.2442C168.572 31.2442 170.162 30.974 171.576 30.4335C172.989 29.8931 174.195 29.1344 175.192 28.1574C176.19 27.1805 176.954 26.0061 177.484 24.6342C178.014 23.2623 178.279 21.7449 178.279 20.082C178.279 18.4399 178.014 16.9329 177.484 15.561C176.954 14.1891 176.19 13.0095 175.192 12.0221C174.195 11.0348 172.989 10.2709 171.576 9.73043C170.162 9.18999 168.572 8.91977 166.805 8.91977H159.26V31.2442H166.805ZM166.618 27.2532H163.469V12.9107H166.618C167.844 12.9107 168.925 13.0822 169.861 13.4252C170.796 13.7682 171.576 14.2514 172.199 14.875C172.823 15.4986 173.29 16.2521 173.602 17.1355C173.914 18.0189 174.07 19.0011 174.07 20.082C174.07 21.1629 173.914 22.145 173.602 23.0284C173.29 23.9119 172.823 24.6654 172.199 25.2889C171.576 25.9125 170.796 26.3958 169.861 26.7388C168.925 27.0818 167.844 27.2532 166.618 27.2532ZM188.412 31.7431C190.137 31.7431 191.598 31.3585 192.793 30.5894C193.988 29.8203 194.939 28.8122 195.646 27.565L192.247 25.8813C191.894 26.5257 191.411 27.061 190.797 27.4871C190.184 27.9132 189.41 28.1263 188.475 28.1263C187.996 28.1263 187.529 28.0587 187.071 27.9236C186.614 27.7885 186.193 27.5702 185.809 27.2688C185.424 26.9674 185.102 26.5933 184.842 26.1464C184.582 25.6995 184.411 25.1642 184.328 24.5406H195.833C195.833 24.4159 195.843 24.3016 195.864 24.1977C195.864 24.0937 195.874 23.9794 195.895 23.8547V23.4805C195.895 22.3373 195.729 21.2772 195.396 20.3002C195.064 19.3233 194.575 18.4762 193.931 17.7591C193.286 17.042 192.486 16.4808 191.53 16.0754C190.574 15.6701 189.483 15.4674 188.256 15.4674C187.092 15.4674 186.027 15.6857 185.06 16.1222C184.094 16.5587 183.257 17.1459 182.551 17.8838C181.844 18.6218 181.293 19.4844 180.898 20.4717C180.503 21.4591 180.306 22.5036 180.306 23.6053C180.306 24.7901 180.508 25.8762 180.914 26.8635C181.319 27.8508 181.885 28.7083 182.613 29.4358C183.34 30.1633 184.198 30.7297 185.185 31.1351C186.172 31.5404 187.248 31.7431 188.412 31.7431ZM191.935 21.641H184.546C184.816 20.7471 185.284 20.0508 185.949 19.5519C186.614 19.0531 187.383 18.8036 188.256 18.8036C188.88 18.8036 189.415 18.8972 189.862 19.0842C190.309 19.2713 190.683 19.5104 190.984 19.8014C191.286 20.0924 191.514 20.4042 191.67 20.7368C191.826 21.0693 191.915 21.3707 191.935 21.641ZM207.431 31.2442L214.01 15.9663H209.396L205.561 25.6943H205.342L201.538 15.9663H196.893L203.409 31.2442H207.431Z" fill="white"/>
</svg>
