<svg width="177" height="66" viewBox="0 0 177 66" fill="none" xmlns="http://www.w3.org/2000/svg">
<path d="M37.3314 19.9756L37.3314 11.3008L46.0062 11.3008L46.0062 19.9756L37.3314 19.9756Z" fill="#ffffff"/>
<path d="M20 19.9529L20 28.6323L20 37.307L28.6385 37.3252L28.6748 28.6323L37.3132 28.6277L37.3132 19.9529L20 19.9529Z" fill="#ffffff"/>
<path d="M28.6385 37.3252L28.6385 46L37.3132 46V45.9773L45.988 45.9773L45.988 37.3025L45.988 28.6277L37.3132 28.6277L37.3132 37.3025H37.3314L28.6385 37.3252Z" fill="#ffffff"/>
<path d="M64.0587 42.8C67.5087 42.8 69.4887 41.3 70.0587 38.33H70.2987V42.5H74.4987V22.4H69.9987V31.46H69.7287C69.2187 28.94 67.3887 27.17 63.8187 27.17C59.3487 27.17 56.7987 30.2 56.7987 35C56.7987 39.74 59.3787 42.8 64.0587 42.8ZM61.3587 35C61.3587 32.24 62.7087 31.28 65.5887 31.28C68.4687 31.28 69.9987 32.24 69.9987 34.85V35.09C69.9987 37.7 68.4387 38.69 65.5887 38.69C62.7087 38.69 61.3587 37.73 61.3587 35ZM84.8597 42.8C89.6297 42.8 92.8097 40.52 92.8097 37.25V36.92H88.3097V37.22C88.3097 38.51 87.3797 39.2 84.7097 39.2C81.7997 39.2 80.7197 38.21 80.5997 35.9H92.8397C92.8997 35.39 92.9597 35 92.9597 34.46C92.9597 29.75 89.6897 27.17 84.7697 27.17C79.8197 27.17 76.4297 30.2 76.4297 35C76.4297 40.34 79.8497 42.8 84.8597 42.8ZM84.6797 30.68C87.3197 30.68 88.5197 31.55 88.6397 33.53H80.6597C80.8697 31.58 82.0097 30.68 84.6797 30.68ZM100.568 42.5V31.19H105.218V27.47H100.388C100.268 26 101.198 25.67 103.178 25.67H105.218V22.4H103.898C99.278 22.4 96.638 24.44 96.158 27.47H93.938V31.19H96.068V42.5H100.568ZM111.218 25.94V22.4H106.718V25.94H111.218ZM111.218 42.5V27.47H106.718V42.5H111.218ZM118.089 42.5V34.91C118.089 32.36 119.109 31.22 121.959 31.22C124.719 31.22 125.709 32.24 125.709 34.64V42.5H130.209V33.14C130.209 29.81 128.259 27.17 124.149 27.17C120.219 27.17 118.419 29.57 118.029 32.09H117.759V27.47H113.589V42.5H118.089ZM140.465 42.8C145.235 42.8 148.415 40.52 148.415 37.25V36.92H143.915V37.22C143.915 38.51 142.985 39.2 140.315 39.2C137.405 39.2 136.325 38.21 136.205 35.9H148.445C148.505 35.39 148.565 35 148.565 34.46C148.565 29.75 145.295 27.17 140.375 27.17C135.425 27.17 132.035 30.2 132.035 35C132.035 40.34 135.455 42.8 140.465 42.8ZM140.285 30.68C142.925 30.68 144.125 31.55 144.245 33.53H136.265C136.475 31.58 137.615 30.68 140.285 30.68ZM155.963 42.5V37.25H150.173V42.5H155.963Z" fill="#ffffff"/>
</svg>
