<svg width="56" height="59" viewBox="0 0 56 59" fill="none" xmlns="http://www.w3.org/2000/svg">
<path fill-rule="evenodd" clip-rule="evenodd" d="M45.1412 0.735138L34.7916 3.50832L34.8503 2.85347L45.2024 0.00012207L45.1412 0.735138ZM34.4829 6.9448L44.8562 4.1653L45.0532 1.79688L34.6964 4.57195L34.4829 6.9448ZM44.5705 7.59558L34.1737 10.3814L34.3868 8.00863L44.7675 5.22717L44.5705 7.59558ZM33.8664 13.8178L44.287 11.0257L44.4839 8.65723L34.0797 11.445L33.8664 13.8178ZM55.9595 8.93518L27.8042 16.4794L27.6161 18.8455L55.7421 11.3091L55.9595 8.93518ZM55.6468 12.3731L27.5341 19.9059L27.3455 22.272L55.4295 14.747L55.6468 12.3731ZM27.2598 23.3332L55.3302 15.8118L55.0086 18.2137L27.0717 25.6993L27.2598 23.3332ZM43.3432 22.378L32.8448 25.1911L32.6315 27.5637L43.1463 24.7463L43.3432 22.378ZM32.5354 28.6273L43.0576 25.8078L42.8607 28.1761L32.3223 30.9999L32.5354 28.6273ZM48.7076 27.6476L54.3326 26.1404L54.1283 28.5108L44.4302 31.1093L44.6319 28.8735L48.7076 27.6476ZM32.2268 32.0641L42.7721 29.2383L42.5754 31.6069L32.0135 34.437L32.2268 32.0641ZM42.4869 32.6679L31.9177 35.5L31.7044 37.8729L42.29 35.0364L42.4869 32.6679ZM31.6085 38.9367L42.201 36.0984L42.0043 38.4668L31.3952 41.3096L31.6085 38.9367ZM43.8104 37.9832L44.0247 35.6102L53.7414 33.0065L53.5371 35.377L43.8104 37.9832ZM31.2994 42.3738L41.9158 39.529L41.7191 41.8975L31.0865 44.7464L31.2994 42.3738ZM41.6304 42.959L30.9904 45.8102L30.7773 48.1828L41.4334 45.3276L41.6304 42.959ZM30.6821 49.2459L41.3454 46.3886L41.1487 48.7569L30.469 51.6187L30.6821 49.2459ZM41.0597 49.8194L30.3727 52.683L30.343 53.0141L41.0317 50.1544L41.0597 49.8194ZM44.1205 34.5464L53.8329 31.9439L54.037 29.5735L44.3347 32.1734L44.1205 34.5464ZM25.614 5.70197L15.2502 8.47895L12.6435 37.4844L0.898149 40.9111L0 50.8938L11.7607 47.3432L10.7511 58.6333L21.4323 55.7711L22.4103 44.0904L28.0297 42.3851L28.8995 32.7494L23.2195 34.4112L25.614 5.70197ZM11.254 20.8685L2.47451 23.4806L1.56317 33.6862L10.3404 30.9749L11.254 20.8685Z" fill="white"/>
</svg>
