<svg width="24" height="24" viewBox="0 0 24 24" fill="none" xmlns="http://www.w3.org/2000/svg">
<path fill-rule="evenodd" clip-rule="evenodd" d="M18.8565 0.694153L14.7166 1.80343L14.7401 1.54148L18.8809 0.400146L18.8565 0.694153ZM14.5932 3.17802L18.7425 2.06622L18.8213 1.11885L14.6786 2.22888L14.5932 3.17802ZM18.6282 3.43833L14.4695 4.55267L14.5547 3.60355L18.707 2.49097L18.6282 3.43833ZM14.3465 5.92722L18.5148 4.81036L18.5935 3.86299L14.4319 4.97811L14.3465 5.92722ZM23.1838 3.97417L11.9217 6.99185L11.8464 7.93829L23.0968 4.92374L23.1838 3.97417ZM23.0587 5.34934L11.8136 8.36246L11.7382 9.3089L22.9718 6.29891L23.0587 5.34934ZM11.7039 9.73339L22.9321 6.7248L22.8034 7.68557L11.6286 10.6798L11.7039 9.73339ZM18.1373 9.35129L13.9379 10.4765L13.8526 11.4256L18.0585 10.2986L18.1373 9.35129ZM13.8142 11.851L18.023 10.7232L17.9443 11.6705L13.7289 12.8L13.8142 11.851ZM20.283 11.4591L22.533 10.8563L22.4513 11.8044L18.5721 12.8438L18.6527 11.9495L20.283 11.4591ZM13.6907 13.2258L17.9088 12.0954L17.8302 13.0428L13.6054 14.1749L13.6907 13.2258ZM17.7948 13.4673L13.5671 14.6001L13.4818 15.5492L17.716 14.4147L17.7948 13.4673ZM13.4434 15.9748L17.6804 14.8395L17.6017 15.7868L13.3581 16.9239L13.4434 15.9748ZM18.3242 15.5934L18.4099 14.6442L22.2966 13.6027L22.2148 14.5509L18.3242 15.5934ZM13.3197 17.3496L17.5663 16.2117L17.4876 17.1591L13.2346 18.2987L13.3197 17.3496ZM17.4521 17.5837L13.1961 18.7242L13.1109 19.6732L17.3734 18.5311L17.4521 17.5837ZM13.0728 20.0985L17.3381 18.9555L17.2594 19.9029L12.9876 21.0476L13.0728 20.0985ZM17.2239 20.3279L12.9491 21.4733L12.9372 21.6057L17.2127 20.4618L17.2239 20.3279ZM18.4482 14.2187L22.3332 13.1777L22.4148 12.2295L18.5339 13.2694L18.4482 14.2187ZM11.0456 2.68088L6.90006 3.79168L5.85737 15.3939L1.15925 16.7645L0.799988 20.7576L5.50428 19.3374L5.10041 23.8534L9.37292 22.7086L9.76409 18.0363L12.0119 17.3541L12.3598 13.4999L10.0878 14.1646L11.0456 2.68088ZM5.30159 8.74749L1.78979 9.79232L1.42526 13.8746L4.93615 12.7901L5.30159 8.74749Z" fill="white"/>
</svg>
