<svg width="215" height="60" viewBox="0 0 215 60" fill="none" xmlns="http://www.w3.org/2000/svg">
<path d="M45.1412 1.41855L34.7916 4.19173L34.8503 3.53688L45.2024 0.683533L45.1412 1.41855Z" fill="white"/>
<path d="M34.4829 7.62821L44.8562 4.84871L45.0532 2.48029L34.6964 5.25536L34.4829 7.62821Z" fill="white"/>
<path d="M34.1737 11.0648L44.5705 8.27899L44.7675 5.91058L34.3868 8.69204L34.1737 11.0648Z" fill="white"/>
<path d="M33.8664 14.5012L44.287 11.7091L44.4839 9.34064L34.0797 12.1284L33.8664 14.5012Z" fill="white"/>
<path d="M27.8042 17.1628L55.9595 9.61859L55.7421 11.9925L27.6161 19.5289L27.8042 17.1628Z" fill="white"/>
<path d="M55.6468 13.0565L27.5341 20.5893L27.3455 22.9554L55.4295 15.4304L55.6468 13.0565Z" fill="white"/>
<path d="M55.3302 16.4952L27.2598 24.0166L27.0717 26.3827L55.0086 18.8971L55.3302 16.4952Z" fill="white"/>
<path d="M43.3432 23.0614L32.8448 25.8745L32.6315 28.2471L43.1463 25.4297L43.3432 23.0614Z" fill="white"/>
<path d="M43.0576 26.4912L32.5354 29.3107L32.3223 31.6833L42.8607 28.8595L43.0576 26.4912Z" fill="white"/>
<path d="M48.7076 28.331L54.3326 26.8238L54.1283 29.1942L44.4302 31.7928L44.6319 29.5569L48.7076 28.331Z" fill="white"/>
<path d="M42.7721 29.9218L32.2268 32.7475L32.0135 35.1204L42.5754 32.2903L42.7721 29.9218Z" fill="white"/>
<path d="M42.4869 33.3513L31.9177 36.1835L31.7044 38.5563L42.29 35.7199L42.4869 33.3513Z" fill="white"/>
<path d="M42.201 36.7819L31.6085 39.6201L31.3952 41.993L42.0043 39.1502L42.201 36.7819Z" fill="white"/>
<path d="M43.8104 38.6666L44.0247 36.2936L53.7414 33.6899L53.5371 36.0605L43.8104 38.6666Z" fill="white"/>
<path d="M41.9158 40.2124L31.2994 43.0572L31.0865 45.4298L41.7191 42.5809L41.9158 40.2124Z" fill="white"/>
<path d="M41.6304 43.6425L30.9904 46.4936L30.7773 48.8662L41.4334 46.011L41.6304 43.6425Z" fill="white"/>
<path d="M41.3454 47.072L30.6821 49.9293L30.469 52.3021L41.1487 49.4403L41.3454 47.072Z" fill="white"/>
<path d="M41.0597 50.5028L30.3727 53.3664L30.343 53.6975L41.0317 50.8378L41.0597 50.5028Z" fill="white"/>
<path d="M53.8329 32.6273L44.1205 35.2298L44.3347 32.8568L54.037 30.257L53.8329 32.6273Z" fill="white"/>
<path d="M25.614 6.38538L15.2502 9.16236L12.6435 38.1679L0.898149 41.5945L0 51.5772L11.7607 48.0267L10.7511 59.3167L21.4323 56.4546L22.4103 44.7739L28.0297 43.0685L28.8995 33.4328L23.2195 35.0946L25.614 6.38538Z" fill="white"/>
<path d="M2.47451 24.164L11.254 21.5519L10.3404 31.6583L1.56317 34.3696L2.47451 24.164Z" fill="white"/>
<path d="M111.754 18.1233L126.88 43.2489H121.356L117.422 36.6423H105.003L107.169 32.9243H115.22L109.372 23.105L97.4586 43.2489H92.2241L107.314 18.1233C107.855 17.2209 108.541 16.643 109.552 16.643C110.563 16.643 111.213 17.2209 111.754 18.1233Z" fill="white"/>
<path d="M91.4337 17.0043V43.357H86.849V31.9493H73.6365V27.8702H86.849V17.0043H91.4337Z" fill="white"/>
<path d="M70.3165 17.0043V43.357H65.7319V17.0043H70.3165Z" fill="white"/>
<path d="M147.395 43.2489C152.883 43.2489 155.554 39.9635 155.554 35.5591C155.554 30.4695 152.702 27.9786 147.395 27.9786H135.374C133.353 27.9786 132.089 26.7869 132.089 24.8013C132.089 22.8163 133.317 21.5886 135.41 21.5886H154.254V17.0042H135.41C130.176 17.0042 127.324 20.1449 127.324 24.3687C127.324 28.7005 130.393 31.8412 135.338 31.8412H147.395C149.85 31.8412 151.222 32.9963 151.222 35.2345C151.222 37.2921 149.85 38.6638 147.395 38.6638H127.721V43.2489H147.395Z" fill="white"/>
<path d="M183.202 17.0043V43.357H178.617V31.9493H165.405V27.8702H178.617V17.0043H183.202Z" fill="white"/>
<path d="M162.082 17.0043V43.357H157.497V17.0043H162.082Z" fill="white"/>
<path d="M200.293 28.8705V26.7723H190.743V25.2031C190.743 24.1787 191.338 23.6496 192.461 23.6496H196.823C199.103 23.6496 200.491 22.2123 200.491 20.2302C200.491 18.2968 199.186 16.8595 196.806 16.8595H188.86V18.9577H196.806C197.748 18.9577 198.326 19.5193 198.326 20.4282C198.326 21.3371 197.715 21.8818 196.806 21.8818H192.461C190.049 21.8818 188.761 23.0218 188.761 25.3518V28.8705H200.293Z" fill="white"/>
<path fill-rule="evenodd" clip-rule="evenodd" d="M214.503 22.7411C214.503 26.2436 211.777 29.019 208.274 29.019C204.755 29.019 202.046 26.2436 202.046 22.7411C202.046 19.2218 204.755 16.7106 208.274 16.7106C211.777 16.7106 214.503 19.2218 214.503 22.7411ZM208.258 26.9208C210.901 26.9208 212.388 25.153 212.388 22.8399C212.388 20.5273 210.885 18.8251 208.274 18.8251C205.631 18.8251 204.144 20.5273 204.144 22.8399C204.144 25.153 205.631 26.9208 208.258 26.9208Z" fill="white"/>
<path d="M200.293 42.832V40.7337H190.743V39.164C190.743 38.1401 191.338 37.6111 192.461 37.6111H196.823C199.103 37.6111 200.491 36.1737 200.491 34.191C200.491 32.2583 199.186 30.8209 196.806 30.8209H188.86V32.9192H196.806C197.748 32.9192 198.326 33.4808 198.326 34.3896C198.326 35.2985 197.715 35.8432 196.806 35.8432H192.461C190.049 35.8432 188.761 36.9833 188.761 39.3126V42.832H200.293Z" fill="white"/>
<path d="M213.924 40.7337V42.832H202.392V39.3126C202.392 36.9833 203.68 35.8432 206.093 35.8432H210.438C211.346 35.8432 211.958 35.2985 211.958 34.3896C211.958 33.4808 211.379 32.9192 210.438 32.9192H202.491V30.8209H210.438C212.817 30.8209 214.122 32.2583 214.122 34.191C214.122 36.1737 212.734 37.6111 210.454 37.6111H206.093C204.969 37.6111 204.374 38.1401 204.374 39.164V40.7337H213.924Z" fill="white"/>
</svg>
