<svg width="60" height="60" viewBox="0 0 60 60" fill="none" xmlns="http://www.w3.org/2000/svg">
<path d="M20.7326 13.5442L48.8879 6L48.6705 8.37393L37.6754 11.3201L37.6705 11.3739L9.54443 18.9103L9.73257 16.5442L20.7283 13.5979L20.7326 13.5442Z" fill="white"/>
<path d="M48.5752 9.43793L20.4624 16.9707L20.4581 17.0244L9.46241 19.9707L9.27386 22.3368L37.3578 14.8119L37.3627 14.7579L48.3578 11.8119L48.5752 9.43793Z" fill="white"/>
<path d="M20.1881 20.3981L48.2586 12.8766L47.9369 15.2785L36.9442 18.224L36.9369 18.2785L9 25.7641L9.18814 23.3981L20.1839 20.4518L20.1881 20.3981Z" fill="white"/>
<path d="M48.8879 33.7642L20.7326 41.3084L20.7283 41.3621L9.73257 44.3084L9.54443 46.6744L37.6705 39.1381L37.6754 39.0842L48.6705 36.1381L48.8879 33.7642Z" fill="white"/>
<path d="M48.5752 37.2021L20.4624 44.7349L20.4581 44.7886L9.46241 47.7349L9.27386 50.101L37.3578 42.576L37.3627 42.5221L48.3578 39.576L48.5752 37.2021Z" fill="white"/>
<path d="M20.1881 48.1622L48.2586 40.6407L47.9369 43.0427L36.9442 45.9881L36.9369 46.0427L9 53.5283L9.18814 51.1622L20.1839 48.2159L20.1881 48.1622Z" fill="white"/>
<path d="M51.7758 19L23.6205 26.5442L23.4323 28.9103L51.5584 21.3739L51.7758 19Z" fill="white"/>
<path d="M51.4631 22.4379L23.3503 29.9707L23.1617 32.3368L51.2457 24.8119L51.4631 22.4379Z" fill="white"/>
<path d="M23.076 33.3981L51.1465 25.8766L50.8248 28.2785L22.8879 35.7641L23.076 33.3981Z" fill="white"/>
</svg>
