<svg width="657" height="118" viewBox="0 0 657 118" fill="none" xmlns="http://www.w3.org/2000/svg">
<path d="M203.242 6.53747L270.04 117.497H245.647L228.271 88.3209H173.429L182.995 71.9016H218.546L192.72 28.5376L140.11 117.497H116.993L183.633 6.53747C186.024 2.55191 189.053 0 193.517 0C197.981 0 200.85 2.55191 203.242 6.53747Z" fill="white"/>
<path d="M113.504 1.59521V117.974H93.2574V67.5955H34.9082V49.5809H93.2574V1.59521H113.504Z" fill="white"/>
<path d="M20.2467 1.59521V117.974H0V1.59521H20.2467Z" fill="white"/>
<path d="M360.64 117.497C384.874 117.497 396.671 102.988 396.671 83.5376C396.671 61.0605 384.076 50.0605 360.64 50.0605H307.553C298.625 50.0605 293.044 44.7977 293.044 36.029C293.044 27.2628 298.466 21.841 307.712 21.841H390.932V1.59521H307.712C284.596 1.59521 272.001 15.4652 272.001 34.1183C272.001 53.2485 285.553 67.1184 307.394 67.1184H360.64C371.481 67.1184 377.539 72.2196 377.539 82.104C377.539 91.1907 371.481 97.2486 360.64 97.2486H273.755V117.497H360.64Z" fill="white"/>
<path d="M518.77 1.59473V117.974H498.522V67.595H440.172V49.5804H498.522V1.59473H518.77Z" fill="white"/>
<path d="M425.496 1.59473V117.974H405.25V1.59473H425.496Z" fill="white"/>
<path d="M594.244 53.9993V44.7331H552.072V37.8032C552.072 33.2791 554.699 30.9426 559.659 30.9426H578.922C588.991 30.9426 595.118 24.5949 595.118 15.8416C595.118 7.30367 589.356 0.956055 578.848 0.956055H543.755V10.2223H578.848C583.008 10.2223 585.56 12.7024 585.56 16.7162C585.56 20.7299 582.862 23.1356 578.848 23.1356H559.659C549.007 23.1356 543.316 28.1701 543.316 38.4598V53.9993H594.244Z" fill="white"/>
<path fill-rule="evenodd" clip-rule="evenodd" d="M656.999 26.9313C656.999 42.399 644.961 54.6558 629.493 54.6558C613.951 54.6558 601.986 42.399 601.986 26.9313C601.986 11.3891 613.951 0.299316 629.493 0.299316C644.961 0.299316 656.999 11.3891 656.999 26.9313ZM629.421 45.3895C641.093 45.3895 647.661 37.5825 647.661 27.3673C647.661 17.1546 641.021 9.6374 629.493 9.6374C617.818 9.6374 611.253 17.1546 611.253 27.3673C611.253 37.5825 617.818 45.3895 629.421 45.3895Z" fill="white"/>
<path d="M594.244 115.657V106.39H552.072V99.4579C552.072 94.9363 554.699 92.5999 559.659 92.5999H578.922C588.991 92.5999 595.118 86.2522 595.118 77.4963C595.118 68.961 589.356 62.6133 578.848 62.6133H543.755V71.8796H578.848C583.008 71.8796 585.56 74.3597 585.56 78.3735C585.56 82.3872 582.862 84.7929 578.848 84.7929H559.659C549.007 84.7929 543.316 89.8274 543.316 100.114V115.657H594.244Z" fill="white"/>
<path d="M654.438 106.39V115.657H603.511V100.114C603.511 89.8274 609.202 84.7929 619.856 84.7929H639.045C643.056 84.7929 645.757 82.3872 645.757 78.3735C645.757 74.3597 643.202 71.8796 639.045 71.8796H603.949V62.6133H639.045C649.55 62.6133 655.315 68.961 655.315 77.4963C655.315 86.2522 649.186 92.5999 639.117 92.5999H619.856C614.893 92.5999 612.267 94.9363 612.267 99.4579V106.39H654.438Z" fill="white"/>
</svg>
