<svg width="642" height="642" viewBox="0 0 642 642" fill="none" xmlns="http://www.w3.org/2000/svg">
<g clip-path="url(#clip0_6_422)">
<path d="M374.809 162.109L374.809 28.3067L508.611 28.3067L508.611 162.109L374.809 162.109Z" fill="white"/>
<path d="M107.485 161.759L107.485 295.631L107.485 429.433L240.727 429.713L241.287 295.631L374.529 295.561L374.529 161.759L107.485 161.759Z" fill="white"/>
<path d="M240.727 429.713L240.727 563.515L374.529 563.515V563.165L508.33 563.165L508.33 429.363L508.33 295.561L374.529 295.561L374.528 429.363H374.809L240.727 429.713Z" fill="white"/>
<path fill-rule="evenodd" clip-rule="evenodd" d="M389.598 515.42C356.866 523.299 325.188 539.612 308.355 568.768C285.819 607.802 239.353 624.408 198.185 610.752L267.379 525.989L267.387 525.979C279.117 511.716 294.09 500.442 309.96 488.541C325.571 476.834 341.424 465.672 357.377 454.439C360.925 451.941 364.477 449.439 368.033 446.927C387.53 433.156 407.07 419.117 426.069 403.889C444.925 388.776 457.58 374.333 464.542 361.782C471.19 349.796 473.856 337.084 467.491 327.861C460.885 318.29 448.092 317.29 435.332 320.544C424.802 323.229 412.29 329.169 398.295 338.719C396.915 335.018 394.561 331.834 391.305 329.34C387.25 326.233 382.312 324.605 377.217 324.102C377.168 317.5 374.666 311.516 369.872 307.063C365.332 302.844 359.338 300.558 352.8 300.134C352.817 294.724 351.29 289.627 347.82 285.438C342.546 279.07 335.548 276.468 328.438 276.225C321.592 275.991 314.576 277.913 308.277 280.481C299.429 284.089 290.903 289.434 284.452 294.008C283.484 284.756 280.794 276.996 276.54 271.154C270.832 263.313 262.411 259.203 253.147 260.208C244.218 261.176 235.825 266.736 229.065 275.355C222.258 284.034 216.707 296.26 213.344 311.862C206.491 343.66 198.16 374.144 187.038 404.733C178.39 428.519 170.213 450.794 155.47 468.725L109.353 524.815C105.127 503.417 108.339 480.453 120.102 460.08C136.935 430.924 135.224 395.334 125.681 363.047C109.091 306.92 114.665 244.356 146.24 189.668C207.338 83.8424 342.657 47.5838 448.483 108.682C554.309 169.781 590.568 305.1 529.469 410.926C497.895 465.614 446.501 501.723 389.598 515.42ZM163.748 593.092C133.395 573.367 108.334 541.605 115.084 529.674L161.273 473.497C176.974 454.401 185.535 430.856 194.099 407.3C205.36 376.33 213.779 345.507 220.689 313.445C233.125 255.74 275.695 254.111 277.298 299.38C277.337 300.48 277.352 301.608 277.341 302.764C277.336 303.351 277.324 303.946 277.305 304.548C269.66 311.876 264.176 319.1 260.765 325.879L260.653 326.101L258.379 331.48L258.29 331.742C255.451 340.131 255.68 349.083 261.528 355.425C264.363 358.499 267.972 360.359 271.977 361.244L271.867 361.51L271.776 361.788C268.645 371.404 269.385 381.211 275.924 388.074C282.302 394.767 292.2 396.519 302.653 394.768L302.881 394.73L302.906 394.724C303.591 397.983 305.044 401.021 307.442 403.621C313.206 409.872 322.168 411.101 331.154 409.326L331.382 409.281L336.68 407.89L336.88 407.826C345.678 404.98 355.666 399.384 366.393 390.753C378.43 381.068 386.668 371.367 391.317 362.422L391.425 362.214C393.521 358.464 394.404 356.263 395.258 351.751C395.299 351.554 395.338 351.357 395.375 351.161C395.456 350.733 395.528 350.305 395.59 349.877C396.989 348.836 398.371 347.833 399.736 346.867C466.515 299.607 492.07 341.36 421.371 398.026C399.145 415.84 376.121 432.052 353.085 448.272L353.083 448.273C337.126 459.509 321.162 470.75 305.453 482.53C289.708 494.337 273.977 506.134 261.576 521.217L191.77 606.731C186.751 605.177 181.664 603.063 176.618 600.522L163.748 593.092ZM387.994 349.764C387.965 349.914 387.935 350.065 387.904 350.216C387.638 351.49 387.257 352.819 386.758 354.197L384.65 358.958C380.616 366.72 373.173 375.655 361.683 384.9C351.45 393.133 342.262 398.189 334.568 400.677L329.699 401.956C318.745 404.119 311.68 400.345 310.22 392.955C320.214 389.882 331.514 383.86 343.614 374.521C350.045 369.557 357.4 363.366 363.56 356.088C369 349.661 373.793 342.057 376.012 333.373C385.168 334.026 389.78 340.327 387.994 349.764ZM301.412 387.358L302.592 387.085C302.848 384.705 303.404 382.299 304.204 379.938L304.292 379.676L306.567 374.297L306.678 374.076C311.267 364.954 319.61 355.029 331.918 345.126C341.774 337.196 350.993 331.838 359.23 328.814L359.41 328.748L364.708 327.105L364.913 327.054C366.515 326.655 368.087 326.349 369.625 326.139C369.634 326.039 369.643 325.94 369.651 325.841C370.195 314.873 362.311 308.17 348.82 309.384C348.38 309.423 347.941 309.47 347.502 309.523L345.511 314.018L345.403 314.226C340.755 323.171 332.517 332.872 320.48 342.557C309.752 351.188 299.765 356.784 290.967 359.629L290.767 359.694L285.469 361.085L285.241 361.13C283.459 361.482 281.678 361.716 279.922 361.816C279.575 362.573 279.241 363.339 278.92 364.114C273.703 380.135 283.156 390.417 301.412 387.358ZM311.32 382.347C311.022 383.228 310.773 384.088 310.573 384.925C318.919 381.963 328.528 376.674 339.024 368.574C350.198 359.949 363.262 348.246 367.986 334.052C367.573 334.141 367.154 334.238 366.73 334.344L361.819 335.867C354.534 338.541 346.021 343.422 336.627 350.98C324.875 360.436 317.356 369.568 313.39 377.452L311.32 382.347ZM338.322 311.542C334.202 319.12 326.877 327.767 315.77 336.703C305.537 344.937 296.349 349.993 288.655 352.481L284.371 353.606C290.506 343.869 298.813 335.77 308.147 328.567C316.874 321.831 327.305 315.005 338.322 311.542ZM341.799 302.865C327.156 305.971 313.736 314.762 303.556 322.619C292.441 331.198 282.271 341.327 275.324 354.206C265.752 353.015 261.649 345.251 265.407 334.151L267.476 329.256C271.443 321.371 278.962 312.24 290.714 302.784C300.107 295.226 308.621 290.345 315.906 287.671L320.817 286.148C322.376 285.759 323.864 285.484 325.277 285.317C337.584 283.863 344.157 290.595 342.08 301.568C342.052 301.718 342.022 301.869 341.99 302.02C341.932 302.299 341.868 302.581 341.799 302.865ZM341.99 302.02L344.011 302.442C343.532 302.523 343.055 302.611 342.579 302.705L341.99 302.02Z" fill="#FB2A9B"/>
<mask id="mask0_6_422" style="mask-type:alpha" maskUnits="userSpaceOnUse" x="-346" y="-337" width="1335" height="1335">
<path fill-rule="evenodd" clip-rule="evenodd" d="M389.598 515.42C356.866 523.299 325.188 539.612 308.355 568.768C285.819 607.802 239.353 624.408 198.185 610.752L267.379 525.989L267.387 525.979C279.117 511.716 294.09 500.442 309.96 488.541C325.571 476.834 341.424 465.672 357.377 454.439C360.925 451.941 364.477 449.439 368.033 446.927C387.53 433.156 407.07 419.117 426.069 403.889C444.925 388.776 457.58 374.333 464.542 361.782C471.19 349.796 473.856 337.084 467.491 327.861C460.885 318.29 448.092 317.29 435.332 320.544C424.802 323.229 412.29 329.169 398.295 338.719C396.915 335.018 394.561 331.834 391.305 329.34C387.25 326.233 382.312 324.605 377.217 324.102C377.168 317.5 374.666 311.516 369.872 307.063C365.332 302.844 359.338 300.558 352.8 300.134C352.817 294.724 351.29 289.627 347.82 285.438C342.546 279.07 335.548 276.468 328.438 276.225C321.592 275.991 314.576 277.913 308.277 280.481C299.429 284.089 290.903 289.434 284.452 294.008C283.484 284.756 280.794 276.996 276.54 271.154C270.832 263.313 262.411 259.203 253.147 260.208C244.218 261.176 235.825 266.736 229.065 275.355C222.258 284.034 216.707 296.26 213.344 311.862C206.491 343.66 198.16 374.144 187.038 404.733C178.39 428.519 170.213 450.794 155.47 468.725L109.353 524.815C105.127 503.417 108.339 480.453 120.102 460.08C136.935 430.924 135.224 395.334 125.681 363.047C109.091 306.92 114.665 244.356 146.24 189.668C207.338 83.8424 342.657 47.5838 448.483 108.682C554.309 169.781 590.568 305.1 529.469 410.926C497.895 465.614 446.501 501.723 389.598 515.42ZM163.748 593.092C133.395 573.367 108.334 541.605 115.084 529.674L161.273 473.497C176.974 454.401 185.535 430.856 194.099 407.3C205.36 376.33 213.779 345.507 220.689 313.445C233.125 255.74 275.695 254.111 277.298 299.38C277.337 300.48 277.352 301.608 277.341 302.764C277.336 303.351 277.324 303.946 277.305 304.548C269.66 311.876 264.176 319.1 260.765 325.879L260.653 326.101L258.379 331.48L258.29 331.742C255.451 340.131 255.68 349.083 261.528 355.425C264.363 358.499 267.972 360.359 271.977 361.244L271.867 361.51L271.776 361.788C268.645 371.404 269.385 381.211 275.924 388.074C282.302 394.767 292.2 396.519 302.653 394.768L302.881 394.73L302.906 394.724C303.591 397.983 305.044 401.021 307.442 403.621C313.206 409.872 322.168 411.101 331.154 409.326L331.382 409.281L336.68 407.89L336.88 407.826C345.678 404.98 355.666 399.384 366.393 390.753C378.43 381.068 386.668 371.367 391.317 362.422L391.425 362.214C393.521 358.464 394.404 356.263 395.258 351.751C395.299 351.554 395.338 351.357 395.375 351.161C395.456 350.733 395.528 350.305 395.59 349.877C396.989 348.836 398.371 347.833 399.736 346.867C466.515 299.607 492.07 341.36 421.371 398.026C399.145 415.84 376.121 432.052 353.085 448.272L353.083 448.273C337.126 459.509 321.162 470.75 305.453 482.53C289.708 494.337 273.977 506.134 261.576 521.217L191.77 606.731C186.751 605.177 181.664 603.063 176.618 600.522L163.748 593.092ZM387.994 349.764C387.965 349.914 387.935 350.065 387.904 350.216C387.638 351.49 387.257 352.819 386.758 354.197L384.65 358.958C380.616 366.72 373.173 375.655 361.683 384.9C351.45 393.133 342.262 398.189 334.568 400.677L329.699 401.956C318.745 404.119 311.68 400.345 310.22 392.955C320.214 389.882 331.514 383.86 343.614 374.521C350.045 369.557 357.4 363.366 363.56 356.088C369 349.661 373.793 342.057 376.012 333.373C385.168 334.026 389.78 340.327 387.994 349.764ZM301.412 387.358L302.592 387.085C302.848 384.705 303.404 382.299 304.204 379.938L304.292 379.676L306.567 374.297L306.678 374.076C311.267 364.954 319.61 355.029 331.918 345.126C341.774 337.196 350.993 331.838 359.23 328.814L359.41 328.748L364.708 327.105L364.913 327.054C366.515 326.655 368.087 326.349 369.625 326.139C369.634 326.039 369.643 325.94 369.651 325.841C370.195 314.873 362.311 308.17 348.82 309.384C348.38 309.423 347.941 309.47 347.502 309.523L345.511 314.018L345.403 314.226C340.755 323.171 332.517 332.872 320.48 342.557C309.752 351.188 299.765 356.784 290.967 359.629L290.767 359.694L285.469 361.085L285.241 361.13C283.459 361.482 281.678 361.716 279.922 361.816C279.575 362.573 279.241 363.339 278.92 364.114C273.703 380.135 283.156 390.417 301.412 387.358ZM311.32 382.347C311.022 383.228 310.773 384.088 310.573 384.925C318.919 381.963 328.528 376.674 339.024 368.574C350.198 359.949 363.262 348.246 367.986 334.052C367.573 334.141 367.154 334.238 366.73 334.344L361.819 335.867C354.534 338.541 346.021 343.422 336.627 350.98C324.875 360.436 317.356 369.568 313.39 377.452L311.32 382.347ZM338.322 311.542C334.202 319.12 326.877 327.767 315.77 336.703C305.537 344.937 296.349 349.993 288.655 352.481L284.371 353.606C290.506 343.869 298.813 335.77 308.147 328.567C316.874 321.831 327.305 315.005 338.322 311.542ZM341.799 302.865C327.156 305.971 313.736 314.762 303.556 322.619C292.441 331.198 282.271 341.327 275.324 354.206C265.752 353.015 261.649 345.251 265.407 334.151L267.476 329.256C271.443 321.371 278.962 312.24 290.714 302.784C300.107 295.226 308.621 290.345 315.906 287.671L320.817 286.148C322.376 285.759 323.864 285.484 325.277 285.317C337.584 283.863 344.157 290.595 342.08 301.568C342.052 301.718 342.022 301.869 341.99 302.02C341.932 302.299 341.868 302.581 341.799 302.865ZM341.99 302.02L344.011 302.442C343.532 302.523 343.055 302.611 342.579 302.705L341.99 302.02Z" fill="#FB2A9B"/>
</mask>
<g mask="url(#mask0_6_422)">
<path d="M374.809 162.109L374.809 28.3067L508.611 28.3067L508.611 162.109L374.809 162.109Z" fill="#ECF016"/>
<path d="M107.485 161.759L107.485 295.631L107.485 429.433L240.727 429.713L241.287 295.631L374.529 295.561L374.529 161.759L107.485 161.759Z" fill="#ECF016"/>
<path d="M240.727 429.713L240.727 563.515L374.529 563.515V563.165L508.33 563.165L508.33 429.363L508.33 295.561L374.529 295.561L374.528 429.363H374.809L240.727 429.713Z" fill="#ECF016"/>
</g>
</g>
<defs>
<clipPath id="clip0_6_422">
<rect width="642" height="642" fill="white"/>
</clipPath>
</defs>
</svg>
