<?xml version="1.0" encoding="UTF-8"?>
<svg width="1444px" height="378px" viewBox="0 0 1444 378" version="1.1" xmlns="http://www.w3.org/2000/svg" xmlns:xlink="http://www.w3.org/1999/xlink">
    <!-- Generator: Sketch 64 (93537) - https://sketch.com -->
    <title>o copy 12</title>
    <desc>Created with Sketch.</desc>
    <g id="o-copy-12" stroke="none" stroke-width="1" fill="none" fill-rule="evenodd">
        <g id="Group" transform="translate(66.000000, 66.000000)">
            <path d="M129.5,211.5 C135.022847,211.5 139.5,215.977153 139.5,221.5 L139.5,235.5 C139.5,241.022847 135.022847,245.5 129.5,245.5 L115.5,245.5 C109.977153,245.5 105.5,241.022847 105.5,235.5 L105.5,221.5 C105.5,215.977153 109.977153,211.5 115.5,211.5 L129.5,211.5 Z M77.5,209.5 C81.918278,209.5 85.5,213.081722 85.5,217.5 L85.5,227.5 C85.5,231.918278 81.918278,235.5 77.5,235.5 L67.5,235.5 C63.081722,235.5 59.5,231.918278 59.5,227.5 L59.5,217.5 C59.5,213.081722 63.081722,209.5 67.5,209.5 L77.5,209.5 Z M177.5,209.5 C181.918278,209.5 185.5,213.081722 185.5,217.5 L185.5,227.5 C185.5,231.918278 181.918278,235.5 177.5,235.5 L167.5,235.5 C163.081722,235.5 159.5,231.918278 159.5,227.5 L159.5,217.5 C159.5,213.081722 163.081722,209.5 167.5,209.5 L177.5,209.5 Z M27.5,160.5 C31.918278,160.5 35.5,164.081722 35.5,168.5 L35.5,178.5 C35.5,182.918278 31.918278,186.5 27.5,186.5 L17.5,186.5 C13.081722,186.5 9.5,182.918278 9.5,178.5 L9.5,168.5 C9.5,164.081722 13.081722,160.5 17.5,160.5 L27.5,160.5 Z M227.5,160.5 C231.918278,160.5 235.5,164.081722 235.5,168.5 L235.5,178.5 C235.5,182.918278 231.918278,186.5 227.5,186.5 L217.5,186.5 C213.081722,186.5 209.5,182.918278 209.5,178.5 L209.5,168.5 C209.5,164.081722 213.081722,160.5 217.5,160.5 L227.5,160.5 Z M24.5,105.5 C30.0228475,105.5 34.5,109.977153 34.5,115.5 L34.5,129.5 C34.5,135.022847 30.0228475,139.5 24.5,139.5 L10.5,139.5 C4.9771525,139.5 0.5,135.022847 0.5,129.5 L0.5,115.5 C0.5,109.977153 4.9771525,105.5 10.5,105.5 L24.5,105.5 Z M235.5,105.5 C241.022847,105.5 245.5,109.977153 245.5,115.5 L245.5,129.5 C245.5,135.022847 241.022847,139.5 235.5,139.5 L221.5,139.5 C215.977153,139.5 211.5,135.022847 211.5,129.5 L211.5,115.5 C211.5,109.977153 215.977153,105.5 221.5,105.5 L235.5,105.5 Z M27.5,59.5 C31.918278,59.5 35.5,63.081722 35.5,67.5 L35.5,77.5 C35.5,81.918278 31.918278,85.5 27.5,85.5 L17.5,85.5 C13.081722,85.5 9.5,81.918278 9.5,77.5 L9.5,67.5 C9.5,63.081722 13.081722,59.5 17.5,59.5 L27.5,59.5 Z M227.5,59.5 C231.918278,59.5 235.5,63.081722 235.5,67.5 L235.5,77.5 C235.5,81.918278 231.918278,85.5 227.5,85.5 L217.5,85.5 C213.081722,85.5 209.5,81.918278 209.5,77.5 L209.5,67.5 C209.5,63.081722 213.081722,59.5 217.5,59.5 L227.5,59.5 Z M77.5,10.5 C81.918278,10.5 85.5,14.081722 85.5,18.5 L85.5,28.5 C85.5,32.918278 81.918278,36.5 77.5,36.5 L67.5,36.5 C63.081722,36.5 59.5,32.918278 59.5,28.5 L59.5,18.5 C59.5,14.081722 63.081722,10.5 67.5,10.5 L77.5,10.5 Z M177.5,10.5 C181.918278,10.5 185.5,14.081722 185.5,18.5 L185.5,28.5 C185.5,32.918278 181.918278,36.5 177.5,36.5 L167.5,36.5 C163.081722,36.5 159.5,32.918278 159.5,28.5 L159.5,18.5 C159.5,14.081722 163.081722,10.5 167.5,10.5 L177.5,10.5 Z M129.5,0.5 C135.022847,0.5 139.5,4.9771525 139.5,10.5 L139.5,24.5 C139.5,30.0228475 135.022847,34.5 129.5,34.5 L115.5,34.5 C109.977153,34.5 105.5,30.0228475 105.5,24.5 L105.5,10.5 C105.5,4.9771525 109.977153,0.5 115.5,0.5 L129.5,0.5 Z" id="Combined-Shape" fill="#5681E8"></path>
            <path d="M130.5,155.5 C137.127417,155.5 142.5,160.872583 142.5,167.5 L142.5,183.5 C142.5,190.127417 137.127417,195.5 130.5,195.5 L114.5,195.5 C107.872583,195.5 102.5,190.127417 102.5,183.5 L102.5,167.5 C102.5,160.872583 107.872583,155.5 114.5,155.5 L130.5,155.5 Z M77.5,158.5 C83.0228475,158.5 87.5,162.977153 87.5,168.5 L87.5,182.5 C87.5,188.022847 83.0228475,192.5 77.5,192.5 L63.5,192.5 C57.9771525,192.5 53.5,188.022847 53.5,182.5 L53.5,168.5 C53.5,162.977153 57.9771525,158.5 63.5,158.5 L77.5,158.5 Z M182.5,158.5 C188.022847,158.5 192.5,162.977153 192.5,168.5 L192.5,182.5 C192.5,188.022847 188.022847,192.5 182.5,192.5 L168.5,192.5 C162.977153,192.5 158.5,188.022847 158.5,182.5 L158.5,168.5 C158.5,162.977153 162.977153,158.5 168.5,158.5 L182.5,158.5 Z M78.5,102.5 C85.127417,102.5 90.5,107.872583 90.5,114.5 L90.5,130.5 C90.5,137.127417 85.127417,142.5 78.5,142.5 L62.5,142.5 C55.872583,142.5 50.5,137.127417 50.5,130.5 L50.5,114.5 C50.5,107.872583 55.872583,102.5 62.5,102.5 L78.5,102.5 Z M183.5,102.5 C190.127417,102.5 195.5,107.872583 195.5,114.5 L195.5,130.5 C195.5,137.127417 190.127417,142.5 183.5,142.5 L167.5,142.5 C160.872583,142.5 155.5,137.127417 155.5,130.5 L155.5,114.5 C155.5,107.872583 160.872583,102.5 167.5,102.5 L183.5,102.5 Z M130.5,50.5 C137.127417,50.5 142.5,55.872583 142.5,62.5 L142.5,78.5 C142.5,85.127417 137.127417,90.5 130.5,90.5 L114.5,90.5 C107.872583,90.5 102.5,85.127417 102.5,78.5 L102.5,62.5 C102.5,55.872583 107.872583,50.5 114.5,50.5 L130.5,50.5 Z M77.5,53.5 C83.0228475,53.5 87.5,57.9771525 87.5,63.5 L87.5,77.5 C87.5,83.0228475 83.0228475,87.5 77.5,87.5 L63.5,87.5 C57.9771525,87.5 53.5,83.0228475 53.5,77.5 L53.5,63.5 C53.5,57.9771525 57.9771525,53.5 63.5,53.5 L77.5,53.5 Z M182.5,53.5 C188.022847,53.5 192.5,57.9771525 192.5,63.5 L192.5,77.5 C192.5,83.0228475 188.022847,87.5 182.5,87.5 L168.5,87.5 C162.977153,87.5 158.5,83.0228475 158.5,77.5 L158.5,63.5 C158.5,57.9771525 162.977153,53.5 168.5,53.5 L182.5,53.5 Z" id="Combined-Shape" fill="#366DDB"></path>
            <rect id="Rectangle-Copy-14" fill="#1E4BC0" x="102.5" y="102.5" width="40" height="40" rx="12"></rect>
        </g>
        <path d="M453.690114,261 C465.033083,261 475.292735,258.865196 484.469069,254.595588 C493.645404,250.32598 501.610972,244.112745 508.365774,235.955882 L508.365774,235.955882 L490.013105,218.558824 C485.424937,224.294118 480.167662,228.723039 474.24128,231.845588 C468.314897,234.968137 461.528233,236.529412 453.881287,236.529412 C447.508833,236.529412 441.518726,235.414216 435.910966,233.183824 C430.303205,230.953431 425.428278,227.79902 421.286182,223.720588 C417.144087,219.642157 413.862273,214.703431 411.44074,208.904412 C409.019207,203.105392 407.808441,196.637255 407.808441,189.5 C407.808441,182.362745 409.019207,175.894608 411.44074,170.095588 C413.862273,164.296569 417.144087,159.357843 421.286182,155.279412 C425.428278,151.20098 430.303205,148.046569 435.910966,145.816176 C441.518726,143.585784 447.508833,142.470588 453.881287,142.470588 C461.145886,142.470588 467.422753,143.872549 472.711891,146.676471 C478.001028,149.480392 482.684782,153.240196 486.763153,157.955882 L486.763153,157.955882 L504.924648,140.367647 C498.424745,133.102941 491.000835,127.558824 482.65292,123.735294 C474.305004,119.911765 464.650736,118 453.690114,118 C443.494186,118 434.031091,119.848039 425.300829,123.544118 C416.570566,127.240196 409.019207,132.27451 402.646753,138.647059 C396.274298,145.019608 391.240059,152.571078 387.544035,161.301471 C383.848012,170.031863 382,179.431373 382,189.5 C382,199.568627 383.848012,208.968137 387.544035,217.698529 C391.240059,226.428922 396.274298,233.980392 402.646753,240.352941 C409.019207,246.72549 416.570566,251.759804 425.300829,255.455882 C434.031091,259.151961 443.494186,261 453.690114,261 Z M550.997495,257.941176 L550.997495,121.058824 L525.953748,121.058824 L525.953748,257.941176 L550.997495,257.941176 Z M606.820197,261 C613.192651,261 618.864136,259.629902 623.83465,256.889706 C628.805165,254.14951 632.756087,250.421569 635.687416,245.705882 L635.687416,245.705882 L637.216805,245.705882 L637.216805,257.941176 L660.731162,257.941176 L660.731162,164.264706 L635.687416,164.264706 L635.687416,210.147059 C635.687416,213.970588 635.209482,217.571078 634.253613,220.948529 C633.297745,224.32598 631.895805,227.257353 630.047793,229.742647 C628.199782,232.227941 625.969422,234.203431 623.356716,235.669118 C620.74401,237.134804 617.717094,237.867647 614.275968,237.867647 C608.540759,237.867647 604.175628,236.242647 601.180574,232.992647 C598.185521,229.742647 596.687994,224.740196 596.687994,217.985294 L596.687994,217.985294 L596.687994,164.264706 L571.644247,164.264706 L571.644247,221.044118 C571.644247,233.151961 574.543714,242.838235 580.342648,250.102941 C586.141582,257.367647 594.967431,261 606.820197,261 Z M719.230295,261 C725.220402,261 730.668851,260.171569 735.575641,258.514706 C740.482431,256.857843 744.688251,254.595588 748.193101,251.727941 C751.697951,248.860294 754.406244,245.578431 756.31798,241.882353 C758.229717,238.186275 759.185585,234.29902 759.185585,230.220588 C759.185585,223.338235 756.859639,217.379902 752.207747,212.345588 C747.555855,207.311275 740.450569,203.647059 730.891887,201.352941 L730.891887,201.352941 L716.553864,197.911765 C712.730391,196.892157 709.703475,195.745098 707.473116,194.470588 C705.242757,193.196078 704.127578,191.47549 704.127578,189.308824 C704.127578,187.014706 705.465793,185.134804 708.142224,183.669118 C710.818655,182.203431 713.941158,181.470588 717.509732,181.470588 C720.950858,181.470588 724.391983,182.29902 727.833108,183.955882 C731.274234,185.612745 733.88694,188.289216 735.671228,191.985294 L735.671228,191.985294 L757.273849,183.191176 C753.960172,175.544118 748.798484,169.968137 741.788784,166.463235 C734.779084,162.958333 726.813516,161.205882 717.892079,161.205882 C712.539218,161.205882 707.536841,161.875 702.884949,163.213235 C698.233057,164.551471 694.186548,166.463235 690.745423,168.948529 C687.304298,171.433824 684.596004,174.460784 682.620543,178.029412 C680.645083,181.598039 679.657352,185.676471 679.657352,190.264706 C679.657352,194.343137 680.485771,197.911765 682.142609,200.970588 C683.799448,204.029412 685.902358,206.642157 688.451339,208.808824 C691.000321,210.97549 693.836063,212.759804 696.958566,214.161765 C700.081069,215.563725 703.107985,216.583333 706.039314,217.220588 L706.039314,217.220588 L719.230295,220.088235 C724.710606,221.362745 728.565941,222.796569 730.7963,224.389706 C733.026659,225.982843 734.141839,228.053922 734.141839,230.602941 C734.141839,232.897059 732.803623,234.872549 730.127192,236.529412 C727.450761,238.186275 723.818462,239.014706 719.230295,239.014706 C714.769577,239.014706 710.723068,237.835784 707.090769,235.477941 C703.45847,233.120098 700.559003,229.519608 698.392368,224.676471 L698.392368,224.676471 L676.025053,234.235294 C677.299544,237.54902 679.147556,240.830882 681.569088,244.080882 C683.990621,247.330882 686.953813,250.198529 690.458663,252.683824 C693.963513,255.169118 698.105608,257.176471 702.884949,258.705882 C707.66429,260.235294 713.112738,261 719.230295,261 Z M815.964155,259.470588 C820.042526,259.470588 823.770412,259.120098 827.147813,258.419118 C830.525214,257.718137 833.679579,256.666667 836.610908,255.264706 L836.610908,255.264706 L829.537483,233.279412 C828.390441,234.044118 827.179675,234.64951 825.905184,235.095588 C824.630693,235.541667 822.91013,235.764706 820.743496,235.764706 C817.429819,235.764706 814.880838,234.745098 813.09655,232.705882 C811.822059,231.431373 810.961778,229.870098 810.515706,228.022059 C810.069634,226.17402 809.846599,224.166667 809.846599,222 L809.846599,222 L809.846599,185.676471 L832.787435,185.676471 L832.787435,164.264706 L809.846599,164.264706 L809.846599,135.588235 L784.802852,135.588235 L784.802852,164.264706 L768.361919,164.264706 L768.361919,185.676471 L784.802852,185.676471 L784.802852,226.779412 C784.802852,237.357843 787.797906,245.514706 793.788013,251.25 C796.336995,253.79902 799.49136,255.806373 803.251108,257.272059 C807.010856,258.737745 811.248539,259.470588 815.964155,259.470588 Z M895.492388,261 C906.070662,261 915.023961,258.642157 922.352284,253.926471 C929.680606,249.210784 935.511402,243.029412 939.844671,235.382353 L939.844671,235.382353 L919.006745,225.058824 C916.84011,229.009804 913.876919,232.291667 910.117171,234.904412 C906.357423,237.517157 901.609944,238.823529 895.874735,238.823529 C892.943406,238.823529 890.075801,238.409314 887.271921,237.580882 C884.468041,236.752451 881.887197,235.414216 879.529389,233.566176 C877.171581,231.718137 875.19612,229.42402 873.603006,226.683824 C872.009893,223.943627 870.958438,220.661765 870.448641,216.838235 L870.448641,216.838235 L940.991713,216.838235 C940.991713,216.073529 941.055438,215.372549 941.182887,214.735294 C941.182887,214.098039 941.246611,213.397059 941.374061,212.632353 L941.374061,212.632353 L941.374061,210.338235 C941.374061,203.328431 940.354468,196.828431 938.315282,190.838235 C936.276097,184.848039 933.281043,179.654412 929.330121,175.257353 C925.3792,170.860294 920.47241,167.419118 914.609751,164.933824 C908.747093,162.448529 902.056016,161.205882 894.53652,161.205882 C887.39937,161.205882 880.867605,162.544118 874.941222,165.220588 C869.014839,167.897059 863.885013,171.497549 859.551744,176.022059 C855.218475,180.546569 851.841074,185.835784 849.419541,191.889706 C846.998009,197.943627 845.787242,204.348039 845.787242,211.102941 C845.787242,218.367647 847.029871,225.026961 849.515128,231.080882 C852.000385,237.134804 855.473373,242.392157 859.934091,246.852941 C864.39481,251.313725 869.652085,254.786765 875.705916,257.272059 C881.759748,259.757353 888.355239,261 895.492388,261 Z M917.095009,199.058824 L871.786857,199.058824 C873.443695,193.578431 876.3113,189.308824 880.38967,186.25 C884.468041,183.191176 889.183658,181.661765 894.53652,181.661765 C898.359992,181.661765 901.641806,182.235294 904.381962,183.382353 C907.122117,184.529412 909.416201,185.995098 911.264213,187.779412 C913.112225,189.563725 914.514165,191.47549 915.470033,193.514706 C916.425901,195.553922 916.96756,197.401961 917.095009,199.058824 L917.095009,199.058824 Z M982.476392,257.941176 L982.476392,212.058824 C982.476392,208.235294 983.018051,204.698529 984.101368,201.448529 C985.184686,198.198529 986.714075,195.362745 988.689536,192.941176 C990.664996,190.519608 993.054667,188.639706 995.858547,187.301471 C998.662427,185.963235 1001.78493,185.294118 1005.22606,185.294118 C1007.90249,185.294118 1010.16471,185.517157 1012.01272,185.963235 C1013.86073,186.409314 1015.54943,187.014706 1017.07882,187.779412 L1017.07882,187.779412 L1023.7699,165.029412 C1022.11306,164.009804 1020.10574,163.181373 1017.74793,162.544118 C1015.39012,161.906863 1012.55438,161.588235 1009.2407,161.588235 C1006.56427,161.588235 1003.85598,161.970588 1001.11582,162.735294 C998.375666,163.5 995.826685,164.583333 993.468876,165.985294 C991.111068,167.387255 988.976296,169.044118 987.06456,170.955882 C985.152823,172.867647 983.623434,174.970588 982.476392,177.264706 L982.476392,177.264706 L980.947003,177.264706 L980.947003,164.264706 L957.432646,164.264706 L957.432646,257.941176 L982.476392,257.941176 Z M1084.56311,257.941176 C1095.39629,257.941176 1105.14614,256.284314 1113.81268,252.970588 C1122.47922,249.656863 1129.87127,245.004902 1135.98882,239.014706 C1142.10638,233.02451 1146.79013,225.823529 1150.04008,217.411765 C1153.29004,209 1154.91501,199.696078 1154.91501,189.5 C1154.91501,179.431373 1153.29004,170.191176 1150.04008,161.779412 C1146.79013,153.367647 1142.10638,146.134804 1135.98882,140.080882 C1129.87127,134.026961 1122.47922,129.343137 1113.81268,126.029412 C1105.14614,122.715686 1095.39629,121.058824 1084.56311,121.058824 L1084.56311,121.058824 L1038.29909,121.058824 L1038.29909,257.941176 L1084.56311,257.941176 Z M1083.41607,233.470588 L1064.10754,233.470588 L1064.10754,145.529412 L1083.41607,145.529412 C1090.93557,145.529412 1097.56292,146.580882 1103.29813,148.683824 C1109.03334,150.786765 1113.81268,153.75 1117.63615,157.573529 C1121.45963,161.397059 1124.32723,166.017157 1126.23897,171.433824 C1128.1507,176.85049 1129.10657,182.872549 1129.10657,189.5 C1129.10657,196.127451 1128.1507,202.14951 1126.23897,207.566176 C1124.32723,212.982843 1121.45963,217.602941 1117.63615,221.426471 C1113.81268,225.25 1109.03334,228.213235 1103.29813,230.316176 C1097.56292,232.419118 1090.93557,233.470588 1083.41607,233.470588 L1083.41607,233.470588 Z M1217.04644,261 C1227.62472,261 1236.57802,258.642157 1243.90634,253.926471 C1251.23466,249.210784 1257.06546,243.029412 1261.39873,235.382353 L1261.39873,235.382353 L1240.5608,225.058824 C1238.39417,229.009804 1235.43098,232.291667 1231.67123,234.904412 C1227.91148,237.517157 1223.164,238.823529 1217.42879,238.823529 C1214.49746,238.823529 1211.62986,238.409314 1208.82598,237.580882 C1206.0221,236.752451 1203.44125,235.414216 1201.08345,233.566176 C1198.72564,231.718137 1196.75018,229.42402 1195.15706,226.683824 C1193.56395,223.943627 1192.51249,220.661765 1192.0027,216.838235 L1192.0027,216.838235 L1262.54577,216.838235 C1262.54577,216.073529 1262.60949,215.372549 1262.73694,214.735294 C1262.73694,214.098039 1262.80067,213.397059 1262.92812,212.632353 L1262.92812,212.632353 L1262.92812,210.338235 C1262.92812,203.328431 1261.90852,196.828431 1259.86934,190.838235 C1257.83015,184.848039 1254.8351,179.654412 1250.88418,175.257353 C1246.93326,170.860294 1242.02647,167.419118 1236.16381,164.933824 C1230.30115,162.448529 1223.61007,161.205882 1216.09058,161.205882 C1208.95343,161.205882 1202.42166,162.544118 1196.49528,165.220588 C1190.5689,167.897059 1185.43907,171.497549 1181.1058,176.022059 C1176.77253,180.546569 1173.39513,185.835784 1170.9736,191.889706 C1168.55207,197.943627 1167.3413,204.348039 1167.3413,211.102941 C1167.3413,218.367647 1168.58393,225.026961 1171.06918,231.080882 C1173.55444,237.134804 1177.02743,242.392157 1181.48815,246.852941 C1185.94887,251.313725 1191.20614,254.786765 1197.25997,257.272059 C1203.3138,259.757353 1209.9093,261 1217.04644,261 Z M1238.64907,199.058824 L1193.34091,199.058824 C1194.99775,193.578431 1197.86536,189.308824 1201.94373,186.25 C1206.0221,183.191176 1210.73771,181.661765 1216.09058,181.661765 C1219.91405,181.661765 1223.19586,182.235294 1225.93602,183.382353 C1228.67617,184.529412 1230.97026,185.995098 1232.81827,187.779412 C1234.66628,189.563725 1236.06822,191.47549 1237.02409,193.514706 C1237.97996,195.553922 1238.52162,197.401961 1238.64907,199.058824 L1238.64907,199.058824 Z M1333.66236,257.941176 L1374,164.264706 L1345.7063,164.264706 L1322.19194,223.911765 L1320.85373,223.911765 L1297.53055,164.264706 L1269.04567,164.264706 L1309.00096,257.941176 L1333.66236,257.941176 Z" id="ClusterDev-Copy" fill="#5285E8" fill-rule="nonzero"></path>
    </g>
</svg>