<svg width="104" height="81" viewBox="0 0 104 81" fill="none" xmlns="http://www.w3.org/2000/svg">
<g clip-path="url(#clip0_122_598)">
<path d="M19.1922 41.6035H13.0742V11.6562H28.1192V17.7742H19.1922V23.559H28.1192V29.6769H19.1922V41.6035Z" fill="black"/>
<path d="M37.0467 35.4617H42.8314V17.7743H37.0467V35.4617ZM33.9044 41.6035V38.6041H30.9287V14.632H33.9044V11.6563H45.9737V14.632H48.9494V38.6041H45.9737V41.6035H33.9044ZM31.0953 11.7516H33.9044V14.632H31.0953V11.7516ZM45.9737 11.6562H48.9494V14.6319H45.9737V11.6562ZM45.9737 38.604H48.9494V41.5082H45.9737V38.604ZM30.9287 38.604H33.9044V41.6035H30.9287V38.604Z" fill="black"/>
<path d="M66.8028 41.6035H51.7578V35.4617H63.6605V29.6769H54.7335V26.7013H51.7578V14.6319H54.7335V11.6562H69.7785V17.7742H57.8758V23.559H66.8028V26.5346H69.7785V38.604H66.8028V41.6035ZM51.9244 11.7515H54.7335V14.6319H51.9244V11.7515ZM51.7578 26.7013H54.7335V29.6769H51.7578V26.7013ZM66.8028 23.559H69.7785V26.5346H66.8028V23.559ZM66.8028 38.604H69.7785V41.5082H66.8028V38.604Z" fill="black"/>
<path d="M87.6329 41.6035H72.5879V35.4617H84.4906V29.6769H75.5636V26.7013H72.5879V14.6319H75.5636V11.6562H90.6086V17.7742H78.7059V23.559H87.6329V26.5346H90.6086V38.604H87.6329V41.6035ZM72.7545 11.7515H75.5636V14.6319H72.7545V11.7515ZM72.5879 26.7013H75.5636V29.6769H72.5879V26.7013ZM87.6329 23.559H90.6086V26.5346H87.6329V23.559ZM87.6329 38.604H90.6086V41.5082H87.6329V38.604Z" fill="black"/>
<path d="M15.2237 68.9611V66.7899H13.0732V47.2832H17.4946V64.5153H21.6751V47.2832H26.0964V66.7899H23.946V68.9611H15.2237ZM13.0732 66.7899H15.2237V68.9611H13.0732V66.7899ZM23.946 66.7899H26.0964V68.8922H23.946V66.7899Z" fill="black"/>
<path d="M32.5483 68.9611H28.127V47.2832H41.1502V68.9611H36.7288V51.7119H32.5483V68.9611Z" fill="black"/>
<path d="M47.601 68.9611H43.1797V47.2832H47.601V68.9611Z" fill="black"/>
<path d="M58.3531 68.9611H53.9318V51.7119H49.6309V47.2832H62.6541V51.7119H58.3531V68.9611Z" fill="black"/>
<path d="M75.5573 68.9611H64.6846V47.2832H75.5573V51.7119H69.1059V55.8992H75.5573V60.3279H69.1059V64.5153H75.5573V68.9611Z" fill="black"/>
<path d="M82.0083 64.5153H86.1888V51.7119H82.0083V64.5153ZM77.5869 68.9611V47.2832H88.4597V49.4372H90.6101V66.7899H88.4597V68.9611H77.5869Z" fill="black"/>
<path d="M101.163 2.26074H2.52051V78.358H101.163V2.26074Z" stroke="black" stroke-width="3.99999"/>
</g>
<defs>
<clipPath id="clip0_122_598">
<rect width="104" height="81" fill="white"/>
</clipPath>
</defs>
</svg>
