<svg width="482" height="130" viewBox="0 0 482 130" fill="none" xmlns="http://www.w3.org/2000/svg">
<path d="M93.375 55.5885H53.0208C51.9792 55.5885 51.1302 56.4323 51.1302 57.474V77.2031C51.1302 78.2448 51.9792 79.0938 53.0208 79.0938H68.7604V103.609C68.7604 103.609 65.2292 104.813 55.4531 104.813C43.9219 104.813 27.8177 100.599 27.8177 65.1823C27.8177 29.7552 44.5885 25.0938 60.3333 25.0938C73.9635 25.0938 79.8385 27.4948 83.5729 28.651C84.7448 29.0104 85.8333 27.8438 85.8333 26.8021L90.3333 7.73438C90.3333 7.25 90.1719 6.66146 89.6146 6.26042C88.099 5.18229 78.8385 0 55.4531 0C28.5156 0 0.875 11.4635 0.875 66.5625C0.875 121.667 32.5156 129.875 59.1823 129.875C81.2552 129.875 94.6458 120.443 94.6458 120.443C95.1979 120.135 95.2604 119.365 95.2604 119.01V57.474C95.2604 56.4323 94.4167 55.5885 93.375 55.5885Z" fill="#0F0E0F"/>
<path d="M301.354 6.59896C301.354 5.55208 300.521 4.70312 299.479 4.70312H276.755C275.719 4.70312 274.875 5.55208 274.875 6.59896C274.875 6.60937 274.88 50.5156 274.88 50.5156H239.463V6.59896C239.463 5.55208 238.625 4.70312 237.583 4.70312H214.865C213.828 4.70312 212.99 5.55208 212.99 6.59896V125.505C212.99 126.552 213.828 127.406 214.865 127.406H237.583C238.625 127.406 239.463 126.552 239.463 125.505V74.6458H274.88C274.88 74.6458 274.818 125.5 274.818 125.505C274.818 126.552 275.661 127.406 276.703 127.406H299.479C300.521 127.406 301.349 126.552 301.354 125.505" fill="#0F0E0F"/>
<path d="M136.255 22.2033C136.255 14.0262 129.693 7.41162 121.599 7.41162C113.516 7.41162 106.953 14.0262 106.953 22.2033C106.953 30.3804 113.516 37.0106 121.599 37.0106C129.693 37.0106 136.255 30.3804 136.255 22.2033Z" fill="#0F0E0F"/>
<path d="M134.63 100.422V45.5366C134.63 44.495 133.792 43.646 132.75 43.646H110.099C109.057 43.646 108.13 44.7137 108.13 45.7554V124.396C108.13 126.703 109.568 127.391 111.432 127.391H131.844C134.078 127.391 134.63 126.292 134.63 124.354" fill="#0F0E0F"/>
<path d="M387.708 43.8228H365.161C364.125 43.8228 363.286 44.6769 363.286 45.7238V104.026C363.286 104.026 357.557 108.219 349.427 108.219C341.297 108.219 339.135 104.526 339.135 96.5675V45.7238C339.135 44.6769 338.297 43.8228 337.26 43.8228H314.375C313.344 43.8228 312.5 44.6769 312.5 45.7238V100.417C312.5 124.062 325.677 129.849 343.807 129.849C358.682 129.849 370.672 121.63 370.672 121.63C370.672 121.63 371.245 125.963 371.505 126.474C371.76 126.984 372.432 127.505 373.161 127.505L387.719 127.443C388.75 127.443 389.599 126.588 389.599 125.542L389.589 45.7238C389.589 44.6769 388.75 43.8228 387.708 43.8228Z" fill="#0F0E0F"/>
<path d="M440.448 108.146C432.625 107.906 427.318 104.359 427.318 104.359V66.7031C427.318 66.7031 432.552 63.4948 438.974 62.9219C447.094 62.1927 454.917 64.6458 454.917 84.0156C454.917 104.443 451.385 108.474 440.448 108.146ZM449.339 41.151C436.531 41.151 427.823 46.8646 427.823 46.8646V6.59896C427.823 5.55208 426.979 4.70312 425.948 4.70312H403.156C402.125 4.70312 401.281 5.55208 401.281 6.59896V125.505C401.281 126.557 402.125 127.406 403.161 127.406H418.974C419.682 127.406 420.224 127.042 420.62 126.396C421.016 125.76 421.583 120.917 421.583 120.917C421.583 120.917 430.901 129.745 448.536 129.745C469.245 129.745 481.125 119.24 481.125 82.5885C481.125 45.9427 462.156 41.151 449.339 41.151Z" fill="#0F0E0F"/>
<path d="M199.937 43.6304H182.891C182.891 43.6304 182.865 21.12 182.865 21.1147C182.865 20.2606 182.427 19.8335 181.437 19.8335H158.213C157.312 19.8335 156.823 20.2345 156.823 21.0991V44.37C156.823 44.37 145.187 47.1825 144.401 47.4116C143.615 47.6356 143.036 48.3595 143.036 49.2189V63.8439C143.036 64.896 143.875 65.745 144.917 65.745H156.823V100.922C156.823 127.052 175.151 129.615 187.521 129.615C193.172 129.615 199.932 127.802 201.047 127.391C201.724 127.141 202.115 126.443 202.115 125.688L202.135 109.599C202.135 108.552 201.25 107.703 200.25 107.703C199.255 107.703 196.713 108.104 194.099 108.104C185.729 108.104 182.891 104.214 182.891 99.172C182.891 94.1356 182.891 65.745 182.891 65.745H199.937C200.974 65.745 201.818 64.896 201.818 63.8439V45.5262C201.818 44.4793 200.974 43.6304 199.937 43.6304Z" fill="#0F0E0F"/>
</svg>
