<?xml version="1.0" encoding="utf-8"?>
<!-- Generator: Adobe Illustrator 16.0.0, SVG Export Plug-In . SVG Version: 6.00 Build 0)  -->
<!DOCTYPE svg PUBLIC "-//W3C//DTD SVG 1.1//EN" "http://www.w3.org/Graphics/SVG/1.1/DTD/svg11.dtd">
<svg version="1.1" id="Layer_1" xmlns="http://www.w3.org/2000/svg" xmlns:xlink="http://www.w3.org/1999/xlink" x="0px" y="0px"
	 width="150px" height="75px" viewBox="0 0 150 75" enable-background="new 0 0 150 75" xml:space="preserve">
<g>
	<g>
		<path fill="#F37920" d="M123.104,30.536l-2.815,2.909c-2.345-2.272-4.634-3.41-6.871-3.41c-1.422,0-2.642,0.47-3.653,1.408
			c-1.017,0.938-1.521,2.033-1.521,3.286c0,1.105,0.417,2.158,1.254,3.16c0.836,1.021,2.592,2.221,5.268,3.6
			c3.262,1.688,5.478,3.314,6.647,4.88c1.149,1.586,1.726,3.37,1.726,5.352c0,2.796-0.982,5.163-2.947,7.104
			c-1.963,1.94-4.418,2.909-7.362,2.909c-1.964,0-3.839-0.426-5.626-1.282c-1.786-0.854-3.266-2.033-4.434-3.536l2.752-3.129
			c2.237,2.525,4.61,3.787,7.119,3.787c1.756,0,3.252-0.563,4.484-1.689c1.234-1.127,1.852-2.449,1.852-3.975
			c0-1.252-0.406-2.366-1.222-3.348c-0.815-0.959-2.655-2.17-5.521-3.629c-3.073-1.586-5.164-3.15-6.271-4.695
			c-1.108-1.543-1.662-3.307-1.662-5.287c0-2.587,0.882-4.735,2.648-6.446c1.765-1.71,3.995-2.565,6.69-2.565
			C116.771,25.937,119.927,27.47,123.104,30.536z"/>
		<path fill="#F37920" d="M147.979,30.536l-2.815,2.909c-2.343-2.272-4.632-3.41-6.869-3.41c-1.424,0-2.642,0.47-3.655,1.408
			c-1.015,0.938-1.521,2.033-1.521,3.286c0,1.105,0.419,2.158,1.255,3.16c0.835,1.021,2.591,2.221,5.269,3.6
			c3.26,1.688,5.478,3.314,6.647,4.88c1.149,1.586,1.724,3.37,1.724,5.352c0,2.796-0.98,5.163-2.945,7.104
			c-1.963,1.94-4.418,2.909-7.363,2.909c-1.965,0-3.84-0.426-5.625-1.282c-1.787-0.854-3.266-2.033-4.436-3.536l2.752-3.129
			c2.237,2.525,4.612,3.787,7.121,3.787c1.756,0,3.252-0.563,4.484-1.689s1.852-2.449,1.852-3.975c0-1.252-0.408-2.366-1.224-3.348
			c-0.815-0.959-2.655-2.17-5.521-3.629c-3.071-1.586-5.164-3.15-6.271-4.695c-1.108-1.543-1.662-3.307-1.662-5.287
			c0-2.587,0.884-4.735,2.649-6.446c1.765-1.71,3.996-2.565,6.691-2.565C141.646,25.937,144.805,27.47,147.979,30.536z"/>
	</g>
	<g>
		<polygon points="5.885,60.855 2.01,60.855 2.01,26.619 5.885,26.102 		"/>
		<g>
			<path d="M34.051,56.293c-1.99,0.934-4.193,1.402-6.612,1.402c-2.73,0-5.193-0.604-7.392-1.813
				c-2.198-1.209-3.928-2.906-5.188-5.095c-1.261-2.188-1.891-4.521-1.891-7.002c0-3.813,1.37-7.052,4.109-9.72
				c2.74-2.667,6.184-4.001,10.33-4.001c2.462,0,4.674,0.454,6.644,1.352l-0.517-4.466c-2.08-0.677-3.72-1.016-5.953-1.016
				c-3.589,0-6.833,0.793-9.731,2.378c-2.9,1.586-5.18,3.791-6.838,6.619c-1.657,2.825-2.229,5.887-2.229,9.183
				c0,4.903,1.516,9.065,5.063,12.485c3.546,3.42,8.01,5.131,13.392,5.131c2.46,0,4.472-0.332,6.556-1L34.051,56.293z"/>
			<g>
				<path fill="#F37920" d="M93.354,28.09c-0.987-0.979-2.026-1.838-3.11-2.59c-0.337,0.509-0.681,1.271-1.042,1.761
					c-0.428,0.576-0.883,0.871-1.387,1.382c0.957,0.644,1.869,1.393,2.738,2.248c3.502,3.454,5.252,7.642,5.252,12.559
					c0,4.886-1.75,9.063-5.252,12.534c-3.502,3.472-7.742,5.205-12.722,5.205c-4.979,0-9.22-1.742-12.721-5.229
					c-3.502-3.484-5.252-7.656-5.252-12.512c0-4.887,1.75-9.064,5.252-12.534c1.054-1.045,2.238-2.354,3.364-3.176
					c0.559-0.409,2.098-1.293,2.098-1.293s-3.957,0.597-5.275,0.882c-0.774,0.167-3.101,0.928-3.101,0.928
					c-4.171,4.221-6.26,9.283-6.26,15.193c0,5.945,2.132,11.042,6.396,15.289c4.264,4.248,9.446,6.371,15.545,6.371
					c6.039,0,11.197-2.116,15.477-6.349c4.279-4.231,6.418-9.337,6.418-15.313C99.771,37.443,97.633,32.323,93.354,28.09z"/>
			</g>
			<polygon fill="#F37920" points="38.96,26.748 38.96,60.855 42.19,60.855 42.19,44.706 50.976,44.706 50.976,41.992 42.19,41.992 
				42.19,29.719 54.077,29.59 53.172,26.748 			"/>
			<g display="none">
				<path display="inline" d="M99.771,43.449c0,5.976-2.14,11.08-6.418,15.313c-4.281,4.231-9.438,6.35-15.478,6.35
					c-6.1,0-11.281-2.125-15.546-6.372c-4.264-4.249-6.396-9.345-6.396-15.289c0-5.976,2.132-11.087,6.396-15.336
					c4.265-4.248,9.446-6.372,15.546-6.372c6.037,0,11.194,2.117,15.478,6.349C97.633,32.323,99.771,37.443,99.771,43.449z
					 M95.805,43.449c0-4.917-1.75-9.104-5.252-12.559c-3.502-3.454-7.742-5.182-12.722-5.182c-4.979,0-9.221,1.735-12.721,5.206
					c-3.502,3.47-5.253,7.648-5.253,12.534c0,4.854,1.751,9.026,5.253,12.512c3.501,3.485,7.741,5.228,12.721,5.228
					c4.979,0,9.22-1.732,12.722-5.205C94.055,52.514,95.805,48.335,95.805,43.449z"/>
			</g>
		</g>
		
			<linearGradient id="SVGID_1_" gradientUnits="userSpaceOnUse" x1="138.9043" y1="1120.041" x2="176.6299" y2="1120.041" gradientTransform="matrix(1 0 0 1 -76 -1104.5)">
			<stop  offset="0.005" style="stop-color:#000000"/>
			<stop  offset="1" style="stop-color:#964000"/>
		</linearGradient>
		<path fill="url(#SVGID_1_)" d="M62.905,26.966c0,0,3.618-3.357,9.228-4.616c6.001-1.346,12.692-0.422,12.692-0.422
			s1.146-2.154,1.896-2.498c0.303-0.139,1.129,0.003,1.334-0.259c1.842-2.34,4.324-8.128,6.029-10.766
			c2.283-3.531,6.546-6.158,6.546-6.158s-5.124,3.876-8.226,12.791c-0.824,2.372-1.706,7.645-2.799,9.905
			c-0.873,1.804-2.228,2.966-3.358,3.532c-0.947,0.473-4.222,0.344-4.222,0.344s-2.393-0.376-1.938-0.604
			c1.033-0.517,2.271-1.653,2.252-1.86c-0.023-0.278-1.789-0.76-2.424-0.855c-1.729-0.26-5.241-0.323-6.988-0.173
			C70.423,25.544,62.905,26.966,62.905,26.966z"/>
	</g>
</g>
<g>
	<path d="M3.184,67.887V72h-0.75v-4.113H3.184z"/>
	<path d="M4.05,69.912c0-0.342-0.006-0.628-0.024-0.885h0.659l0.037,0.445h0.018c0.128-0.231,0.452-0.512,0.946-0.512
		c0.519,0,1.056,0.335,1.056,1.275V72h-0.75v-1.679c0-0.427-0.159-0.751-0.568-0.751c-0.299,0-0.506,0.214-0.586,0.439
		c-0.024,0.067-0.03,0.159-0.03,0.244V72H4.05V69.912z"/>
	<path d="M8.369,68.18v0.848h0.714v0.562H8.369v1.313c0,0.36,0.098,0.55,0.384,0.55c0.128,0,0.226-0.019,0.293-0.037l0.012,0.574
		c-0.11,0.042-0.305,0.072-0.543,0.072c-0.275,0-0.507-0.091-0.647-0.244c-0.158-0.17-0.231-0.439-0.231-0.83v-1.397H7.209v-0.562
		h0.428v-0.671L8.369,68.18z"/>
	<path d="M10.144,70.725c0.019,0.537,0.439,0.769,0.916,0.769c0.348,0,0.598-0.049,0.824-0.134l0.11,0.519
		c-0.256,0.104-0.61,0.183-1.038,0.183c-0.964,0-1.532-0.592-1.532-1.501c0-0.824,0.5-1.599,1.452-1.599
		c0.965,0,1.282,0.793,1.282,1.446c0,0.14-0.013,0.25-0.024,0.317H10.144z M11.45,70.199c0.006-0.274-0.116-0.727-0.617-0.727
		c-0.464,0-0.659,0.422-0.69,0.727H11.45z"/>
	<path d="M12.761,69.986c0-0.403-0.006-0.69-0.024-0.959h0.653l0.024,0.568h0.024c0.146-0.422,0.494-0.635,0.812-0.635
		c0.073,0,0.116,0.006,0.177,0.018v0.708c-0.061-0.012-0.128-0.024-0.22-0.024c-0.36,0-0.604,0.232-0.671,0.568
		c-0.013,0.066-0.024,0.146-0.024,0.231V72h-0.751V69.986z"/>
	<path d="M14.932,69.912c0-0.342-0.006-0.628-0.024-0.885h0.659l0.037,0.445h0.019c0.128-0.231,0.451-0.512,0.946-0.512
		c0.519,0,1.056,0.335,1.056,1.275V72h-0.751v-1.679c0-0.427-0.159-0.751-0.567-0.751c-0.299,0-0.507,0.214-0.586,0.439
		c-0.024,0.067-0.031,0.159-0.031,0.244V72h-0.757V69.912z"/>
	<path d="M20.094,72l-0.049-0.33h-0.019c-0.183,0.232-0.494,0.397-0.879,0.397c-0.598,0-0.934-0.434-0.934-0.886
		c0-0.75,0.665-1.129,1.764-1.123V70.01c0-0.195-0.079-0.519-0.604-0.519c-0.293,0-0.598,0.092-0.799,0.22l-0.146-0.488
		c0.22-0.134,0.604-0.262,1.074-0.262c0.952,0,1.227,0.604,1.227,1.251v1.074c0,0.269,0.012,0.53,0.043,0.714H20.094z
		 M19.996,70.547c-0.531-0.012-1.038,0.104-1.038,0.556c0,0.293,0.189,0.428,0.427,0.428c0.299,0,0.519-0.195,0.586-0.409
		c0.019-0.055,0.024-0.116,0.024-0.165V70.547z"/>
	<path d="M22.344,68.18v0.848h0.714v0.562h-0.714v1.313c0,0.36,0.098,0.55,0.385,0.55c0.128,0,0.226-0.019,0.293-0.037l0.012,0.574
		c-0.11,0.042-0.305,0.072-0.543,0.072c-0.274,0-0.506-0.091-0.646-0.244c-0.159-0.17-0.232-0.439-0.232-0.83v-1.397h-0.427v-0.562
		h0.427v-0.671L22.344,68.18z"/>
	<path d="M24.424,68.197c0,0.227-0.165,0.403-0.427,0.403c-0.25,0-0.415-0.177-0.415-0.403c0-0.231,0.171-0.408,0.421-0.408
		C24.259,67.789,24.418,67.966,24.424,68.197z M23.625,72v-2.973h0.757V72H23.625z"/>
	<path d="M28.012,70.486c0,1.093-0.769,1.581-1.525,1.581c-0.843,0-1.489-0.58-1.489-1.532c0-0.977,0.641-1.574,1.538-1.574
		C27.42,68.961,28.012,69.583,28.012,70.486z M25.772,70.517c0,0.574,0.281,1.007,0.739,1.007c0.427,0,0.726-0.421,0.726-1.019
		c0-0.464-0.208-0.995-0.72-0.995C25.985,69.51,25.772,70.022,25.772,70.517z"/>
	<path d="M28.626,69.912c0-0.342-0.006-0.628-0.024-0.885h0.659l0.037,0.445h0.019c0.128-0.231,0.451-0.512,0.946-0.512
		c0.519,0,1.056,0.335,1.056,1.275V72h-0.751v-1.679c0-0.427-0.159-0.751-0.567-0.751c-0.299,0-0.507,0.214-0.586,0.439
		c-0.024,0.067-0.031,0.159-0.031,0.244V72h-0.757V69.912z"/>
	<path d="M33.788,72l-0.049-0.33h-0.019c-0.183,0.232-0.494,0.397-0.879,0.397c-0.598,0-0.934-0.434-0.934-0.886
		c0-0.75,0.665-1.129,1.764-1.123V70.01c0-0.195-0.079-0.519-0.604-0.519c-0.293,0-0.598,0.092-0.799,0.22l-0.146-0.488
		c0.22-0.134,0.604-0.262,1.074-0.262c0.952,0,1.227,0.604,1.227,1.251v1.074c0,0.269,0.012,0.53,0.043,0.714H33.788z M33.69,70.547
		c-0.531-0.012-1.038,0.104-1.038,0.556c0,0.293,0.189,0.428,0.427,0.428c0.299,0,0.519-0.195,0.586-0.409
		c0.019-0.055,0.024-0.116,0.024-0.165V70.547z"/>
	<path d="M35.214,67.666h0.757V72h-0.757V67.666z"/>
	<path d="M41.023,71.878c-0.177,0.092-0.568,0.183-1.062,0.183c-1.306,0-2.1-0.817-2.1-2.068c0-1.355,0.94-2.173,2.197-2.173
		c0.494,0,0.849,0.104,1.001,0.183l-0.165,0.599c-0.195-0.086-0.464-0.159-0.806-0.159c-0.836,0-1.44,0.525-1.44,1.514
		c0,0.903,0.531,1.483,1.435,1.483c0.305,0,0.623-0.062,0.818-0.152L41.023,71.878z"/>
	<path d="M42.064,70.725c0.019,0.537,0.439,0.769,0.916,0.769c0.348,0,0.598-0.049,0.824-0.134l0.11,0.519
		c-0.256,0.104-0.61,0.183-1.038,0.183c-0.964,0-1.532-0.592-1.532-1.501c0-0.824,0.5-1.599,1.452-1.599
		c0.965,0,1.282,0.793,1.282,1.446c0,0.14-0.013,0.25-0.024,0.317H42.064z M43.371,70.199c0.006-0.274-0.116-0.727-0.617-0.727
		c-0.464,0-0.659,0.422-0.69,0.727H43.371z"/>
	<path d="M44.681,69.912c0-0.342-0.006-0.628-0.024-0.885h0.659l0.037,0.445h0.019c0.128-0.231,0.451-0.512,0.946-0.512
		c0.519,0,1.056,0.335,1.056,1.275V72h-0.751v-1.679c0-0.427-0.159-0.751-0.567-0.751c-0.299,0-0.507,0.214-0.586,0.439
		c-0.024,0.067-0.031,0.159-0.031,0.244V72h-0.757V69.912z"/>
	<path d="M49.001,68.18v0.848h0.714v0.562h-0.714v1.313c0,0.36,0.098,0.55,0.384,0.55c0.128,0,0.226-0.019,0.293-0.037l0.012,0.574
		c-0.11,0.042-0.305,0.072-0.543,0.072c-0.275,0-0.507-0.091-0.647-0.244c-0.158-0.17-0.231-0.439-0.231-0.83v-1.397h-0.428v-0.562
		h0.428v-0.671L49.001,68.18z"/>
	<path d="M50.281,69.986c0-0.403-0.006-0.69-0.024-0.959h0.653l0.024,0.568h0.024c0.146-0.422,0.494-0.635,0.812-0.635
		c0.073,0,0.116,0.006,0.177,0.018v0.708c-0.061-0.012-0.128-0.024-0.22-0.024c-0.36,0-0.604,0.232-0.671,0.568
		c-0.013,0.066-0.024,0.146-0.024,0.231V72h-0.751V69.986z"/>
	<path d="M52.929,70.725c0.019,0.537,0.439,0.769,0.916,0.769c0.348,0,0.598-0.049,0.824-0.134l0.11,0.519
		c-0.256,0.104-0.61,0.183-1.038,0.183c-0.964,0-1.532-0.592-1.532-1.501c0-0.824,0.5-1.599,1.452-1.599
		c0.965,0,1.282,0.793,1.282,1.446c0,0.14-0.013,0.25-0.024,0.317H52.929z M54.235,70.199c0.006-0.274-0.116-0.727-0.617-0.727
		c-0.464,0-0.659,0.422-0.69,0.727H54.235z"/>
	<path d="M56.894,72v-2.411h-0.403v-0.562h0.403v-0.128c0-0.385,0.104-0.769,0.36-1.013c0.22-0.208,0.519-0.287,0.775-0.287
		c0.202,0,0.36,0.03,0.482,0.073l-0.055,0.579c-0.079-0.03-0.183-0.055-0.317-0.055c-0.372,0-0.5,0.312-0.5,0.678v0.152h0.653v0.562
		h-0.646V72H56.894z"/>
	<path d="M61.513,70.486c0,1.093-0.77,1.581-1.526,1.581c-0.842,0-1.489-0.58-1.489-1.532c0-0.977,0.641-1.574,1.538-1.574
		C60.92,68.961,61.513,69.583,61.513,70.486z M59.272,70.517c0,0.574,0.281,1.007,0.738,1.007c0.428,0,0.727-0.421,0.727-1.019
		c0-0.464-0.208-0.995-0.72-0.995C59.486,69.51,59.272,70.022,59.272,70.517z"/>
	<path d="M62.127,69.986c0-0.403-0.006-0.69-0.024-0.959h0.653l0.024,0.568h0.024c0.146-0.422,0.494-0.635,0.812-0.635
		c0.073,0,0.116,0.006,0.177,0.018v0.708c-0.061-0.012-0.128-0.024-0.22-0.024c-0.36,0-0.604,0.232-0.671,0.568
		c-0.013,0.066-0.024,0.146-0.024,0.231V72h-0.751V69.986z"/>
	<path d="M65.592,67.887h2.374v0.616h-1.624v1.135h1.514v0.616h-1.514V72h-0.75V67.887z"/>
	<path d="M68.532,69.986c0-0.403-0.006-0.69-0.024-0.959h0.653l0.024,0.568h0.024c0.146-0.422,0.495-0.635,0.812-0.635
		c0.073,0,0.116,0.006,0.177,0.018v0.708c-0.062-0.012-0.128-0.024-0.22-0.024c-0.36,0-0.604,0.232-0.672,0.568
		c-0.012,0.066-0.024,0.146-0.024,0.231V72h-0.75V69.986z"/>
	<path d="M71.18,70.725c0.018,0.537,0.439,0.769,0.915,0.769c0.348,0,0.599-0.049,0.824-0.134l0.11,0.519
		c-0.256,0.104-0.61,0.183-1.038,0.183c-0.964,0-1.532-0.592-1.532-1.501c0-0.824,0.501-1.599,1.453-1.599
		c0.964,0,1.281,0.793,1.281,1.446c0,0.14-0.012,0.25-0.024,0.317H71.18z M72.485,70.199c0.006-0.274-0.116-0.727-0.616-0.727
		c-0.464,0-0.659,0.422-0.689,0.727H72.485z"/>
	<path d="M74.327,70.725c0.019,0.537,0.439,0.769,0.916,0.769c0.348,0,0.598-0.049,0.823-0.134l0.11,0.519
		c-0.257,0.104-0.61,0.183-1.038,0.183c-0.964,0-1.531-0.592-1.531-1.501c0-0.824,0.5-1.599,1.452-1.599
		c0.965,0,1.282,0.793,1.282,1.446c0,0.14-0.013,0.25-0.024,0.317H74.327z M75.634,70.199c0.006-0.274-0.116-0.727-0.616-0.727
		c-0.465,0-0.66,0.422-0.69,0.727H75.634z"/>
	<path d="M79.879,72l-0.049-0.33h-0.019c-0.183,0.232-0.494,0.397-0.879,0.397c-0.598,0-0.934-0.434-0.934-0.886
		c0-0.75,0.665-1.129,1.764-1.123V70.01c0-0.195-0.079-0.519-0.604-0.519c-0.293,0-0.598,0.092-0.799,0.22l-0.146-0.488
		c0.22-0.134,0.604-0.262,1.074-0.262c0.952,0,1.227,0.604,1.227,1.251v1.074c0,0.269,0.012,0.53,0.043,0.714H79.879z
		 M79.781,70.547c-0.531-0.012-1.037,0.104-1.037,0.556c0,0.293,0.188,0.428,0.427,0.428c0.299,0,0.519-0.195,0.586-0.409
		c0.019-0.055,0.024-0.116,0.024-0.165V70.547z"/>
	<path d="M81.305,69.912c0-0.342-0.006-0.628-0.023-0.885h0.658l0.037,0.445h0.019c0.128-0.231,0.451-0.512,0.946-0.512
		c0.519,0,1.056,0.335,1.056,1.275V72h-0.751v-1.679c0-0.427-0.158-0.751-0.567-0.751c-0.3,0-0.507,0.214-0.586,0.439
		c-0.024,0.067-0.03,0.159-0.03,0.244V72h-0.758V69.912z"/>
	<path d="M87.535,67.666v3.498c0,0.305,0.012,0.635,0.024,0.836h-0.672l-0.03-0.47h-0.012c-0.178,0.329-0.537,0.537-0.971,0.537
		c-0.708,0-1.27-0.604-1.27-1.521c-0.006-0.994,0.616-1.586,1.33-1.586c0.409,0,0.702,0.17,0.836,0.391h0.013v-1.686H87.535z
		 M86.784,70.267c0-0.062-0.006-0.134-0.019-0.195c-0.066-0.293-0.305-0.531-0.646-0.531c-0.482,0-0.751,0.428-0.751,0.983
		c0,0.543,0.269,0.939,0.745,0.939c0.305,0,0.573-0.207,0.646-0.531c0.019-0.066,0.024-0.141,0.024-0.22V70.267z"/>
	<path d="M93.281,69.9c0,1.379-0.836,2.167-1.971,2.167c-1.16,0-1.893-0.886-1.893-2.094c0-1.264,0.793-2.154,1.953-2.154
		C92.573,67.819,93.281,68.729,93.281,69.9z M90.211,69.961c0,0.837,0.422,1.502,1.142,1.502c0.727,0,1.136-0.672,1.136-1.532
		c0-0.774-0.385-1.507-1.136-1.507C90.608,68.424,90.211,69.113,90.211,69.961z"/>
	<path d="M93.914,70.017c0-0.391-0.013-0.708-0.025-0.989h0.66l0.036,0.458h0.013c0.219-0.336,0.567-0.524,1.019-0.524
		c0.684,0,1.251,0.586,1.251,1.514c0,1.074-0.677,1.593-1.354,1.593c-0.372,0-0.684-0.159-0.836-0.397h-0.013v1.539h-0.75V70.017z
		 M94.664,70.755c0,0.073,0.006,0.141,0.024,0.208c0.073,0.305,0.342,0.524,0.659,0.524c0.477,0,0.757-0.396,0.757-0.982
		c0-0.525-0.256-0.952-0.738-0.952c-0.312,0-0.599,0.226-0.671,0.555c-0.019,0.062-0.031,0.129-0.031,0.189V70.755z"/>
	<path d="M98.013,70.725c0.019,0.537,0.439,0.769,0.916,0.769c0.348,0,0.598-0.049,0.823-0.134l0.11,0.519
		c-0.257,0.104-0.61,0.183-1.038,0.183c-0.964,0-1.531-0.592-1.531-1.501c0-0.824,0.5-1.599,1.452-1.599
		c0.965,0,1.282,0.793,1.282,1.446c0,0.14-0.013,0.25-0.024,0.317H98.013z M99.319,70.199c0.006-0.274-0.116-0.727-0.616-0.727
		c-0.465,0-0.66,0.422-0.69,0.727H99.319z"/>
	<path d="M100.629,69.912c0-0.342-0.006-0.628-0.023-0.885h0.658l0.037,0.445h0.019c0.128-0.231,0.451-0.512,0.946-0.512
		c0.519,0,1.056,0.335,1.056,1.275V72h-0.751v-1.679c0-0.427-0.158-0.751-0.567-0.751c-0.3,0-0.507,0.214-0.586,0.439
		c-0.024,0.067-0.03,0.159-0.03,0.244V72h-0.758V69.912z"/>
	<path d="M105.394,71.182c0.244,0.141,0.61,0.263,0.995,0.263c0.482,0,0.75-0.226,0.75-0.562c0-0.311-0.207-0.494-0.732-0.684
		c-0.677-0.244-1.11-0.604-1.11-1.196c0-0.671,0.562-1.184,1.452-1.184c0.446,0,0.775,0.098,0.989,0.207l-0.183,0.604
		c-0.146-0.079-0.434-0.195-0.818-0.195c-0.477,0-0.684,0.256-0.684,0.494c0,0.317,0.238,0.464,0.787,0.678
		c0.715,0.269,1.063,0.629,1.063,1.221c0,0.659-0.501,1.232-1.563,1.232c-0.434,0-0.885-0.121-1.111-0.256L105.394,71.182z"/>
	<path d="M111.409,70.486c0,1.093-0.769,1.581-1.525,1.581c-0.843,0-1.489-0.58-1.489-1.532c0-0.977,0.641-1.574,1.538-1.574
		C110.817,68.961,111.409,69.583,111.409,70.486z M109.17,70.517c0,0.574,0.28,1.007,0.738,1.007c0.427,0,0.727-0.421,0.727-1.019
		c0-0.464-0.208-0.995-0.721-0.995C109.383,69.51,109.17,70.022,109.17,70.517z"/>
	<path d="M114.686,71.109c0,0.354,0.012,0.646,0.023,0.891h-0.658l-0.037-0.451h-0.012c-0.129,0.213-0.422,0.519-0.953,0.519
		c-0.543,0-1.037-0.323-1.037-1.294v-1.746h0.751v1.617c0,0.495,0.158,0.813,0.556,0.813c0.299,0,0.494-0.214,0.573-0.403
		c0.024-0.067,0.043-0.146,0.043-0.231v-1.795h0.751V71.109z"/>
	<path d="M115.494,69.986c0-0.403-0.006-0.69-0.023-0.959h0.652l0.024,0.568h0.024c0.146-0.422,0.494-0.635,0.813-0.635
		c0.072,0,0.115,0.006,0.177,0.018v0.708c-0.062-0.012-0.128-0.024-0.22-0.024c-0.36,0-0.604,0.232-0.672,0.568
		c-0.012,0.066-0.024,0.146-0.024,0.231V72h-0.751V69.986z"/>
	<path d="M119.797,71.908c-0.158,0.073-0.47,0.152-0.842,0.152c-0.928,0-1.532-0.592-1.532-1.514c0-0.891,0.61-1.586,1.653-1.586
		c0.275,0,0.556,0.061,0.727,0.14l-0.134,0.562c-0.122-0.055-0.3-0.115-0.567-0.115c-0.574,0-0.916,0.421-0.91,0.964
		c0,0.61,0.396,0.958,0.91,0.958c0.262,0,0.445-0.055,0.592-0.115L119.797,71.908z"/>
	<path d="M120.826,70.725c0.019,0.537,0.439,0.769,0.916,0.769c0.348,0,0.598-0.049,0.824-0.134l0.109,0.519
		c-0.256,0.104-0.61,0.183-1.037,0.183c-0.965,0-1.532-0.592-1.532-1.501c0-0.824,0.5-1.599,1.452-1.599
		c0.965,0,1.282,0.793,1.282,1.446c0,0.14-0.013,0.25-0.024,0.317H120.826z M122.133,70.199c0.006-0.274-0.116-0.727-0.617-0.727
		c-0.463,0-0.658,0.422-0.689,0.727H122.133z"/>
	<path d="M124.718,71.182c0.244,0.141,0.61,0.263,0.995,0.263c0.482,0,0.75-0.226,0.75-0.562c0-0.311-0.207-0.494-0.732-0.684
		c-0.677-0.244-1.11-0.604-1.11-1.196c0-0.671,0.562-1.184,1.452-1.184c0.446,0,0.775,0.098,0.989,0.207l-0.183,0.604
		c-0.146-0.079-0.434-0.195-0.818-0.195c-0.477,0-0.684,0.256-0.684,0.494c0,0.317,0.238,0.464,0.787,0.678
		c0.715,0.269,1.063,0.629,1.063,1.221c0,0.659-0.501,1.232-1.563,1.232c-0.434,0-0.885-0.121-1.111-0.256L124.718,71.182z"/>
	<path d="M130.733,70.486c0,1.093-0.769,1.581-1.525,1.581c-0.843,0-1.489-0.58-1.489-1.532c0-0.977,0.641-1.574,1.538-1.574
		C130.142,68.961,130.733,69.583,130.733,70.486z M128.494,70.517c0,0.574,0.28,1.007,0.738,1.007c0.427,0,0.727-0.421,0.727-1.019
		c0-0.464-0.208-0.995-0.721-0.995C128.707,69.51,128.494,70.022,128.494,70.517z"/>
	<path d="M131.434,72v-2.411h-0.402v-0.562h0.402v-0.128c0-0.385,0.104-0.769,0.36-1.013c0.22-0.208,0.519-0.287,0.774-0.287
		c0.202,0,0.36,0.03,0.482,0.073l-0.055,0.579c-0.079-0.03-0.184-0.055-0.317-0.055c-0.372,0-0.501,0.312-0.501,0.678v0.152h0.653
		v0.562h-0.646V72H131.434z"/>
	<path d="M134.234,68.18v0.848h0.714v0.562h-0.714v1.313c0,0.36,0.098,0.55,0.385,0.55c0.128,0,0.226-0.019,0.293-0.037l0.012,0.574
		c-0.109,0.042-0.305,0.072-0.543,0.072c-0.275,0-0.507-0.091-0.647-0.244c-0.158-0.17-0.231-0.439-0.231-0.83v-1.397h-0.428v-0.562
		h0.428v-0.671L134.234,68.18z"/>
	<path d="M136.009,69.027l0.312,1.35c0.066,0.316,0.134,0.641,0.189,0.964h0.012c0.061-0.323,0.158-0.653,0.244-0.958l0.385-1.355
		h0.61l0.372,1.318c0.092,0.348,0.171,0.672,0.238,0.995h0.012c0.049-0.323,0.116-0.647,0.195-0.995l0.33-1.318h0.738L138.713,72
		h-0.696l-0.354-1.209c-0.092-0.311-0.159-0.592-0.226-0.951h-0.013c-0.062,0.365-0.141,0.658-0.226,0.951L136.82,72h-0.701
		l-0.879-2.973H136.009z"/>
	<path d="M141.762,72l-0.049-0.33h-0.019c-0.183,0.232-0.494,0.397-0.879,0.397c-0.598,0-0.934-0.434-0.934-0.886
		c0-0.75,0.665-1.129,1.764-1.123V70.01c0-0.195-0.079-0.519-0.604-0.519c-0.293,0-0.598,0.092-0.799,0.22l-0.146-0.488
		c0.22-0.134,0.604-0.262,1.074-0.262c0.952,0,1.227,0.604,1.227,1.251v1.074c0,0.269,0.012,0.53,0.043,0.714H141.762z
		 M141.664,70.547c-0.531-0.012-1.037,0.104-1.037,0.556c0,0.293,0.188,0.428,0.427,0.428c0.299,0,0.519-0.195,0.586-0.409
		c0.019-0.055,0.024-0.116,0.024-0.165V70.547z"/>
	<path d="M143.188,69.986c0-0.403-0.006-0.69-0.023-0.959h0.652l0.024,0.568h0.024c0.146-0.422,0.494-0.635,0.813-0.635
		c0.072,0,0.115,0.006,0.177,0.018v0.708c-0.062-0.012-0.128-0.024-0.22-0.024c-0.36,0-0.604,0.232-0.672,0.568
		c-0.012,0.066-0.024,0.146-0.024,0.231V72h-0.751V69.986z"/>
	<path d="M145.836,70.725c0.019,0.537,0.439,0.769,0.916,0.769c0.348,0,0.598-0.049,0.824-0.134l0.109,0.519
		c-0.256,0.104-0.61,0.183-1.037,0.183c-0.965,0-1.532-0.592-1.532-1.501c0-0.824,0.5-1.599,1.452-1.599
		c0.965,0,1.282,0.793,1.282,1.446c0,0.14-0.013,0.25-0.024,0.317H145.836z M147.143,70.199c0.006-0.274-0.116-0.727-0.617-0.727
		c-0.463,0-0.658,0.422-0.689,0.727H147.143z"/>
</g>
</svg>
