<svg width="108" height="30" viewBox="0 0 108 30" fill="none" xmlns="http://www.w3.org/2000/svg" style="width: 107px; height: 50px;">
<path fill-rule="evenodd" clip-rule="evenodd" d="M45.0293 14.275C44.6735 14.6502 44.226 14.8377 43.6865 14.8377H41.4239V10.927H43.6865C44.226 10.927 44.6735 11.1114 45.0293 11.4803C45.3849 11.8493 45.5625 12.3167 45.5625 12.8822C45.5625 13.4356 45.3849 13.9 45.0293 14.275ZM46.8134 9.8018C45.9673 8.96569 44.925 8.54736 43.6865 8.54736H38.8857V21.2079H41.4239V17.217H43.6865C44.925 17.217 45.9673 16.7992 46.8134 15.9628C47.6595 15.1267 48.0826 14.0998 48.0826 12.8822C48.0826 11.6648 47.6595 10.6382 46.8134 9.8018ZM53.1321 12.1551C52.623 12.4502 52.2581 12.8932 52.0375 13.4834V11.7126H49.6646V21.2079H52.0375V16.7993C52.0375 15.9137 52.3227 15.2805 52.8929 14.8992C53.463 14.5185 54.1095 14.3705 54.8332 14.4564V11.7126C54.2078 11.7126 53.6404 11.86 53.1321 12.1551ZM58.6222 18.2406C59.0813 18.7081 59.6572 18.942 60.3494 18.942C61.0413 18.942 61.6203 18.7081 62.0856 18.2406C62.5509 17.7729 62.7835 17.1794 62.7835 16.4603C62.7835 15.7411 62.5509 15.1473 62.0856 14.6796C61.6203 14.2121 61.0413 13.9786 60.3494 13.9786C59.6572 13.9786 59.0813 14.2121 58.6222 14.6796C58.1627 15.1473 57.933 15.7411 57.933 16.4603C57.933 17.1794 58.1627 17.7729 58.6222 18.2406ZM63.7145 19.8321C62.7953 20.7492 61.6739 21.2079 60.3494 21.2079C59.0249 21.2079 57.9062 20.7492 56.9933 19.8321C56.0805 18.9148 55.6242 17.791 55.6242 16.4603C55.6242 15.1292 56.0805 14.0052 56.9933 13.0881C57.9062 12.1713 59.0249 11.7126 60.3494 11.7126C61.6739 11.7126 62.7953 12.1713 63.7145 13.0881C64.6331 14.0052 65.0924 15.1292 65.0924 16.4603C65.0924 17.791 64.6331 18.9148 63.7145 19.8321ZM69.8769 14H71.9552V11.7127H69.8769V9.40254L67.504 10.1299V11.7127H65.9039V14H67.504V18.0335C67.504 19.3003 67.838 20.1797 68.5064 20.6714C69.1745 21.163 70.3244 21.317 71.9552 21.1322V18.9742C71.5014 18.9991 71.1212 19.0022 70.8149 18.9835C70.5084 18.9651 70.2752 18.8819 70.1159 18.7345C69.9566 18.5869 69.8769 18.3533 69.8769 18.0335V14ZM75.7445 18.2406C76.2035 18.7081 76.7794 18.942 77.4716 18.942C78.1636 18.942 78.7425 18.7081 79.2078 18.2406C79.6731 17.7729 79.9058 17.1794 79.9058 16.4603C79.9058 15.7411 79.6731 15.1473 79.2078 14.6796C78.7425 14.2121 78.1636 13.9786 77.4716 13.9786C76.7794 13.9786 76.2035 14.2121 75.7445 14.6796C75.2849 15.1473 75.0553 15.7411 75.0553 16.4603C75.0553 17.1794 75.2849 17.7729 75.7445 18.2406ZM80.8367 19.8321C79.9176 20.7492 78.7962 21.2079 77.4716 21.2079C76.1471 21.2079 75.0284 20.7492 74.1156 19.8321C73.2028 18.9148 72.7465 17.791 72.7465 16.4603C72.7465 15.1292 73.2028 14.0052 74.1156 13.0881C75.0284 12.1713 76.1471 11.7126 77.4716 11.7126C78.7962 11.7126 79.9176 12.1713 80.8367 13.0881C81.7553 14.0052 82.2146 15.1292 82.2146 16.4603C82.2146 17.791 81.7553 18.9148 80.8367 19.8321ZM89.9396 14.275C89.5838 14.6502 89.1366 14.8377 88.5968 14.8377H86.3345V10.927H88.5968C89.1366 10.927 89.5838 11.1114 89.9396 11.4803C90.2955 11.8493 90.4731 12.3167 90.4731 12.8822C90.4731 13.4356 90.2955 13.9 89.9396 14.275ZM91.7237 9.8018C90.8777 8.96569 89.8354 8.54736 88.5968 8.54736H83.7961V21.2079H86.3345V17.217H88.5968C89.8354 17.217 90.8777 16.7992 91.7237 15.9628C92.5698 15.1267 92.993 14.0998 92.993 12.8822C92.993 11.6648 92.5698 10.6382 91.7237 9.8018ZM94.5759 21.2079H96.9488V13.2953H94.5759V21.2079ZM95.7403 11.7126C95.3166 11.7126 94.9495 11.5566 94.6386 11.2445C94.3279 10.933 94.1724 10.5649 94.1724 10.1397C94.1724 9.71534 94.3279 9.34367 94.6386 9.02498C94.9495 8.70657 95.3166 8.54736 95.7403 8.54736C96.1769 8.54736 96.551 8.70657 96.8617 9.02498C97.1729 9.34367 97.3284 9.71534 97.3284 10.1397C97.3284 10.5649 97.1729 10.933 96.8617 11.2445C96.551 11.5566 96.1769 11.7126 95.7403 11.7126ZM105.638 15.6151H100.968C101.102 15.0395 101.377 14.5929 101.792 14.2753C102.207 13.958 102.732 13.7988 103.367 13.7988C103.904 13.7988 104.383 13.9489 104.805 14.2484C105.226 14.5481 105.503 15.0035 105.638 15.6151ZM107.543 19.2837C107.543 19.2837 107.604 19.1964 107.683 19.0762C107.683 19.0762 106.131 18.5991 105.471 18.3976C105.016 18.8687 104.387 19.1039 103.587 19.1039C102.183 19.1039 101.322 18.5404 101.004 17.4133H107.909C107.97 17.0779 108.001 16.76 108.001 16.4603C108.001 15.1177 107.564 13.9906 106.691 13.0793C105.818 12.1683 104.71 11.7126 103.367 11.7126C101.951 11.7126 100.791 12.1655 99.8873 13.0702C98.9838 13.9755 98.5324 15.1056 98.5324 16.4603C98.5324 17.827 98.9901 18.9601 99.9059 19.859C100.821 20.7583 102.036 21.2079 103.55 21.2079C105.308 21.2079 106.639 20.5667 107.543 19.2837Z" fill="#252830"></path><path d="M0.0510242 6.53109C0.0510242 2.95225 2.95225 0.0510242 6.53109 0.0510242H23.4689C27.0477 0.0510242 29.949 2.95225 29.949 6.53109V23.4689C29.949 27.0477 27.0477 29.949 23.4689 29.949H6.53109C2.95225 29.949 0.0510242 27.0477 0.0510242 23.4689V6.53109Z" fill="url(#paint0_linear_1878_14542)" stroke="#D8DBE3" stroke-width="0.102048"></path><g filter="url(#filter0_dd_1878_14542)"><g filter="url(#filter1_ii_1878_14542)"><path fill-rule="evenodd" clip-rule="evenodd" d="M15.029 22.1929V25.1914C14.5336 25.1914 14.0842 24.9943 13.7537 24.6749C13.7525 24.6749 13.7525 24.6749 13.7525 24.6739L13.5049 24.3781L5.39676 14.7274C5.39145 14.7249 5.38762 14.7196 5.38487 14.7142L5.35214 14.6763C5.34959 14.6735 5.3481 14.6709 5.34576 14.6682C5.30624 14.6145 5.27223 14.5566 5.24992 14.4935C5.21975 14.4186 5.20275 14.3373 5.2002 14.2531V14.2033C5.2002 14.1875 5.20147 14.1715 5.20423 14.1558C5.21847 13.9904 5.28923 13.8429 5.39676 13.7274C5.52915 13.5842 5.7204 13.4937 5.93121 13.4937H7.71774L15.0277 22.1942L15.029 22.1929Z" fill="url(#paint1_linear_1878_14542)"></path><path fill-rule="evenodd" clip-rule="evenodd" d="M15.029 22.1929V25.1914C14.5336 25.1914 14.0842 24.9943 13.7537 24.6749C13.7525 24.6749 13.7525 24.6749 13.7525 24.6739L13.5049 24.3781L5.39676 14.7274C5.39145 14.7249 5.38762 14.7196 5.38487 14.7142L5.35214 14.6763C5.34959 14.6735 5.3481 14.6709 5.34576 14.6682C5.30624 14.6145 5.27223 14.5566 5.24992 14.4935C5.21975 14.4186 5.20275 14.3373 5.2002 14.2531V14.2033C5.2002 14.1875 5.20147 14.1715 5.20423 14.1558C5.21847 13.9904 5.28923 13.8429 5.39676 13.7274C5.52915 13.5842 5.7204 13.4937 5.93121 13.4937H7.71774L15.0277 22.1942L15.029 22.1929Z" fill="url(#paint2_linear_1878_14542)"></path></g><g filter="url(#filter2_ii_1878_14542)"><path fill-rule="evenodd" clip-rule="evenodd" d="M15.029 22.1929V25.1914C14.5336 25.1914 14.0842 24.9943 13.7537 24.6749C13.7525 24.6749 13.7525 24.6749 13.7525 24.6739L13.5049 24.3781L7.45551 17.1783L5.39676 14.7274C5.39145 14.7249 5.38762 14.7196 5.38487 14.7142L5.35214 14.6763C5.34959 14.6735 5.3481 14.6709 5.34576 14.6682C5.30624 14.6145 5.27223 14.5566 5.24992 14.4935C5.21975 14.4186 5.20275 14.3373 5.2002 14.2531V14.2033C5.2002 14.1875 5.20147 14.1715 5.20423 14.1558C5.21847 13.9904 5.28923 13.8429 5.39676 13.7274C5.52915 13.5842 5.7204 13.4937 5.93121 13.4937H7.71774L8.55778 14.4935L10.8131 17.1783L14.5111 21.5793L15.0277 22.1942L15.029 22.1929Z" fill="url(#paint3_linear_1878_14542)" fill-opacity="0.4"></path></g><g filter="url(#filter3_ii_1878_14542)"><path fill-rule="evenodd" clip-rule="evenodd" d="M15.029 18.2099V22.2134L15.0277 22.2147L5.38316 10.7668C5.37339 10.7559 5.36361 10.7436 5.35384 10.7311C5.31092 10.6761 5.27521 10.6146 5.24928 10.5468C5.21996 10.472 5.20275 10.3908 5.2002 10.3049V10.2556C5.20508 10.0726 5.27883 9.9079 5.39676 9.78271C5.52831 9.63754 5.71977 9.54785 5.93121 9.54785H7.7324L15.029 18.2099Z" fill="url(#paint4_linear_1878_14542)"></path><path fill-rule="evenodd" clip-rule="evenodd" d="M15.029 18.2099V22.2134L15.0277 22.2147L5.38316 10.7668C5.37339 10.7559 5.36361 10.7436 5.35384 10.7311C5.31092 10.6761 5.27521 10.6146 5.24928 10.5468C5.21996 10.472 5.20275 10.3908 5.2002 10.3049V10.2556C5.20508 10.0726 5.27883 9.9079 5.39676 9.78271C5.52831 9.63754 5.71977 9.54785 5.93121 9.54785H7.7324L15.029 18.2099Z" fill="url(#paint5_linear_1878_14542)"></path></g><g filter="url(#filter4_ii_1878_14542)"><path fill-rule="evenodd" clip-rule="evenodd" d="M15.029 18.2099V22.2134L15.0277 22.2147L14.5118 21.6014L10.8137 17.2122L8.55799 14.5345L7.71774 13.5367L5.38316 10.7668C5.37339 10.7559 5.36361 10.7436 5.35384 10.7311C5.31092 10.6761 5.27521 10.6146 5.24928 10.5468C5.21996 10.472 5.20275 10.3908 5.2002 10.3049V10.2556C5.20508 10.0726 5.27883 9.9079 5.39676 9.78271C5.52831 9.63754 5.71977 9.54785 5.93121 9.54785H7.7324L8.57393 10.5468L11.0927 13.5367L11.9329 14.5345L14.1887 17.2122L15.029 18.2099Z" fill="url(#paint6_linear_1878_14542)" fill-opacity="0.3"></path></g><g filter="url(#filter5_ii_1878_14542)"><path fill-rule="evenodd" clip-rule="evenodd" d="M5.89997 5.53369C5.68938 5.53369 5.49642 5.62252 5.36552 5.76809C5.24758 5.89135 5.17427 6.05902 5.16895 6.24135V6.28981C5.17129 6.37629 5.18829 6.45747 5.21867 6.53206C5.21996 6.53865 5.22271 6.54396 5.22505 6.55055C5.24885 6.60687 5.27882 6.65914 5.31686 6.70781C5.32982 6.7263 5.34448 6.7433 5.36021 6.75881C5.36275 6.76285 5.36658 6.76668 5.37062 6.77071L14.9976 18.1972V25.1914C15.0437 25.1914 15.0884 25.1902 15.1328 25.1864C15.5744 25.1551 15.9728 24.9662 16.2729 24.6766C16.2743 24.6766 16.2743 24.6766 16.2743 24.675L16.522 24.3803L24.6421 14.7413C24.6524 14.7309 24.6616 14.719 24.671 14.7073C24.7154 14.6523 24.7507 14.5904 24.7768 14.5225C24.8097 14.4413 24.8267 14.3522 24.8267 14.2576V6.26494C24.8267 6.07219 24.7519 5.89517 24.6289 5.76682C24.4965 5.62252 24.3063 5.53369 24.094 5.53369H5.89997Z" fill="url(#paint7_linear_1878_14542)"></path><path fill-rule="evenodd" clip-rule="evenodd" d="M5.89997 5.53369C5.68938 5.53369 5.49642 5.62252 5.36552 5.76809C5.24758 5.89135 5.17427 6.05902 5.16895 6.24135V6.28981C5.17129 6.37629 5.18829 6.45747 5.21867 6.53206C5.21996 6.53865 5.22271 6.54396 5.22505 6.55055C5.24885 6.60687 5.27882 6.65914 5.31686 6.70781C5.32982 6.7263 5.34448 6.7433 5.36021 6.75881C5.36275 6.76285 5.36658 6.76668 5.37062 6.77071L14.9976 18.1972V25.1914C15.0437 25.1914 15.0884 25.1902 15.1328 25.1864C15.5744 25.1551 15.9728 24.9662 16.2729 24.6766C16.2743 24.6766 16.2743 24.6766 16.2743 24.675L16.522 24.3803L24.6421 14.7413C24.6524 14.7309 24.6616 14.719 24.671 14.7073C24.7154 14.6523 24.7507 14.5904 24.7768 14.5225C24.8097 14.4413 24.8267 14.3522 24.8267 14.2576V6.26494C24.8267 6.07219 24.7519 5.89517 24.6289 5.76682C24.4965 5.62252 24.3063 5.53369 24.094 5.53369H5.89997Z" fill="url(#paint8_linear_1878_14542)"></path><path fill-rule="evenodd" clip-rule="evenodd" d="M5.89997 5.53369C5.68938 5.53369 5.49642 5.62252 5.36552 5.76809C5.24758 5.89135 5.17427 6.05902 5.16895 6.24135V6.28981C5.17129 6.37629 5.18829 6.45747 5.21867 6.53206C5.21996 6.53865 5.22271 6.54396 5.22505 6.55055C5.24885 6.60687 5.27882 6.65914 5.31686 6.70781C5.32982 6.7263 5.34448 6.7433 5.36021 6.75881C5.36275 6.76285 5.36658 6.76668 5.37062 6.77071L14.9976 18.1972V25.1914C15.0437 25.1914 15.0884 25.1902 15.1328 25.1864C15.5744 25.1551 15.9728 24.9662 16.2729 24.6766C16.2743 24.6766 16.2743 24.6766 16.2743 24.675L16.522 24.3803L24.6421 14.7413C24.6524 14.7309 24.6616 14.719 24.671 14.7073C24.7154 14.6523 24.7507 14.5904 24.7768 14.5225C24.8097 14.4413 24.8267 14.3522 24.8267 14.2576V6.26494C24.8267 6.07219 24.7519 5.89517 24.6289 5.76682C24.4965 5.62252 24.3063 5.53369 24.094 5.53369H5.89997Z" fill="url(#paint9_linear_1878_14542)"></path><path fill-rule="evenodd" clip-rule="evenodd" d="M5.89997 5.53369C5.68938 5.53369 5.49642 5.62252 5.36552 5.76809C5.24758 5.89135 5.17427 6.05902 5.16895 6.24135V6.28981C5.17129 6.37629 5.18829 6.45747 5.21867 6.53206C5.21996 6.53865 5.22271 6.54396 5.22505 6.55055C5.24885 6.60687 5.27882 6.65914 5.31686 6.70781C5.32982 6.7263 5.34448 6.7433 5.36021 6.75881C5.36275 6.76285 5.36658 6.76668 5.37062 6.77071L14.9976 18.1972V25.1914C15.0437 25.1914 15.0884 25.1902 15.1328 25.1864C15.5744 25.1551 15.9728 24.9662 16.2729 24.6766C16.2743 24.6766 16.2743 24.6766 16.2743 24.675L16.522 24.3803L24.6421 14.7413C24.6524 14.7309 24.6616 14.719 24.671 14.7073C24.7154 14.6523 24.7507 14.5904 24.7768 14.5225C24.8097 14.4413 24.8267 14.3522 24.8267 14.2576V6.26494C24.8267 6.07219 24.7519 5.89517 24.6289 5.76682C24.4965 5.62252 24.3063 5.53369 24.094 5.53369H5.89997Z" fill="url(#paint10_linear_1878_14542)"></path><path fill-rule="evenodd" clip-rule="evenodd" d="M5.89997 5.53369C5.68938 5.53369 5.49642 5.62252 5.36552 5.76809C5.24758 5.89135 5.17427 6.05902 5.16895 6.24135V6.28981C5.17129 6.37629 5.18829 6.45747 5.21867 6.53206C5.21996 6.53865 5.22271 6.54396 5.22505 6.55055C5.24885 6.60687 5.27882 6.65914 5.31686 6.70781C5.32982 6.7263 5.34448 6.7433 5.36021 6.75881C5.36275 6.76285 5.36658 6.76668 5.37062 6.77071L14.9976 18.1972V25.1914C15.0437 25.1914 15.0884 25.1902 15.1328 25.1864C15.5744 25.1551 15.9728 24.9662 16.2729 24.6766C16.2743 24.6766 16.2743 24.6766 16.2743 24.675L16.522 24.3803L24.6421 14.7413C24.6524 14.7309 24.6616 14.719 24.671 14.7073C24.7154 14.6523 24.7507 14.5904 24.7768 14.5225C24.8097 14.4413 24.8267 14.3522 24.8267 14.2576V6.26494C24.8267 6.07219 24.7519 5.89517 24.6289 5.76682C24.4965 5.62252 24.3063 5.53369 24.094 5.53369H5.89997Z" fill="url(#paint11_linear_1878_14542)"></path><path fill-rule="evenodd" clip-rule="evenodd" d="M5.89997 5.53369C5.68938 5.53369 5.49642 5.62252 5.36552 5.76809C5.24758 5.89135 5.17427 6.05902 5.16895 6.24135V6.28981C5.17129 6.37629 5.18829 6.45747 5.21867 6.53206C5.21996 6.53865 5.22271 6.54396 5.22505 6.55055C5.24885 6.60687 5.27882 6.65914 5.31686 6.70781C5.32982 6.7263 5.34448 6.7433 5.36021 6.75881C5.36275 6.76285 5.36658 6.76668 5.37062 6.77071L14.9976 18.1972V25.1914C15.0437 25.1914 15.0884 25.1902 15.1328 25.1864C15.5744 25.1551 15.9728 24.9662 16.2729 24.6766C16.2743 24.6766 16.2743 24.6766 16.2743 24.675L16.522 24.3803L24.6421 14.7413C24.6524 14.7309 24.6616 14.719 24.671 14.7073C24.7154 14.6523 24.7507 14.5904 24.7768 14.5225C24.8097 14.4413 24.8267 14.3522 24.8267 14.2576V6.26494C24.8267 6.07219 24.7519 5.89517 24.6289 5.76682C24.4965 5.62252 24.3063 5.53369 24.094 5.53369H5.89997Z" fill="url(#paint12_linear_1878_14542)"></path></g></g><defs><filter id="filter0_dd_1878_14542" x="3.63532" y="4.36521" width="23.7479" height="23.7474" filterUnits="userSpaceOnUse" color-interpolation-filters="sRGB"><feFlood flood-opacity="0" result="BackgroundImageFix"></feFlood><feColorMatrix in="SourceAlpha" type="matrix" values="0 0 0 0 0 0 0 0 0 0 0 0 0 0 0 0 0 0 127 0" result="hardAlpha"></feColorMatrix><feOffset dx="0.511209" dy="0.876358"></feOffset><feGaussianBlur stdDeviation="1.02242"></feGaussianBlur><feColorMatrix type="matrix" values="0 0 0 0 1 0 0 0 0 0.875 0 0 0 0 0.843 0 0 0 0.63 0"></feColorMatrix><feBlend mode="normal" in2="BackgroundImageFix" result="effect1_dropShadow_1878_14542"></feBlend><feColorMatrix in="SourceAlpha" type="matrix" values="0 0 0 0 0 0 0 0 0 0 0 0 0 0 0 0 0 0 127 0" result="hardAlpha"></feColorMatrix><feOffset dx="0.219089" dy="0.438179"></feOffset><feGaussianBlur stdDeviation="0.730298"></feGaussianBlur><feColorMatrix type="matrix" values="0 0 0 0 0.771137 0 0 0 0 0.469437 0 0 0 0 0.40806 0 0 0 0.3 0"></feColorMatrix><feBlend mode="normal" in2="effect1_dropShadow_1878_14542" result="effect2_dropShadow_1878_14542"></feBlend><feBlend mode="normal" in="SourceGraphic" in2="effect2_dropShadow_1878_14542" result="shape"></feBlend></filter><filter id="filter1_ii_1878_14542" x="3.85578" y="13.4937" width="12.8532" height="14.1808" filterUnits="userSpaceOnUse" color-interpolation-filters="sRGB"><feFlood flood-opacity="0" result="BackgroundImageFix"></feFlood><feBlend mode="normal" in="SourceGraphic" in2="BackgroundImageFix" result="shape"></feBlend><feColorMatrix in="SourceAlpha" type="matrix" values="0 0 0 0 0 0 0 0 0 0 0 0 0 0 0 0 0 0 127 0" result="hardAlpha"></feColorMatrix><feOffset dx="1.67968" dy="4.1627"></feOffset><feGaussianBlur stdDeviation="1.24151"></feGaussianBlur><feComposite in2="hardAlpha" operator="arithmetic" k2="-1" k3="1"></feComposite><feColorMatrix type="matrix" values="0 0 0 0 1 0 0 0 0 0.651 0 0 0 0 0.58 0 0 0 1 0"></feColorMatrix><feBlend mode="normal" in2="shape" result="effect1_innerShadow_1878_14542"></feBlend><feColorMatrix in="SourceAlpha" type="matrix" values="0 0 0 0 0 0 0 0 0 0 0 0 0 0 0 0 0 0 127 0" result="hardAlpha"></feColorMatrix><feOffset dx="-1.34441" dy="8.87312"></feOffset><feGaussianBlur stdDeviation="1.20998"></feGaussianBlur><feComposite in2="hardAlpha" operator="arithmetic" k2="-1" k3="1"></feComposite><feColorMatrix type="matrix" values="0 0 0 0 1 0 0 0 0 0.875 0 0 0 0 0.843 0 0 0 0.48 0"></feColorMatrix><feBlend mode="normal" in2="effect1_innerShadow_1878_14542" result="effect2_innerShadow_1878_14542"></feBlend></filter><filter id="filter2_ii_1878_14542" x="5.2002" y="12.6903" width="10.7785" height="12.5011" filterUnits="userSpaceOnUse" color-interpolation-filters="sRGB"><feFlood flood-opacity="0" result="BackgroundImageFix"></feFlood><feBlend mode="normal" in="SourceGraphic" in2="BackgroundImageFix" result="shape"></feBlend><feColorMatrix in="SourceAlpha" type="matrix" values="0 0 0 0 0 0 0 0 0 0 0 0 0 0 0 0 0 0 127 0" result="hardAlpha"></feColorMatrix><feOffset dx="0.0730298" dy="-0.876358"></feOffset><feGaussianBlur stdDeviation="0.328634"></feGaussianBlur><feComposite in2="hardAlpha" operator="arithmetic" k2="-1" k3="1"></feComposite><feColorMatrix type="matrix" values="0 0 0 0 1 0 0 0 0 0.604589 0 0 0 0 0.591667 0 0 0 0.2 0"></feColorMatrix><feBlend mode="multiply" in2="shape" result="effect1_innerShadow_1878_14542"></feBlend><feColorMatrix in="SourceAlpha" type="matrix" values="0 0 0 0 0 0 0 0 0 0 0 0 0 0 0 0 0 0 127 0" result="hardAlpha"></feColorMatrix><feOffset dx="0.949388" dy="-0.803328"></feOffset><feGaussianBlur stdDeviation="0.474694"></feGaussianBlur><feComposite in2="hardAlpha" operator="arithmetic" k2="-1" k3="1"></feComposite><feColorMatrix type="matrix" values="0 0 0 0 1 0 0 0 0 1 0 0 0 0 1 0 0 0 0.3 0"></feColorMatrix><feBlend mode="normal" in2="effect1_innerShadow_1878_14542" result="effect2_innerShadow_1878_14542"></feBlend></filter><filter id="filter3_ii_1878_14542" x="3.85578" y="9.54785" width="12.8532" height="15.15" filterUnits="userSpaceOnUse" color-interpolation-filters="sRGB"><feFlood flood-opacity="0" result="BackgroundImageFix"></feFlood><feBlend mode="normal" in="SourceGraphic" in2="BackgroundImageFix" result="shape"></feBlend><feColorMatrix in="SourceAlpha" type="matrix" values="0 0 0 0 0 0 0 0 0 0 0 0 0 0 0 0 0 0 127 0" result="hardAlpha"></feColorMatrix><feOffset dx="1.67968" dy="4.1627"></feOffset><feGaussianBlur stdDeviation="1.24151"></feGaussianBlur><feComposite in2="hardAlpha" operator="arithmetic" k2="-1" k3="1"></feComposite><feColorMatrix type="matrix" values="0 0 0 0 1 0 0 0 0 0.651 0 0 0 0 0.58 0 0 0 1 0"></feColorMatrix><feBlend mode="normal" in2="shape" result="effect1_innerShadow_1878_14542"></feBlend><feColorMatrix in="SourceAlpha" type="matrix" values="0 0 0 0 0 0 0 0 0 0 0 0 0 0 0 0 0 0 127 0" result="hardAlpha"></feColorMatrix><feOffset dx="-1.34441" dy="8.87312"></feOffset><feGaussianBlur stdDeviation="1.20998"></feGaussianBlur><feComposite in2="hardAlpha" operator="arithmetic" k2="-1" k3="1"></feComposite><feColorMatrix type="matrix" values="0 0 0 0 1 0 0 0 0 0.875 0 0 0 0 0.843 0 0 0 0.48 0"></feColorMatrix><feBlend mode="normal" in2="effect1_innerShadow_1878_14542" result="effect2_innerShadow_1878_14542"></feBlend></filter><filter id="filter4_ii_1878_14542" x="5.2002" y="9.40179" width="10.3403" height="13.0321" filterUnits="userSpaceOnUse" color-interpolation-filters="sRGB"><feFlood flood-opacity="0" result="BackgroundImageFix"></feFlood><feBlend mode="normal" in="SourceGraphic" in2="BackgroundImageFix" result="shape"></feBlend><feColorMatrix in="SourceAlpha" type="matrix" values="0 0 0 0 0 0 0 0 0 0 0 0 0 0 0 0 0 0 127 0" result="hardAlpha"></feColorMatrix><feOffset dx="0.21909" dy="-0.14606"></feOffset><feGaussianBlur stdDeviation="0.547724"></feGaussianBlur><feComposite in2="hardAlpha" operator="arithmetic" k2="-1" k3="1"></feComposite><feColorMatrix type="matrix" values="0 0 0 0 0.996078 0 0 0 0 0.458823 0 0 0 0 0.411765 0 0 0 0.5 0"></feColorMatrix><feBlend mode="normal" in2="shape" result="effect1_innerShadow_1878_14542"></feBlend><feColorMatrix in="SourceAlpha" type="matrix" values="0 0 0 0 0 0 0 0 0 0 0 0 0 0 0 0 0 0 127 0" result="hardAlpha"></feColorMatrix><feOffset dx="1.16847" dy="0.21909"></feOffset><feGaussianBlur stdDeviation="0.255604"></feGaussianBlur><feComposite in2="hardAlpha" operator="arithmetic" k2="-1" k3="1"></feComposite><feColorMatrix type="matrix" values="0 0 0 0 1 0 0 0 0 1 0 0 0 0 1 0 0 0 0.08 0"></feColorMatrix><feBlend mode="normal" in2="effect1_innerShadow_1878_14542" result="effect2_innerShadow_1878_14542"></feBlend></filter><filter id="filter5_ii_1878_14542" x="3.70863" y="4.43871" width="21.1185" height="21.7017" filterUnits="userSpaceOnUse" color-interpolation-filters="sRGB"><feFlood flood-opacity="0" result="BackgroundImageFix"></feFlood><feBlend mode="normal" in="SourceGraphic" in2="BackgroundImageFix" result="shape"></feBlend><feColorMatrix in="SourceAlpha" type="matrix" values="0 0 0 0 0 0 0 0 0 0 0 0 0 0 0 0 0 0 127 0" result="hardAlpha"></feColorMatrix><feOffset dx="-1.46031" dy="-1.09498"></feOffset><feGaussianBlur stdDeviation="1.05875"></feGaussianBlur><feComposite in2="hardAlpha" operator="arithmetic" k2="-1" k3="1"></feComposite><feColorMatrix type="matrix" values="0 0 0 0 0 0 0 0 0 0 0 0 0 0 0 0 0 0 0.1 0"></feColorMatrix><feBlend mode="hard-light" in2="shape" result="effect1_innerShadow_1878_14542"></feBlend><feColorMatrix in="SourceAlpha" type="matrix" values="0 0 0 0 0 0 0 0 0 0 0 0 0 0 0 0 0 0 127 0" result="hardAlpha"></feColorMatrix><feOffset dx="-0.145929" dy="0.949049"></feOffset><feGaussianBlur stdDeviation="0.912822"></feGaussianBlur><feComposite in2="hardAlpha" operator="arithmetic" k2="-1" k3="1"></feComposite><feColorMatrix type="matrix" values="0 0 0 0 1 0 0 0 0 0.87451 0 0 0 0 0.843137 0 0 0 0.7 0"></feColorMatrix><feBlend mode="soft-light" in2="effect1_innerShadow_1878_14542" result="effect2_innerShadow_1878_14542"></feBlend></filter><linearGradient id="paint0_linear_1878_14542" x1="15" y1="0" x2="15" y2="30" gradientUnits="userSpaceOnUse"><stop stop-color="white"></stop><stop offset="1" stop-color="#F6F8FC"></stop></linearGradient><linearGradient id="paint1_linear_1878_14542" x1="11.1029" y1="16.8796" x2="9.39317" y2="18.2212" gradientUnits="userSpaceOnUse"><stop stop-color="#FFA794" stop-opacity="0.3"></stop><stop offset="1" stop-color="#FF9794"></stop></linearGradient><linearGradient id="paint2_linear_1878_14542" x1="11.1029" y1="16.8796" x2="9.39317" y2="18.2212" gradientUnits="userSpaceOnUse"><stop stop-color="#FFA794" stop-opacity="0.3"></stop><stop offset="1" stop-color="#FF9794"></stop></linearGradient><linearGradient id="paint3_linear_1878_14542" x1="10.9573" y1="21.2234" x2="12.791" y2="19.5848" gradientUnits="userSpaceOnUse"><stop stop-color="#FFDFD7"></stop><stop offset="1" stop-color="#FFDFD7"></stop></linearGradient><linearGradient id="paint4_linear_1878_14542" x1="11.1029" y1="13.2143" x2="9.20701" y2="15.1078" gradientUnits="userSpaceOnUse"><stop stop-color="#FFA794" stop-opacity="0.3"></stop><stop offset="1" stop-color="#FF9794"></stop></linearGradient><linearGradient id="paint5_linear_1878_14542" x1="11.1029" y1="13.2143" x2="9.20701" y2="15.1078" gradientUnits="userSpaceOnUse"><stop stop-color="#FFA794" stop-opacity="0.3"></stop><stop offset="1" stop-color="#FF9794"></stop></linearGradient><linearGradient id="paint6_linear_1878_14542" x1="11.5033" y1="17.8375" x2="13.4327" y2="15.8717" gradientUnits="userSpaceOnUse"><stop stop-color="#FFA694"></stop><stop offset="1" stop-color="#FFB7A9"></stop></linearGradient><linearGradient id="paint7_linear_1878_14542" x1="21.4048" y1="18.6753" x2="8.1179" y2="9.53765" gradientUnits="userSpaceOnUse"><stop stop-color="#FF6661"></stop><stop offset="1" stop-color="#FF7D73"></stop></linearGradient><linearGradient id="paint8_linear_1878_14542" x1="21.4048" y1="18.6753" x2="8.1179" y2="9.53765" gradientUnits="userSpaceOnUse"><stop stop-color="#FF6661"></stop><stop offset="1" stop-color="#FF7D73"></stop></linearGradient><linearGradient id="paint9_linear_1878_14542" x1="21.4048" y1="18.6753" x2="8.1179" y2="9.53765" gradientUnits="userSpaceOnUse"><stop stop-color="#FF6661"></stop><stop offset="1" stop-color="#FF7D73"></stop></linearGradient><linearGradient id="paint10_linear_1878_14542" x1="21.4048" y1="18.6753" x2="8.1179" y2="9.53765" gradientUnits="userSpaceOnUse"><stop stop-color="#FF6661"></stop><stop offset="1" stop-color="#FF7D73"></stop></linearGradient><linearGradient id="paint11_linear_1878_14542" x1="21.4048" y1="18.6753" x2="8.1179" y2="9.53765" gradientUnits="userSpaceOnUse"><stop stop-color="#FF6661"></stop><stop offset="1" stop-color="#FF7D73"></stop></linearGradient><linearGradient id="paint12_linear_1878_14542" x1="21.4048" y1="18.6753" x2="8.1179" y2="9.53765" gradientUnits="userSpaceOnUse"><stop stop-color="#FF6661"></stop><stop offset="1" stop-color="#FF7D73"></stop></linearGradient></defs>
</svg>