<svg width="571" height="157" viewBox="0 0 571 157" fill="none" xmlns="http://www.w3.org/2000/svg">
<g clip-path="url(#clip0_122_621)">
<path fill-rule="evenodd" clip-rule="evenodd" d="M77.3932 7.47656C80.895 7.47656 83.8987 9.58661 85.2169 12.6028C85.3487 12.9037 85.6414 13.0688 85.9351 13.0688C86.1447 13.0688 86.3554 12.9837 86.507 12.8031C88.1126 10.885 90.5091 9.73711 93.053 9.73711C93.7837 9.73711 94.5268 9.8326 95.2658 10.0298C98.6546 10.938 101.012 13.761 101.499 17.0232C101.558 17.4134 101.905 17.6667 102.265 17.6667C102.412 17.6667 102.561 17.6241 102.694 17.5317C104.138 16.5198 105.861 15.979 107.614 15.979C109.06 15.979 110.525 16.3475 111.869 17.1228C114.907 18.8769 116.453 22.2137 116.08 25.4904C116.027 25.9533 116.413 26.3362 116.847 26.3362C116.931 26.3362 117.017 26.3217 117.102 26.2906C118.049 25.946 119.044 25.7727 120.038 25.7727C122.222 25.7727 124.404 26.604 126.07 28.2709C128.55 30.7515 129.18 34.3748 127.972 37.4428C127.776 37.94 128.164 38.4838 128.685 38.4838C128.708 38.4838 128.73 38.4828 128.752 38.4807C129.002 38.4589 129.251 38.4475 129.501 38.4475C132.452 38.4475 135.32 39.9742 136.902 42.7143C138.656 45.7522 138.326 49.415 136.365 52.0658C136.035 52.5131 136.302 53.1743 136.85 53.2708C140.02 53.8281 142.738 56.1551 143.627 59.4691C144.535 62.8579 143.269 66.311 140.687 68.3639C140.253 68.7096 140.34 69.4174 140.844 69.653C143.762 71.0116 145.786 73.9634 145.786 77.3937C145.786 80.8966 143.677 83.8992 140.66 85.2174C140.144 85.4436 140.027 86.1452 140.459 86.5075C142.928 88.575 144.121 91.9512 143.232 95.2663C142.324 98.655 139.501 101.012 136.239 101.5C135.689 101.582 135.412 102.239 135.73 102.695C137.578 105.33 137.855 108.898 136.139 111.87C134.558 114.609 131.69 116.135 128.739 116.135C128.417 116.135 128.094 116.117 127.772 116.08C127.744 116.077 127.715 116.075 127.688 116.075C127.176 116.075 126.791 116.607 126.972 117.103C128.074 120.126 127.418 123.645 124.991 126.07C123.325 127.737 121.144 128.568 118.961 128.568C117.894 128.568 116.827 128.369 115.819 127.973C115.73 127.937 115.639 127.921 115.549 127.921C115.124 127.921 114.741 128.294 114.781 128.753C115.064 131.958 113.519 135.187 110.548 136.903C109.205 137.678 107.739 138.046 106.293 138.046C104.469 138.046 102.675 137.46 101.196 136.366C101.061 136.266 100.908 136.221 100.756 136.221C100.403 136.221 100.059 136.468 99.9914 136.851C99.434 140.021 97.107 142.74 93.793 143.627C93.053 143.826 92.3109 143.92 91.5802 143.92C88.9637 143.92 86.5039 142.706 84.8982 140.688C84.7477 140.499 84.5287 140.409 84.3097 140.409C84.0254 140.409 83.742 140.56 83.6102 140.845C82.2505 143.762 79.2988 145.786 75.8685 145.786C72.3656 145.786 69.3629 143.677 68.0448 140.661C67.913 140.36 67.6203 140.195 67.3266 140.195C67.1169 140.195 66.9062 140.279 66.7547 140.46C65.1491 142.378 62.7526 143.526 60.2087 143.526C59.478 143.526 58.7348 143.431 57.9959 143.233C54.6071 142.325 52.25 139.502 51.7622 136.241C51.7041 135.849 51.3564 135.596 50.9963 135.596C50.8499 135.596 50.7005 135.639 50.5676 135.732C49.1239 136.744 47.401 137.285 45.648 137.285C44.2022 137.285 42.7367 136.916 41.3926 136.14C38.3546 134.386 36.8092 131.049 37.1818 127.772C37.2347 127.309 36.8486 126.927 36.4148 126.927C36.3307 126.927 36.2446 126.941 36.1595 126.972C35.2129 127.318 34.2176 127.49 33.2233 127.49C31.0395 127.49 28.8579 126.659 27.192 124.993C24.7114 122.511 24.0814 118.888 25.2896 115.82C25.4857 115.324 25.0975 114.779 24.5765 114.779C24.5537 114.779 24.5319 114.78 24.5101 114.782C24.26 114.804 24.0109 114.815 23.7607 114.815C20.81 114.815 17.9412 113.288 16.3595 110.548C14.6054 107.51 14.9355 103.848 16.8971 101.197C17.2271 100.75 16.9594 100.088 16.4114 99.9919C13.2416 99.4345 10.5233 97.1075 9.63491 93.7935C8.72674 90.4048 9.99298 86.9517 12.5742 84.8997C13.0091 84.5531 12.9219 83.8453 12.4175 83.6107C9.49998 82.2521 7.47607 79.3003 7.47607 75.869C7.47607 72.3671 9.58509 69.3634 12.6023 68.0453C13.1181 67.819 13.2343 67.1174 12.8026 66.7562C10.3334 64.6887 9.14087 61.3114 10.0293 57.9963C10.9375 54.6076 13.7606 52.2505 17.0227 51.7627C17.5728 51.6807 17.8499 51.0237 17.5312 50.5681C15.6838 47.9329 15.4067 44.3646 17.1223 41.3941C18.7041 38.654 21.5718 37.1283 24.5225 37.1283C24.8443 37.1283 25.1671 37.146 25.4899 37.1833C25.5179 37.1865 25.547 37.1875 25.575 37.1875C26.0856 37.1875 26.4707 36.6561 26.2901 36.161C25.1878 33.1366 25.8438 29.6181 28.2694 27.1925C29.9362 25.5256 32.1179 24.6953 34.3006 24.6953C35.3676 24.6953 36.4345 24.8936 37.4423 25.2911C37.5316 25.3264 37.6229 25.3419 37.7122 25.3419C38.1377 25.3419 38.5207 24.9683 38.4802 24.5106C38.1979 21.3045 39.7423 18.0756 42.7138 16.3599C44.0569 15.5846 45.5224 15.2162 46.9682 15.2162C48.7928 15.2162 50.5873 15.8026 52.0653 16.8976C52.2002 16.9962 52.3538 17.0419 52.5054 17.0419C52.8583 17.0419 53.2028 16.7959 53.2703 16.4118C53.8277 13.2421 56.1546 10.5238 59.4686 9.63539C60.2087 9.43716 60.9508 9.34271 61.6814 9.34271C64.298 9.34271 66.7578 10.557 68.3634 12.5747C68.5139 12.7647 68.7329 12.855 68.9519 12.855C69.2363 12.855 69.5197 12.7024 69.6525 12.418C71.0111 9.50047 73.9629 7.47656 77.3932 7.47656Z" fill="white"/>
<path fill-rule="evenodd" clip-rule="evenodd" d="M109.361 111.122C101.562 111.122 102.174 100.113 109.361 100.113C116.548 100.113 117.16 111.122 109.361 111.122ZM44.9182 111.122C37.1194 111.122 37.7313 100.113 44.9182 100.113C52.105 100.113 52.7169 111.122 44.9182 111.122ZM132.922 70.4472H130.28C125.542 70.4472 121.473 67.6153 119.652 63.5566C117.83 67.6153 113.761 70.4472 109.024 70.4472C104.286 70.4472 100.217 67.6153 98.3961 63.5566C96.5749 67.6153 92.5054 70.4472 87.7673 70.4472C83.0302 70.4472 78.9608 67.6153 77.1395 63.5566C75.3182 67.6153 71.2488 70.4472 66.5117 70.4472C61.7736 70.4472 57.7052 67.6153 55.8829 63.5566C54.0616 67.6153 49.9933 70.4472 45.2551 70.4472C40.517 70.4472 36.4486 67.6153 34.6273 63.5566C32.8061 67.6153 28.7367 70.4472 23.9985 70.4472H21.3865C17.4236 74.7105 19.9374 78.3124 29.7238 78.3124V100.206C29.7238 120.781 53.4187 131.069 77.1137 131.069C100.809 131.069 124.504 120.781 124.504 100.206V78.3124C134.298 78.3124 136.854 74.7105 132.922 70.4472Z" fill="#2F2F2F"/>
<path fill-rule="evenodd" clip-rule="evenodd" d="M77.8985 0.0141602C74.4286 0.0141602 71.1075 1.10144 68.3498 3.01347C66.4345 2.26726 64.3734 1.87245 62.2514 1.87245C60.7888 1.87245 59.3273 2.06572 57.907 2.44606C54.5509 3.34523 51.6205 5.25933 49.4499 7.82559C48.8359 7.75635 48.2178 7.72121 47.5987 7.72121C44.6683 7.72121 41.7731 8.49842 39.2273 9.9681C36.2194 11.7044 33.8855 14.31 32.4529 17.3486C28.9365 17.8777 25.6919 19.5076 23.1306 22.0687C20.6705 24.5275 19.0901 27.6529 18.4947 30.9633C15.276 32.3802 12.5214 34.7925 10.7146 37.9231C8.97708 40.9317 8.2587 44.3558 8.53882 47.7044C5.8059 49.8924 3.76965 52.9258 2.82491 56.4491C1.92565 59.806 2.11791 63.2994 3.2549 66.462C1.18247 69.2825 0 72.7407 0 76.387C0 79.8617 1.08945 83.1855 3.00683 85.9461C1.73443 89.2069 1.48739 92.8522 2.4311 96.3765C3.33139 99.7324 5.24464 102.66 7.81011 104.831C7.4256 108.31 8.13053 111.895 9.95489 115.054C11.6873 118.056 14.291 120.398 17.3391 121.833C17.8694 125.292 19.4777 128.572 22.0566 131.151C24.5136 133.606 27.5979 135.206 30.95 135.801C32.3578 138.998 34.7579 141.743 37.9115 143.564C40.4583 145.035 43.3535 145.812 46.2839 145.812C46.7604 145.812 47.2338 145.792 47.7041 145.752C49.8913 148.479 52.9219 150.511 56.4403 151.453C57.8605 151.834 59.3221 152.027 60.7847 152.027C62.7486 152.027 64.6691 151.685 66.4707 151.036C69.2884 153.1 72.7407 154.278 76.3801 154.278C79.85 154.278 83.171 153.191 85.9288 151.279C87.8441 152.026 89.9062 152.42 92.0272 152.42C93.4898 152.42 94.9513 152.228 96.3715 151.846C99.7277 150.947 102.658 149.033 104.828 146.467C105.443 146.536 106.061 146.571 106.68 146.571C109.61 146.571 112.505 145.794 115.051 144.324C118.06 142.588 120.393 139.982 121.826 136.944C125.343 136.415 128.587 134.785 131.148 132.224C133.607 129.765 135.187 126.639 135.784 123.329C139.003 121.913 141.757 119.501 143.564 116.37C145.301 113.362 146.02 109.937 145.74 106.589C148.473 104.401 150.509 101.367 151.454 97.8431C152.353 94.4862 152.161 90.9928 151.024 87.8313C153.096 85.0097 154.279 81.5526 154.279 77.9052C154.279 74.4315 153.188 71.1067 151.272 68.3471C152.544 65.0863 152.791 61.44 151.846 57.9157C150.947 54.5598 149.034 51.6318 146.468 49.4614C146.853 45.9825 146.148 42.3972 144.324 39.2377C142.59 36.2363 139.988 33.8954 136.939 32.4588C136.409 29.0006 134.801 25.7212 132.222 23.1425C129.765 20.6858 126.681 19.0859 123.329 18.4927C121.922 15.2949 119.522 12.5488 116.367 10.7277C113.821 9.25807 110.926 8.48085 107.996 8.48085C107.519 8.48085 107.045 8.50049 106.574 8.53976C104.387 5.81434 101.357 3.78138 97.8382 2.8388C96.418 2.45846 94.9565 2.26519 93.4949 2.26519C91.53 2.26519 89.6095 2.60729 87.8079 3.25738C84.9902 1.19239 81.5379 0.0141602 77.8985 0.0141602ZM77.8985 8.28241C81.386 8.28241 84.3773 10.3836 85.69 13.387C85.8213 13.6867 86.1127 13.8511 86.4053 13.8511C86.6141 13.8511 86.8239 13.7663 86.9748 13.5865C88.5738 11.6765 90.9605 10.5334 93.4939 10.5334C94.2216 10.5334 94.9617 10.6285 95.6976 10.8249C99.0724 11.7292 101.42 14.5404 101.906 17.7888C101.963 18.1774 102.31 18.4296 102.668 18.4296C102.814 18.4296 102.963 18.3873 103.095 18.2953C104.533 17.2876 106.249 16.7491 107.995 16.7491C109.435 16.7491 110.894 17.116 112.233 17.8881C115.258 19.6347 116.798 22.9575 116.426 26.2204C116.373 26.6813 116.758 27.0627 117.19 27.0627C117.274 27.0627 117.359 27.0482 117.444 27.0172C118.387 26.6741 119.378 26.5015 120.368 26.5015C122.543 26.5015 124.716 27.3294 126.375 28.9892C128.845 31.4594 129.472 35.0674 128.269 38.1225C128.074 38.6176 128.461 39.1592 128.979 39.1592C129.002 39.1592 129.024 39.1581 129.046 39.1561C129.295 39.1344 129.543 39.123 129.792 39.123C132.73 39.123 135.587 40.6433 137.163 43.3718C138.91 46.397 138.581 50.0443 136.627 52.684C136.299 53.1294 136.565 53.7878 137.111 53.8839C140.268 54.4389 142.975 56.7561 143.86 60.0561C144.764 63.4306 143.503 66.8692 140.932 68.9135C140.499 69.2577 140.586 69.9625 141.088 70.1972C143.994 71.55 146.01 74.4894 146.01 77.9052C146.01 81.3934 143.909 84.3834 140.905 85.696C140.391 85.9213 140.275 86.62 140.705 86.9807C143.164 89.0395 144.352 92.4015 143.467 95.7026C142.562 99.0771 139.751 101.424 136.502 101.91C135.954 101.992 135.678 102.646 135.996 103.1C137.836 105.724 138.112 109.277 136.403 112.236C134.828 114.964 131.972 116.484 129.033 116.484C128.713 116.484 128.39 116.465 128.07 116.429C128.042 116.426 128.013 116.424 127.986 116.424C127.477 116.424 127.093 116.953 127.273 117.447C128.371 120.458 127.717 123.961 125.301 126.377C123.642 128.037 121.469 128.865 119.295 128.865C118.233 128.865 117.17 128.666 116.167 128.271C116.078 128.236 115.987 128.22 115.898 128.22C115.474 128.22 115.093 128.592 115.133 129.049C115.414 132.24 113.876 135.455 110.917 137.164C109.579 137.936 108.12 138.303 106.68 138.303C104.863 138.303 103.077 137.719 101.604 136.629C101.469 136.53 101.316 136.485 101.166 136.485C100.814 136.485 100.471 136.731 100.404 137.112C99.8487 140.269 97.5313 142.976 94.2309 143.86C93.4939 144.057 92.7549 144.152 92.0272 144.152C89.4214 144.152 86.9717 142.942 85.3727 140.933C85.2228 140.745 85.0047 140.655 84.7866 140.655C84.5034 140.655 84.2212 140.806 84.0899 141.089C82.7359 143.994 79.7962 146.01 76.3801 146.01C72.8916 146.01 69.9013 143.91 68.5886 140.906C68.4573 140.606 68.1658 140.442 67.8733 140.442C67.6645 140.442 67.4547 140.526 67.3038 140.706C65.7048 142.616 63.3181 143.759 60.7847 143.759C60.057 143.759 59.3169 143.665 58.581 143.467C55.2062 142.563 52.8588 139.752 52.373 136.504C52.3151 136.115 51.9688 135.863 51.6102 135.863C51.4644 135.863 51.3156 135.905 51.1833 135.998C49.7455 137.006 48.0297 137.544 46.2839 137.544C44.844 137.544 43.3846 137.177 42.046 136.404C39.0206 134.657 37.4815 131.335 37.8526 128.072C37.9053 127.611 37.5208 127.231 37.0887 127.231C37.005 127.231 36.9192 127.244 36.8344 127.275C35.8918 127.619 34.9005 127.791 33.9103 127.791C31.7355 127.791 29.5629 126.963 27.9039 125.304C25.4335 122.833 24.8061 119.225 26.0092 116.17C26.2046 115.676 25.818 115.133 25.2991 115.133C25.2764 115.133 25.2547 115.134 25.233 115.136C24.9839 115.158 24.7358 115.169 24.4867 115.169C21.5481 115.169 18.6911 113.649 17.1159 110.92C15.369 107.895 15.6977 104.248 17.6513 101.608C17.98 101.163 17.7133 100.504 17.1676 100.408C14.0109 99.8533 11.3038 97.5361 10.419 94.2361C9.51456 90.8616 10.7756 87.423 13.3462 85.3797C13.7793 85.0345 13.6925 84.3297 13.1902 84.0961C10.2846 82.7432 8.26904 79.8038 8.26904 76.387C8.26904 72.8998 10.3694 69.9088 13.3741 68.5962C13.8879 68.3709 14.0036 67.6722 13.5736 67.3126C11.1146 65.2538 9.92698 61.8907 10.8118 58.5896C11.7162 55.2151 14.5277 52.8679 17.7764 52.3822C18.3242 52.3005 18.6002 51.6463 18.2828 51.1926C16.443 48.5684 16.167 45.0152 17.8756 42.0572C19.4508 39.3287 22.3068 37.8094 25.2454 37.8094C25.5658 37.8094 25.8873 37.827 26.2087 37.8642C26.2366 37.8673 26.2656 37.8683 26.2935 37.8683C26.802 37.8683 27.1855 37.3391 27.0057 36.8461C25.9079 33.8344 26.5612 30.3307 28.9768 27.9154C30.6368 26.2555 32.8095 25.4287 34.9832 25.4287C36.0458 25.4287 37.1084 25.6261 38.112 26.0219C38.2009 26.0571 38.2919 26.0726 38.3807 26.0726C38.8045 26.0726 39.1859 25.7005 39.1456 25.2447C38.8645 22.0522 40.4025 18.8368 43.3618 17.1284C44.6993 16.3564 46.1588 15.9895 47.5987 15.9895C49.4158 15.9895 51.2029 16.5734 52.6748 17.6638C52.8092 17.762 52.9622 17.8074 53.1131 17.8074C53.4645 17.8074 53.8077 17.5625 53.8749 17.1801C54.4299 14.0237 56.7473 11.3169 60.0477 10.4322C60.7847 10.2348 61.5237 10.1407 62.2514 10.1407C64.8572 10.1407 67.3069 11.3499 68.9059 13.3591C69.0558 13.5483 69.2739 13.6382 69.492 13.6382C69.7752 13.6382 70.0574 13.4862 70.1897 13.2031C71.5427 10.2978 74.4823 8.28241 77.8985 8.28241Z" fill="#2F2F2F"/>
<path fill-rule="evenodd" clip-rule="evenodd" d="M214.326 104.19C215.525 104.19 216.541 104.657 217.374 105.589C218.206 106.522 218.622 107.721 218.622 109.186C218.622 110.651 218.073 111.85 216.974 112.783C215.875 113.715 214.46 114.181 212.728 114.181H210.929C207.666 114.181 204.685 113.332 201.988 111.634C199.29 109.935 197.175 107.621 195.643 104.69C194.111 101.759 193.346 98.4623 193.346 94.799V70.1214H188.75C187.351 70.1214 186.219 69.7218 185.353 68.9225C184.487 68.1233 184.054 67.1242 184.054 65.9253C184.054 64.5931 184.487 63.5274 185.353 62.7282C186.219 61.9289 187.351 61.5293 188.75 61.5293H193.346V47.1423C193.346 45.677 193.812 44.4781 194.744 43.5456C195.677 42.6131 196.876 42.1469 198.341 42.1469C199.806 42.1469 201.005 42.6131 201.938 43.5456C202.87 44.4781 203.336 45.677 203.336 47.1423V61.5293H211.829C213.227 61.5293 214.36 61.9289 215.226 62.7282C216.091 63.5274 216.524 64.5931 216.524 65.9253C216.524 67.1242 216.091 68.1233 215.226 68.9225C214.36 69.7218 213.227 70.1214 211.829 70.1214H203.336V94.799C203.336 97.4632 204.069 99.6945 205.534 101.493C207 103.291 208.798 104.19 210.929 104.19H214.326ZM252.392 59.1314C257.52 59.1314 262.166 60.347 266.329 62.7781C270.492 65.2093 273.789 68.5395 276.22 72.769C278.651 76.9985 279.867 81.7109 279.867 86.9062V109.186C279.867 110.651 279.384 111.867 278.418 112.833C277.452 113.798 276.237 114.281 274.771 114.281C273.306 114.281 272.091 113.798 271.125 112.833C270.159 111.867 269.676 110.651 269.676 109.186V105.489C267.345 108.353 264.514 110.585 261.184 112.183C257.853 113.782 254.257 114.581 250.394 114.581C245.598 114.581 241.252 113.382 237.355 110.984C233.459 108.586 230.395 105.273 228.164 101.043C225.933 96.8138 224.817 92.1015 224.817 86.9062C224.817 81.7109 226.016 76.9985 228.414 72.769C230.811 68.5395 234.125 65.2093 238.355 62.7781C242.584 60.347 247.263 59.1314 252.392 59.1314ZM252.392 105.589C255.722 105.589 258.736 104.773 261.434 103.141C264.131 101.51 266.246 99.2783 267.778 96.4475C269.31 93.6167 270.076 90.4363 270.076 86.9062C270.076 83.376 269.31 80.179 267.778 77.3149C266.246 74.4508 264.131 72.2029 261.434 70.571C258.736 68.9392 255.722 68.1233 252.392 68.1233C249.061 68.1233 246.048 68.9392 243.35 70.571C240.652 72.2029 238.521 74.4508 236.956 77.3149C235.391 80.179 234.608 83.376 234.608 86.9062C234.608 90.4363 235.391 93.6167 236.956 96.4475C238.521 99.2783 240.652 101.51 243.35 103.141C246.048 104.773 249.061 105.589 252.392 105.589ZM311.438 114.581C306.909 114.581 302.646 113.882 298.65 112.483C294.653 111.084 291.523 109.253 289.258 106.988C288.392 106.122 287.959 105.09 287.959 103.891C287.959 102.292 288.625 100.993 289.958 99.9943C291.223 99.0618 292.389 98.5955 293.454 98.5955C294.787 98.5955 296.052 99.195 297.251 100.394C298.516 101.793 300.415 103.008 302.946 104.041C305.477 105.073 308.174 105.589 311.038 105.589C314.835 105.589 317.782 104.956 319.88 103.691C321.978 102.425 323.027 100.727 323.027 98.5955C323.027 96.5307 321.995 94.8156 319.93 93.4502C317.866 92.0848 314.369 90.9358 309.44 90.0033C296.651 87.5389 290.257 82.2771 290.257 74.2177C290.257 70.954 291.223 68.1899 293.155 65.9253C295.086 63.6606 297.617 61.9622 300.748 60.8299C303.878 59.6976 307.209 59.1314 310.739 59.1314C315.068 59.1314 318.948 59.8308 322.378 61.2295C325.808 62.6283 328.522 64.5598 330.521 67.0243C331.387 68.09 331.82 69.1556 331.82 70.2213C331.82 71.3537 331.253 72.386 330.121 73.3185C329.388 73.8514 328.456 74.1178 327.324 74.1178C325.592 74.1178 324.027 73.485 322.628 72.2195C320.963 70.6876 319.198 69.6052 317.333 68.9725C315.468 68.3397 313.203 68.0233 310.539 68.0233C307.475 68.0233 304.961 68.5395 302.996 69.5719C301.031 70.6043 300.048 72.053 300.048 73.918C300.048 75.2501 300.381 76.3657 301.048 77.2649C301.714 78.1641 302.979 78.9967 304.844 79.7627C306.709 80.5286 309.407 81.2779 312.937 82.0106C320.197 83.476 325.342 85.5074 328.373 88.1051C331.403 90.7027 332.919 94.0663 332.919 98.1959C332.919 101.26 332.086 104.041 330.421 106.538C328.756 109.036 326.308 111.001 323.077 112.433C319.847 113.865 315.967 114.581 311.438 114.581ZM383.572 106.988C384.305 107.787 384.671 108.786 384.671 109.985C384.671 111.451 384.072 112.683 382.873 113.682C381.874 114.481 380.808 114.881 379.676 114.881C378.211 114.881 377.012 114.281 376.079 113.082L357.097 89.6037L352.101 93.9997V109.286C352.101 110.751 351.651 111.933 350.752 112.833C349.853 113.732 348.671 114.181 347.205 114.181C345.74 114.181 344.558 113.732 343.659 112.833C342.76 111.933 342.31 110.751 342.31 109.286V41.0479C342.31 39.5825 342.76 38.4003 343.659 37.5011C344.558 36.6019 345.74 36.1523 347.205 36.1523C348.671 36.1523 349.853 36.6019 350.752 37.5011C351.651 38.4003 352.101 39.5825 352.101 41.0479V81.7109L376.379 60.0306C377.245 59.1647 378.277 58.7318 379.476 58.7318C380.875 58.7318 382.007 59.2646 382.873 60.3303C383.739 61.1962 384.172 62.2286 384.172 63.4275C384.172 64.8263 383.639 65.9586 382.573 66.8244L364.19 83.2095L383.572 106.988ZM415.443 59.1314C420.572 59.1314 425.218 60.347 429.381 62.7781C433.544 65.2093 436.841 68.5395 439.272 72.769C441.703 76.9985 442.918 81.7109 442.918 86.9062V109.186C442.918 110.651 442.436 111.867 441.47 112.833C440.504 113.798 439.288 114.281 437.823 114.281C436.358 114.281 435.142 113.798 434.176 112.833C433.211 111.867 432.728 110.651 432.728 109.186V105.489C430.396 108.353 427.566 110.585 424.235 112.183C420.905 113.782 417.308 114.581 413.445 114.581C408.65 114.581 404.304 113.382 400.407 110.984C396.511 108.586 393.447 105.273 391.215 101.043C388.984 96.8138 387.868 92.1015 387.868 86.9062C387.868 81.7109 389.067 76.9985 391.465 72.769C393.863 68.5395 397.177 65.2093 401.406 62.7781C405.636 60.347 410.315 59.1314 415.443 59.1314ZM415.443 105.589C418.774 105.589 421.788 104.773 424.485 103.141C427.183 101.51 429.297 99.2783 430.829 96.4475C432.361 93.6167 433.127 90.4363 433.127 86.9062C433.127 83.376 432.361 80.179 430.829 77.3149C429.297 74.4508 427.183 72.2029 424.485 70.571C421.788 68.9392 418.774 68.1233 415.443 68.1233C412.113 68.1233 409.099 68.9392 406.402 70.571C403.704 72.2029 401.573 74.4508 400.007 77.3149C398.442 80.179 397.66 83.376 397.66 86.9062C397.66 90.4363 398.442 93.6167 400.007 96.4475C401.573 99.2783 403.704 101.51 406.402 103.141C409.099 104.773 412.113 105.589 415.443 105.589ZM501.765 36.1523C503.297 36.1523 504.529 36.6186 505.462 37.5511C506.394 38.4836 506.86 39.7158 506.86 41.2477V86.8063C506.86 92.0016 505.645 96.7139 503.214 100.943C500.782 105.173 497.485 108.503 493.323 110.934C489.16 113.365 484.514 114.581 479.385 114.581C474.257 114.581 469.577 113.365 465.348 110.934C461.118 108.503 457.805 105.173 455.407 100.943C453.009 96.7139 451.81 92.0016 451.81 86.8063C451.81 81.611 452.926 76.8986 455.157 72.6691C457.389 68.4396 460.452 65.126 464.349 62.7282C468.245 60.3303 472.591 59.1314 477.387 59.1314C481.25 59.1314 484.847 59.9307 488.177 61.5293C491.508 63.1278 494.338 65.3591 496.669 68.2232V41.2477C496.669 39.7158 497.152 38.4836 498.118 37.5511C499.084 36.6186 500.299 36.1523 501.765 36.1523ZM479.385 105.589C482.716 105.589 485.729 104.773 488.427 103.141C491.125 101.51 493.239 99.2616 494.771 96.3975C496.303 93.5335 497.069 90.3364 497.069 86.8063C497.069 83.2761 496.303 80.0957 494.771 77.2649C493.239 74.4342 491.125 72.2029 488.427 70.571C485.729 68.9392 482.716 68.1233 479.385 68.1233C476.055 68.1233 473.041 68.9392 470.343 70.571C467.646 72.2029 465.515 74.4342 463.949 77.2649C462.384 80.0957 461.601 83.2761 461.601 86.8063C461.601 90.3364 462.384 93.5335 463.949 96.3975C465.515 99.2616 467.646 101.51 470.343 103.141C473.041 104.773 476.055 105.589 479.385 105.589ZM570.402 86.007C570.402 87.2725 569.969 88.3215 569.104 89.1541C568.238 89.9867 567.139 90.403 565.807 90.403H527.841C528.574 95.0654 530.689 98.8286 534.185 101.693C537.682 104.557 541.962 105.989 547.024 105.989C549.022 105.989 551.103 105.622 553.268 104.89C555.433 104.157 557.214 103.258 558.613 102.192C559.546 101.46 560.645 101.093 561.91 101.093C563.176 101.093 564.175 101.426 564.907 102.092C566.106 103.091 566.706 104.224 566.706 105.489C566.706 106.688 566.173 107.687 565.107 108.487C562.843 110.285 560.029 111.75 556.665 112.883C553.301 114.015 550.088 114.581 547.024 114.581C541.562 114.581 536.666 113.399 532.337 111.034C528.008 108.67 524.627 105.389 522.196 101.193C519.765 96.997 518.55 92.2347 518.55 86.9062C518.55 81.5777 519.699 76.7987 521.996 72.5692C524.294 68.3397 527.491 65.0427 531.588 62.6782C535.684 60.3137 540.33 59.1314 545.525 59.1314C550.654 59.1314 555.083 60.2637 558.813 62.5283C562.543 64.793 565.407 67.9567 567.405 72.0197C569.403 76.0827 570.402 80.7451 570.402 86.007ZM545.525 67.7236C540.663 67.7236 536.716 69.0557 533.686 71.72C530.655 74.3842 528.74 77.9476 527.941 82.4103H561.211C560.611 77.9476 558.946 74.3842 556.215 71.72C553.484 69.0557 549.921 67.7236 545.525 67.7236Z" fill="black"/>
</g>
<defs>
<clipPath id="clip0_122_621">
<rect width="570.909" height="157" fill="white"/>
</clipPath>
</defs>
</svg>
