<svg width="1204" height="498" viewBox="0 0 1204 498" fill="none" xmlns="http://www.w3.org/2000/svg">
<path fill-rule="evenodd" clip-rule="evenodd" d="M139 359.737L139.667 242.126L183.724 242.376L183.308 315.68L227.24 315.68L227.24 182.057L271.297 182.057L271.297 315.68L308.069 315.68C312.058 315.68 315.403 312.399 315.41 308.291C315.513 252.901 315.565 215.831 315.59 192.61L315.616 160.055L337.645 160.029L359.673 160.029L359.648 192.659C359.622 215.893 359.57 252.974 359.468 308.372C359.415 336.662 336.478 359.737 308.069 359.737L139 359.737ZM337.645 160.029L359.673 160.029L359.673 138L315.616 138L315.616 160.055L337.645 160.029Z" fill="black"/>
<path fill-rule="evenodd" clip-rule="evenodd" d="M594.479 182.782L417.89 182.782C417.876 184.629 417.861 186.449 417.847 188.243C417.777 196.767 417.713 204.705 417.731 212.154L594.062 212.154L594.062 256.211L420.069 256.211C422.049 269.698 425.389 278.75 430.268 285.392C436.245 293.53 446.87 301.15 469.42 306.627C492.315 312.188 525.122 314.954 572.45 314.954L594.479 314.954L594.479 359.011L572.45 359.011C524.19 359.011 487.141 356.27 459.021 349.44C430.556 342.526 409.008 330.872 394.76 311.473C380.91 292.617 376.381 269.613 374.679 245.607C373.452 228.293 373.617 208.075 373.797 186.038C373.864 177.843 373.933 169.396 373.933 160.753L373.934 138.725L594.479 138.725L594.479 182.782Z" fill="black"/>
<path fill-rule="evenodd" clip-rule="evenodd" d="M608.479 138.725L609.145 256.211L783.013 256.211C781.034 269.698 777.694 278.749 772.815 285.392C766.838 293.529 756.212 301.15 733.662 306.627C710.767 312.188 677.96 314.954 630.632 314.954L608.604 314.954L608.604 359.011L630.632 359.011C678.893 359.011 715.941 356.27 744.061 349.44C759.903 345.592 773.603 340.275 785.094 332.973L785.095 359.012L829.152 359.011L829.149 229.98C829.534 216.517 829.413 201.739 829.285 186.037C829.218 177.842 829.149 169.396 829.149 160.753L829.148 138.725L608.479 138.725ZM785.351 212.154L652.953 212.154L652.786 182.782L785.192 182.782C785.206 184.629 785.221 186.449 785.236 188.242C785.305 196.767 785.37 204.705 785.351 212.154Z" fill="black"/>
<path fill-rule="evenodd" clip-rule="evenodd" d="M1064.08 359.737L1063.42 242.251L887.56 242.251C887.527 221.314 887.506 204.993 887.493 192.61L887.467 160.055L865.438 160.029L843.41 160.029L843.435 192.659C843.449 205.035 843.47 221.341 843.502 242.251L843.413 242.251L843.413 286.308L843.575 286.308C843.588 293.316 843.601 300.667 843.615 308.372C843.668 336.662 866.605 359.737 895.014 359.737L1064.08 359.737ZM887.633 286.308L1019.61 286.308L1019.78 315.68L895.014 315.68C891.025 315.68 887.68 312.399 887.673 308.291C887.658 300.615 887.645 293.292 887.633 286.308ZM865.438 160.029L843.41 160.029L843.41 138L887.467 138L887.467 160.055L865.438 160.029Z" fill="black"/>
</svg>
