<svg width="175" height="64" viewBox="0 0 175 64" fill="none" xmlns="http://www.w3.org/2000/svg">
<path fill-rule="evenodd" clip-rule="evenodd" d="M36.0417 24.6408C34.8726 23.4661 32.5279 21.9818 32.5279 21.9818C32.5279 21.9818 32.0616 19.2496 31.7463 18.2382C33.8546 16.2021 34.1699 15.8935 36.1993 13.9429C36.357 17.8441 36.2781 19.8735 36.0417 24.6408Z" fill="#000222"/>
<path fill-rule="evenodd" clip-rule="evenodd" d="M37.6838 32.8374C36.2783 33.2248 36.1206 33.3036 34.7151 33.6968C33.2308 32.8374 31.9041 32.3701 30.6562 32.5221C30.8139 31.7471 31.0437 31.1954 31.2802 30.4926C33.9335 30.1052 35.8841 31.5107 37.6838 32.8374Z" fill="#000222"/>
<path fill-rule="evenodd" clip-rule="evenodd" d="M59.2307 31.7472C59.2307 39.034 56.3351 46.0245 51.1861 51.1802C49.7084 52.6579 48.0844 53.9485 46.3399 55.0387C46.3399 55.0387 46.3342 55.0453 46.3276 55.0453L36.9022 43.2989L44.7103 44.1593C44.7103 44.1593 48.4605 44.5468 49.3143 44.1593C50.0958 43.8507 54.3123 37.9134 54.3123 37.9134C54.3123 37.9134 42.2089 30.2629 38.0712 26.0464C38.5441 18.9401 37.5261 9.49089 37.5261 9.56877C34.4786 12.6105 34.0912 13.0825 31.0437 15.8935C29.717 11.5991 29.094 10.1148 27.7673 5.81949C23.7806 9.09678 20.7398 14.6457 18.5527 21.1271C18.0741 21.6542 17.6145 22.2116 17.1596 22.8052C16.8633 23.1993 16.5661 23.5991 16.2812 24.0113C15.6933 24.847 15.1302 25.7254 14.5917 26.6456C14.2099 27.2942 13.8339 27.9609 13.4701 28.639C10.9326 33.4063 8.84813 38.8706 7.04282 43.7899C7.03143 43.7719 7.01908 43.7472 7.01338 43.7291C5.21947 40.0273 4.26221 35.939 4.26221 31.7472C4.26221 24.4528 7.15868 17.4624 12.3135 12.3076C17.4682 7.15187 24.4597 4.25635 31.7474 4.25635C39.0408 4.25635 46.0313 7.15187 51.1861 12.3076C56.3351 17.4624 59.2307 24.4528 59.2307 31.7472Z" fill="#000222"/>
<path fill-rule="evenodd" clip-rule="evenodd" d="M36.0417 24.6408C34.8726 23.4661 32.5279 21.9818 32.5279 21.9818C32.5279 21.9818 32.0616 19.2496 31.7463 18.2382C33.8546 16.2021 34.1699 15.8935 36.1993 13.9429C36.357 17.8441 36.2781 19.8735 36.0417 24.6408Z" fill="#DD1100"/>
<path fill-rule="evenodd" clip-rule="evenodd" d="M37.6838 32.8374C36.2783 33.2248 36.1206 33.3036 34.7151 33.6968C33.2308 32.8374 31.9041 32.3701 30.6562 32.5221C30.8139 31.7471 31.0437 31.1954 31.2802 30.4926C33.9335 30.1052 35.8841 31.5107 37.6838 32.8374Z" fill="#DD1100"/>
<path fill-rule="evenodd" clip-rule="evenodd" d="M59.2307 31.7472C59.2307 39.034 56.3351 46.0245 51.1861 51.1802C49.7084 52.6579 48.0844 53.9485 46.3399 55.0387C46.3399 55.0387 46.3342 55.0453 46.3276 55.0453L36.9022 43.2989L44.7103 44.1593C44.7103 44.1593 48.4605 44.5468 49.3143 44.1593C50.0958 43.8507 54.3123 37.9134 54.3123 37.9134C54.3123 37.9134 42.2089 30.2629 38.0712 26.0464C38.5441 18.9401 37.5261 9.49089 37.5261 9.56877C34.4786 12.6105 34.0912 13.0825 31.0437 15.8935C29.717 11.5991 29.094 10.1148 27.7673 5.81949C23.7806 9.09678 20.7398 14.6457 18.5527 21.1271C18.0741 21.6542 17.6145 22.2116 17.1596 22.8052C16.8633 23.1993 16.5661 23.5991 16.2812 24.0113C15.6933 24.847 15.1302 25.7254 14.5917 26.6456C14.2099 27.2942 13.8339 27.9609 13.4701 28.639C10.9326 33.4063 8.84813 38.8706 7.04282 43.7899C7.03143 43.7719 7.01908 43.7472 7.01338 43.7291C5.21947 40.0273 4.26221 35.939 4.26221 31.7472C4.26221 24.4528 7.15868 17.4624 12.3135 12.3076C17.4682 7.15187 24.4597 4.25635 31.7474 4.25635C39.0408 4.25635 46.0313 7.15187 51.1861 12.3076C56.3351 17.4624 59.2307 24.4528 59.2307 31.7472Z" fill="#DD1100"/>
<path fill-rule="evenodd" clip-rule="evenodd" d="M36.0417 24.6408C34.8726 23.4661 32.5279 21.9818 32.5279 21.9818C32.5279 21.9818 32.0616 19.2496 31.7463 18.2382C33.8546 16.2021 34.1699 15.8935 36.1993 13.9429C36.357 17.8441 36.2781 19.8735 36.0417 24.6408Z" fill="white"/>
<path fill-rule="evenodd" clip-rule="evenodd" d="M37.6838 32.8374C36.2783 33.2248 36.1206 33.3036 34.7151 33.6968C33.2308 32.8374 31.9041 32.3701 30.6562 32.5221C30.8139 31.7471 31.0437 31.1954 31.2802 30.4926C33.9335 30.1052 35.8841 31.5107 37.6838 32.8374Z" fill="white"/>
<path fill-rule="evenodd" clip-rule="evenodd" d="M37.6838 32.8374C36.2783 33.2248 36.1206 33.3036 34.7151 33.6968C33.2308 32.8374 31.9041 32.3701 30.6562 32.5221C30.8139 31.7471 31.0437 31.1954 31.2802 30.4926C33.9335 30.1052 35.8841 31.5107 37.6838 32.8374Z" fill="black"/>
<path fill-rule="evenodd" clip-rule="evenodd" d="M36.9019 43.2991L46.3283 55.0455C46.334 55.0455 46.3397 55.0389 46.3397 55.0389L36.9019 43.2991ZM7.01221 43.7293C7.01885 43.7474 7.0312 43.7711 7.0426 43.7901C8.84791 38.8708 10.9324 33.4065 13.4699 28.6392C10.9144 33.3884 8.81182 38.8348 7.01221 43.7293Z" fill="#000222"/>
<path fill-rule="evenodd" clip-rule="evenodd" d="M51.1859 51.1805C49.7083 52.6582 48.0843 53.9488 46.3398 55.039C46.3398 55.039 46.3341 55.0456 46.3275 55.0456L36.902 43.2992L44.7102 44.1596C44.7102 44.1596 48.4604 44.5471 49.3142 44.1596C50.0957 43.851 54.3122 37.9137 54.3122 37.9137C54.3122 37.9137 42.2088 30.2632 38.0711 26.0467C38.5431 18.9403 37.526 9.49119 37.526 9.56906C34.4785 12.6108 34.091 13.0828 31.0445 15.8938C29.7178 11.5994 29.093 10.1151 27.7672 5.81979C23.7805 9.09708 20.7397 14.646 18.5526 21.1274C18.074 21.6545 17.6144 22.2119 17.1595 22.8055C16.8632 23.1996 16.5659 23.5994 16.281 24.0116C15.6942 24.8473 15.1301 25.7257 14.5916 26.6459C14.2098 27.2945 13.8338 27.9612 13.47 28.6393C13.3133 28.9365 13.1557 29.2395 12.9981 29.5424C10.6714 34.0856 8.73312 39.1796 7.04366 43.7902C7.03132 43.7722 7.01897 43.7475 7.01327 43.7294C5.21936 40.0276 4.2621 35.9393 4.2621 31.7475C4.2621 24.4531 7.15857 17.4627 12.3133 12.3079C17.4691 7.15217 24.4596 4.25664 31.7463 4.25664C39.0407 4.25664 46.0312 7.15217 51.1859 12.3079C56.335 17.4627 59.2305 24.4531 59.2305 31.7475C59.2305 39.0343 56.335 46.0248 51.1859 51.1805ZM31.7463 18.2385C33.8546 16.2025 34.1699 15.8938 36.1993 13.9432C36.3569 17.8444 36.2781 19.8739 36.0417 24.6412C34.8726 23.4664 32.5279 21.9821 32.5279 21.9821C32.5279 21.9821 32.0616 19.2499 31.7463 18.2385ZM41.506 57.5898C24.6647 63.6781 12.4947 52.4711 9.89645 48.5518C9.9088 48.5148 9.9145 48.4844 9.9202 48.4483C12.2592 38.5623 15.1424 26.7314 19.8005 23.2357C22.224 19.0135 22.9268 12.7685 27.2943 9.49119C28.3912 12.7685 30.111 19.5652 31.28 22.8425C36.4358 27.9973 44.2439 34.4009 49.4718 37.0542C50.0169 37.3686 50.7197 39.5557 50.7197 39.5557L48.6114 42.209L26.1253 39.9431C25.6219 39.9013 25.1196 39.8823 24.6172 39.8823C23.1747 39.8823 21.697 40.0466 19.9581 40.3306C21.0484 37.5984 23.3931 35.4123 23.3931 35.4123C23.3931 35.4123 21.206 34.0856 19.565 33.8548C20.037 32.7589 21.2848 31.3534 21.6001 30.9659C20.9705 31.1958 16.4453 33.2252 15.9724 34.945C18.1595 35.4911 19.7217 36.1938 19.7217 36.1938C19.7217 36.1938 17.3048 38.6164 16.8328 42.8329C16.8328 42.8329 24.017 41.7361 29.4083 42.4388C29.5602 42.5177 29.639 42.5177 29.7178 42.5177L32.5279 42.5965L41.4576 57.4625L41.5298 57.5774C41.5184 57.5831 41.5117 57.5898 41.506 57.5898ZM53.3369 10.1569C47.6124 4.43233 39.846 1.21582 31.7463 1.21582C23.6533 1.21582 15.8879 4.43233 10.1567 10.1569C4.43209 15.8815 1.21558 23.6478 1.21558 31.7475C1.21558 39.8406 4.43209 47.606 10.1567 53.3305C15.8879 59.0618 23.6533 62.2783 31.7463 62.2783C39.846 62.2783 47.6124 59.0618 53.3369 53.3305C59.0615 47.606 62.278 39.8406 62.278 31.7475C62.278 23.6478 59.0615 15.8815 53.3369 10.1569Z" fill="black"/>
<path fill-rule="evenodd" clip-rule="evenodd" d="M31.2801 30.493C33.9334 30.1056 35.884 31.5111 37.6837 32.8378C36.2781 33.2252 36.1205 33.304 34.715 33.6972C33.2307 32.8378 31.904 32.3705 30.6561 32.5225C30.8138 31.7475 31.0436 31.1958 31.2801 30.493ZM19.9582 40.3306C21.697 40.0467 23.1747 39.8824 24.6172 39.8824C25.1196 39.8824 25.622 39.9014 26.1253 39.9431L48.6114 42.209L50.7197 39.5557C50.7197 39.5557 50.0169 37.3686 49.4718 37.0533C44.2439 34.4009 36.4358 27.9973 31.2801 22.8425C30.111 19.5652 28.3912 12.7685 27.2943 9.49121C22.9268 12.7685 22.2241 19.0135 19.8005 23.2357C15.1424 26.7314 12.2592 38.5623 9.92023 48.4483C9.91453 48.4844 9.90883 48.5148 9.89648 48.5518C12.4948 52.4711 24.6657 63.6781 41.506 57.5898C41.5117 57.5898 41.5174 57.5831 41.5298 57.5774L41.4576 57.4625L32.5279 42.5965L29.7169 42.5177C29.639 42.5177 29.5602 42.5177 29.4083 42.4389C24.017 41.7361 16.8328 42.833 16.8328 42.833C17.3048 38.6165 19.7217 36.1939 19.7217 36.1939C19.7217 36.1939 18.1595 35.4911 15.9724 34.946C16.4444 33.2252 20.9696 31.1958 21.6001 30.966C21.2849 31.3534 20.037 32.7589 19.565 33.8548C21.206 34.0856 23.3931 35.4123 23.3931 35.4123C23.3931 35.4123 21.0484 37.5994 19.9582 40.3306Z" fill="white"/>
<path d="M77.0815 6.4082H80.6285L83.8469 21.3835L86.3293 6.4082H89.3445L85.7728 25.6398H82.3008L78.8554 9.80325L75.4091 25.6398H71.9381L68.3645 6.4082H71.3806L73.864 21.3835L77.0815 6.4082Z" fill="black"/>
<path d="M90.0786 19.0771C90.0786 15.1759 91.1935 12.439 95.7044 12.439C100.214 12.439 101.328 15.1759 101.328 19.0771C101.328 22.9802 100.214 25.7162 95.7044 25.7162C91.1935 25.7162 90.0786 22.9802 90.0786 19.0771ZM98.466 19.0771C98.466 16.3668 98.1109 14.8207 95.7044 14.8207C93.297 14.8207 92.9419 16.3668 92.9419 19.0771C92.9419 21.7884 93.297 23.3345 95.7044 23.3345C98.1109 23.3345 98.466 21.7884 98.466 19.0771Z" fill="black"/>
<path d="M103.507 22.2951V6.4082H106.344V22.2695C106.344 22.9798 106.598 23.2325 107.409 23.2325V25.5382C107.409 25.5382 107.155 25.5895 106.851 25.5895C104.546 25.5895 103.507 24.4746 103.507 22.2951Z" fill="black"/>
<path d="M118.05 8.81578C117.594 8.66384 117.062 8.56222 116.175 8.56222C114.908 8.56222 113.894 9.0437 113.894 10.4881V12.7436H117.468V15.15H113.894V25.4121H111.057V15.15H108.751V13.4017L111.057 12.7436V10.2346C111.057 7.52329 112.577 6.10449 115.972 6.10449C116.809 6.10449 117.568 6.2308 118.05 6.40838V8.81578Z" fill="black"/>
<path d="M126.411 15.024C126.107 14.9223 125.6 14.872 125.017 14.872C123.522 14.872 122.407 15.2262 121.774 15.6317V25.4123H118.936V12.7429H120.608L121.065 13.7561C122.002 12.9964 123.421 12.439 125.068 12.439C125.6 12.439 126.056 12.5149 126.411 12.5909V15.024Z" fill="black"/>
<path d="M132.238 14.8711C130.591 14.8711 129.248 15.2519 128.286 15.6317V13.174C129.274 12.7429 130.946 12.439 132.441 12.439C136.597 12.439 137.56 14.2633 137.56 16.9489V25.4123H135.887L135.431 24.399C134.417 25.2347 132.999 25.7162 131.605 25.7162C128.337 25.7162 127.247 23.6896 127.247 21.6621C127.247 18.9252 129.021 17.7599 131.884 17.532L134.721 17.3041V16.6707C134.721 15.3782 134.114 14.8711 132.238 14.8711ZM132.061 19.5595C130.794 19.7115 130.059 20.192 130.059 21.5102C130.059 22.4731 130.465 23.3848 132.01 23.3848C133.151 23.3848 133.936 23.0553 134.721 22.5491V19.2547L132.061 19.5595Z" fill="black"/>
<path d="M154.865 16.4674C154.865 15.2766 154.18 14.8464 153.065 14.8464C151.824 14.8464 150.988 15.2262 150.329 15.6317C150.379 16.0876 150.405 16.5187 150.405 17.0249V25.4123H147.567V16.4674C147.567 15.2766 146.908 14.8464 145.769 14.8464C144.603 14.8464 143.766 15.2006 143.108 15.5814V25.4123H140.269V12.7429H141.942L142.397 13.7561C143.462 12.9204 144.982 12.439 146.224 12.439C147.922 12.439 148.935 12.9204 149.467 13.7058C150.607 12.8948 152.128 12.439 153.522 12.439C156.511 12.439 157.702 14.061 157.702 16.4674V25.4123H154.865V16.4674Z" fill="black"/>
<path d="M71.1933 48.1411H79.4535V50.7508H68.3557V31.7471H71.1933V48.1411Z" fill="black"/>
<path d="M85.0017 40.2109C83.355 40.2109 82.0121 40.5907 81.0492 40.9706V38.5129C82.0378 38.0827 83.7092 37.7778 85.2049 37.7778C89.3606 37.7778 90.3236 39.6021 90.3236 42.2878V50.7512H88.6503L88.1945 49.7379C87.1812 50.5736 85.7624 51.0551 84.3683 51.0551C81.0995 51.0551 80.0103 49.0285 80.0103 47.001C80.0103 44.264 81.7842 43.0988 84.6475 42.8709L87.4851 42.643V42.0095C87.4851 40.717 86.8773 40.2109 85.0017 40.2109ZM84.8251 44.8984C83.5572 45.0504 82.8232 45.5309 82.8232 46.849C82.8232 47.812 83.2287 48.7237 84.7738 48.7237C85.9143 48.7237 86.6997 48.3951 87.4851 47.888V44.5936L84.8251 44.8984Z" fill="black"/>
<path d="M100.787 50.7512V42.0599C100.787 40.7683 100.128 40.1852 98.7851 40.1852C97.4679 40.1852 96.5553 40.5395 95.8715 40.9203V50.7512H93.033V38.0817H94.7053L95.1612 39.095C96.4536 38.209 97.8981 37.7778 99.2666 37.7778C102.484 37.7778 103.625 39.3742 103.625 41.8063V50.7512H100.787Z" fill="black"/>
<path d="M111.123 47.4065C110.591 47.4065 110.084 47.3808 109.654 47.3049C109.451 47.5081 109.299 47.7863 109.299 48.0399C109.299 48.471 109.527 48.699 110.06 48.7749L114.645 49.3324C117.154 49.6363 118.04 50.7759 118.04 52.8794C118.04 56.1481 114.595 57.3893 110.921 57.3893C107.526 57.3893 105.067 56.3001 105.067 53.6904C105.067 51.9668 106.36 50.9535 107.702 50.5489V50.5233C107.07 50.1681 106.715 49.4587 106.715 48.7749C106.715 47.8367 107.272 47.1786 107.854 46.7218C106.411 45.9117 105.828 44.4416 105.828 42.5926C105.828 39.7038 107.247 37.7778 111.123 37.7778C112.036 37.7778 112.796 37.8794 113.455 38.0817H117.838V39.8813L116.039 40.3875C116.292 41.0466 116.419 41.7807 116.419 42.5926C116.419 45.4806 115.001 47.4065 111.123 47.4065ZM110.236 51.1311C108.945 51.359 107.779 51.9421 107.779 53.1586C107.779 54.5774 108.793 55.1348 111.123 55.1348C113.354 55.1348 115.305 54.4758 115.305 52.9554C115.305 52.094 114.873 51.7142 113.834 51.5869L110.236 51.1311ZM111.123 45.152C113.251 45.152 113.734 44.0361 113.734 42.5926C113.734 41.1482 113.251 40.0333 111.123 40.0333C108.995 40.0333 108.513 41.1482 108.513 42.5926C108.513 44.0361 108.995 45.152 111.123 45.152Z" fill="black"/>
<path d="M122.322 38.0815V46.7729C122.322 48.0654 122.981 48.6475 124.323 48.6475C125.642 48.6475 126.553 48.2933 127.237 47.9134V38.0815H130.075V50.751H128.403L127.947 49.7377C126.655 50.6238 125.21 51.0549 123.842 51.0549C120.624 51.0549 119.484 49.4585 119.484 47.0264V38.0815H122.322Z" fill="black"/>
<path d="M136.89 40.2109C135.243 40.2109 133.9 40.5907 132.938 40.9706V38.5129C133.926 38.0827 135.598 37.7778 137.093 37.7778C141.248 37.7778 142.211 39.6021 142.211 42.2878V50.7512H140.539L140.083 49.7379C139.069 50.5736 137.651 51.0551 136.257 51.0551C132.988 51.0551 131.899 49.0285 131.899 47.001C131.899 44.264 133.672 43.0988 136.535 42.8709L139.373 42.643V42.0095C139.373 40.717 138.765 40.2109 136.89 40.2109ZM136.713 44.8984C135.446 45.0504 134.711 45.5309 134.711 46.849C134.711 47.812 135.116 48.7237 136.662 48.7237C137.803 48.7237 138.588 48.3951 139.373 47.888V44.5936L136.713 44.8984Z" fill="black"/>
<path d="M149.735 47.4065C149.204 47.4065 148.697 47.3808 148.266 47.3049C148.063 47.5081 147.911 47.7863 147.911 48.0399C147.911 48.471 148.139 48.699 148.672 48.7749L153.258 49.3324C155.767 49.6363 156.653 50.7759 156.653 52.8794C156.653 56.1481 153.206 57.3893 149.533 57.3893C146.138 57.3893 143.679 56.3001 143.679 53.6904C143.679 51.9668 144.972 50.9535 146.315 50.5489V50.5233C145.681 50.1681 145.327 49.4587 145.327 48.7749C145.327 47.8367 145.884 47.1786 146.467 46.7218C145.022 45.9117 144.44 44.4416 144.44 42.5926C144.44 39.7038 145.859 37.7778 149.735 37.7778C150.648 37.7778 151.408 37.8794 152.067 38.0817H156.451V39.8813L154.651 40.3875C154.904 41.0466 155.031 41.7807 155.031 42.5926C155.031 45.4806 153.612 47.4065 149.735 47.4065ZM148.848 51.1311C147.557 51.359 146.391 51.9421 146.391 53.1586C146.391 54.5774 147.405 55.1348 149.735 55.1348C151.966 55.1348 153.916 54.4758 153.916 52.9554C153.916 52.094 153.486 51.7142 152.447 51.5869L148.848 51.1311ZM149.735 45.152C151.864 45.152 152.346 44.0361 152.346 42.5926C152.346 41.1482 151.864 40.0333 149.735 40.0333C147.607 40.0333 147.126 41.1482 147.126 42.5926C147.126 44.0361 147.607 45.152 149.735 45.152Z" fill="black"/>
<path d="M163.468 37.7778C167.927 37.7778 168.637 40.717 168.637 44.2137C168.637 44.6449 168.611 45.0494 168.586 45.4559H160.706C160.756 47.3561 161.441 48.5974 164.025 48.5974C165.621 48.5974 166.94 48.3191 168.055 47.8367V50.2697C166.61 50.8775 164.963 51.0551 163.595 51.0551C159.363 51.0551 157.843 48.5214 157.843 44.416C157.843 40.3372 159.338 37.7778 163.468 37.7778ZM160.706 43.4796H165.773C165.773 41.756 165.673 40.2365 163.468 40.2365C161.39 40.2365 160.808 41.5784 160.706 43.4796Z" fill="black"/>
<path d="M170.754 35.3257H171.545L172.276 37.2098L172.994 35.3257H173.785V38.1148H173.275V35.9829H173.261L172.477 38.1148H172.061L171.277 35.9829H171.263V38.1148H170.754V35.3257ZM168.73 35.7948H167.871V35.3257H170.097V35.7948H169.239V38.1148H168.73V35.7948Z" fill="black"/>
</svg>
